ISO-10303-21;
HEADER;
FILE_DESCRIPTION (( 'STEP AP203' ),
    '1' );
FILE_NAME ('Ö÷¿ò.st',
    '2026-09-20T07:24:52',
    ( '' ),
    ( '' ),
    'SwSTEP 2.0',
    'SolidWorks 2024',
    '' );
FILE_SCHEMA (( 'CONFIG_CONTROL_DESIGN' ));
ENDSEC;

DATA;
#1 = APPLICATION_CONTEXT ( 'configuration controlled 3d designs of mechanical parts and assemblies' ) ;
#2 = ORIENTED_EDGE ( 'NONE', *, *, #858, .F. ) ;
#3 = ORIENTED_EDGE ( 'NONE', *, *, #694, .F. ) ;
#4 = DIRECTION ( 'NONE',  ( 0.000000000000000000, 0.000000000000000000, -1.000000000000000000 ) ) ;
#5 = CARTESIAN_POINT ( 'NONE',  ( 35.00000000000000000, -23.00000000000000000, 78.50000000000000000 ) ) ;
#6 = ORIENTED_EDGE ( 'NONE', *, *, #874, .F. ) ;
#7 = DIRECTION ( 'NONE',  ( 0.000000000000000000, 1.000000000000000000, 0.000000000000000000 ) ) ;
#8 = AXIS2_PLACEMENT_3D ( 'NONE', #404, #397, #141 ) ;
#9 = FACE_OUTER_BOUND ( 'NONE', #106, .T. ) ;
#10 = UNCERTAINTY_MEASURE_WITH_UNIT (LENGTH_MEASURE( 1.000000000000000082E-05 ), #772, 'distance_accuracy_value', 'NONE');
#11 = ORIENTED_EDGE ( 'NONE', *, *, #39, .T. ) ;
#12 = PERSON_AND_ORGANIZATION ( #486, #431 ) ;
#13 = CARTESIAN_POINT ( 'NONE',  ( 20.50000000000000000, 23.00000000000000000, 77.00000000000000000 ) ) ;
#14 = VECTOR ( 'NONE', #157, 1000.000000000000000 ) ;
#15 = PLANE ( 'NONE',  #1081 ) ;
#16 = DIRECTION ( 'NONE',  ( 0.000000000000000000, 0.000000000000000000, 1.000000000000000000 ) ) ;
#17 = VECTOR ( 'NONE', #477, 1000.000000000000000 ) ;
#18 = FACE_OUTER_BOUND ( 'NONE', #718, .T. ) ;
#19 = EDGE_CURVE ( 'NONE', #294, #1039, #1091, .T. ) ;
#20 = CARTESIAN_POINT ( 'NONE',  ( -38.00000000000000000, -26.00000000000000000, 82.00000000000000000 ) ) ;
#21 = EDGE_LOOP ( 'NONE', ( #672, #535, #1045, #980, #89, #308, #1073, #456 ) ) ;
#22 = ORIENTED_EDGE ( 'NONE', *, *, #134, .T. ) ;
#23 = ADVANCED_FACE ( 'NONE', ( #592 ), #1013, .F. ) ;
#24 = VECTOR ( 'NONE', #318, 1000.000000000000000 ) ;
#25 = CARTESIAN_POINT ( 'NONE',  ( 0.000000000000000000, -28.00000000000000000, 66.50000000000000000 ) ) ;
#27 = EDGE_CURVE ( 'NONE', #633, #513, #441, .T. ) ;
#26 = ADVANCED_FACE ( 'NONE', ( #179 ), #90, .F. ) ;
#28 = CALENDAR_DATE ( 2026, 20, 9 ) ;
#29 = ORIENTED_EDGE ( 'NONE', *, *, #81, .F. ) ;
#30 = CARTESIAN_POINT ( 'NONE',  ( 20.50000000000000000, 26.00000000000000000, 60.50000000000000000 ) ) ;
#31 = PERSON_AND_ORGANIZATION ( #486, #431 ) ;
#32 = EDGE_LOOP ( 'NONE', ( #232, #948, #813, #429 ) ) ;
#33 = VECTOR ( 'NONE', #984, 1000.000000000000000 ) ;
#34 = CIRCLE ( 'NONE', #654, 12.50000000000000000 ) ;
#35 = CC_DESIGN_APPROVAL ( #52, ( #987 ) ) ;
#36 = DIRECTION ( 'NONE',  ( 0.000000000000000000, 0.000000000000000000, 1.000000000000000000 ) ) ;
#37 = CARTESIAN_POINT ( 'NONE',  ( 0.000000000000000000, 26.00000000000000000, 66.50000000000000000 ) ) ;
#38 = ORIENTED_EDGE ( 'NONE', *, *, #345, .F. ) ;
#39 = EDGE_CURVE ( 'NONE', #1022, #341, #1069, .T. ) ;
#40 = DIRECTION ( 'NONE',  ( 1.000000000000000000, 0.000000000000000000, 0.000000000000000000 ) ) ;
#41 = DIRECTION ( 'NONE',  ( 0.000000000000000000, -1.000000000000000000, 0.000000000000000000 ) ) ;
#42 = CARTESIAN_POINT ( 'NONE',  ( 6.782329983125259254, 26.00000000000000000, 77.00000000000000000 ) ) ;
#43 = ORIENTED_EDGE ( 'NONE', *, *, #108, .T. ) ;
#44 = PLANE ( 'NONE',  #8 ) ;
#45 = DIRECTION ( 'NONE',  ( 0.000000000000000000, 0.000000000000000000, 1.000000000000000000 ) ) ;
#46 = CARTESIAN_POINT ( 'NONE',  ( -35.00000000000000000, -23.00000000000000000, 78.50000000000000000 ) ) ;
#47 = FACE_OUTER_BOUND ( 'NONE', #21, .T. ) ;
#48 = VERTEX_POINT ( 'NONE', #411 ) ;
#49 = CARTESIAN_POINT ( 'NONE',  ( -38.00000000000000000, 0.000000000000000000, 48.00000000000000000 ) ) ;
#50 = LINE ( 'NONE', #824, #546 ) ;
#51 = LINE ( 'NONE', #230, #356 ) ;
#52 = APPROVAL ( #875, 'æœª' ) ;
#53 = DIRECTION ( 'NONE',  ( 0.000000000000000000, -1.000000000000000000, 0.000000000000000000 ) ) ;
#54 = EDGE_CURVE ( 'NONE', #992, #1022, #996, .T. ) ;
#55 = EDGE_LOOP ( 'NONE', ( #529, #578, #836, #498 ) ) ;
#56 = VECTOR ( 'NONE', #314, 1000.000000000000000 ) ;
#57 = EDGE_CURVE ( 'NONE', #416, #351, #309, .T. ) ;
#58 = ORIENTED_EDGE ( 'NONE', *, *, #845, .F. ) ;
#59 = CARTESIAN_POINT ( 'NONE',  ( 0.000000000000000000, -23.00000000000000000, 66.50000000000000000 ) ) ;
#60 = DIRECTION ( 'NONE',  ( 0.000000000000000000, 1.000000000000000000, 0.000000000000000000 ) ) ;
#61 = DIRECTION ( 'NONE',  ( 0.000000000000000000, 0.000000000000000000, 1.000000000000000000 ) ) ;
#62 = VERTEX_POINT ( 'NONE', #133 ) ;
#63 = CARTESIAN_POINT ( 'NONE',  ( 38.00000000000000000, -26.00000000000000000, 48.00000000000000000 ) ) ;
#64 = VERTEX_POINT ( 'NONE', #816 ) ;
#65 = LINE ( 'NONE', #162, #530 ) ;
#66 = FACE_OUTER_BOUND ( 'NONE', #126, .T. ) ;
#67 = VECTOR ( 'NONE', #462, 1000.000000000000000 ) ;
#68 = DIRECTION ( 'NONE',  ( 1.000000000000000000, 0.000000000000000000, 0.000000000000000000 ) ) ;
#69 = CARTESIAN_POINT ( 'NONE',  ( -38.00000000000000000, 11.50000000000000000, 82.00000000000000000 ) ) ;
#70 = ORIENTED_EDGE ( 'NONE', *, *, #610, .T. ) ;
#71 = VERTEX_POINT ( 'NONE', #300 ) ;
#72 = DIRECTION ( 'NONE',  ( 0.000000000000000000, 1.000000000000000000, 0.000000000000000000 ) ) ;
#73 = DIRECTION ( 'NONE',  ( 0.000000000000000000, 1.000000000000000000, 0.000000000000000000 ) ) ;
#74 = VECTOR ( 'NONE', #478, 1000.000000000000000 ) ;
#75 = VECTOR ( 'NONE', #611, 1000.000000000000000 ) ;
#76 = CARTESIAN_POINT ( 'NONE',  ( -20.50000000000000000, 26.00000000000000000, 77.00000000000000000 ) ) ;
#77 = ORIENTED_EDGE ( 'NONE', *, *, #762, .F. ) ;
#78 = VERTEX_POINT ( 'NONE', #914 ) ;
#79 = ADVANCED_FACE ( 'NONE', ( #896 ), #233, .F. ) ;
#80 = ORIENTED_EDGE ( 'NONE', *, *, #585, .T. ) ;
#81 = EDGE_CURVE ( 'NONE', #794, #829, #228, .T. ) ;
#82 = LINE ( 'NONE', #575, #627 ) ;
#83 = VECTOR ( 'NONE', #1028, 1000.000000000000000 ) ;
#84 = DIRECTION ( 'NONE',  ( 1.000000000000000000, 0.000000000000000000, 0.000000000000000000 ) ) ;
#85 = ORIENTED_EDGE ( 'NONE', *, *, #640, .T. ) ;
#86 = ORIENTED_EDGE ( 'NONE', *, *, #720, .F. ) ;
#87 = FACE_OUTER_BOUND ( 'NONE', #951, .T. ) ;
#88 = DIRECTION ( 'NONE',  ( 0.000000000000000000, 0.000000000000000000, 1.000000000000000000 ) ) ;
#89 = ORIENTED_EDGE ( 'NONE', *, *, #369, .F. ) ;
#90 = PLANE ( 'NONE',  #1006 ) ;
#91 = MANIFOLD_SOLID_BREP ( 'Í¹Ì¨-À', #102 ) ;
#92 = EDGE_CURVE ( 'NONE', #767, #597, #1014, .T. ) ;
#93 = DIRECTION ( 'NONE',  ( 0.000000000000000000, 0.000000000000000000, -1.000000000000000000 ) ) ;
#94 = LOCAL_TIME ( 15, 24, 52.00000000000000000, #856 ) ;
#95 = ORIENTED_EDGE ( 'NONE', *, *, #225, .F. ) ;
#96 = ORIENTED_EDGE ( 'NONE', *, *, #480, .F. ) ;
#97 = VECTOR ( 'NONE', #737, 1000.000000000000000 ) ;
#98 = CALENDAR_DATE ( 2026, 20, 9 ) ;
#99 = DIRECTION ( 'NONE',  ( 1.000000000000000000, 0.000000000000000000, 0.000000000000000000 ) ) ;
#100 = FACE_OUTER_BOUND ( 'NONE', #925, .T. ) ;
#101 = DIRECTION ( 'NONE',  ( 0.000000000000000000, 1.000000000000000000, 0.000000000000000000 ) ) ;
#102 = CLOSED_SHELL ( 'NONE', ( #481, #26, #1010, #923, #974, #465, #775, #355, #346, #143, #449, #1093, #776, #446, #244, #152, #727, #261, #1051, #368, #894, #643, #23, #746, #1067, #79, #931, #625, #526, #459 ) ) ;
#103 = PLANE ( 'NONE',  #213 ) ;
#104 = SHAPE_DEFINITION_REPRESENTATION ( #895, #288 ) ;
#105 = LINE ( 'NONE', #522, #479 ) ;
#106 = EDGE_LOOP ( 'NONE', ( #145, #935, #892, #358 ) ) ;
#108 = EDGE_CURVE ( 'NONE', #995, #111, #975, .T. ) ;
#107 = EDGE_CURVE ( 'NONE', #198, #588, #65, .T. ) ;
#109 = FACE_OUTER_BOUND ( 'NONE', #919, .T. ) ;
#110 = PERSON_AND_ORGANIZATION_ROLE ( 'design_owner' ) ;
#111 = VERTEX_POINT ( 'NONE', #1001 ) ;
#112 = ORIENTED_EDGE ( 'NONE', *, *, #861, .F. ) ;
#113 = CARTESIAN_POINT ( 'NONE',  ( 35.00000000000000000, 0.000000000000000000, 52.00000000000000000 ) ) ;
#114 = DATE_AND_TIME ( #956, #1041 ) ;
#115 = ORIENTED_EDGE ( 'NONE', *, *, #19, .F. ) ;
#116 = VECTOR ( 'NONE', #849, 1000.000000000000000 ) ;
#117 = CARTESIAN_POINT ( 'NONE',  ( 3.500000000000000000, -23.00000000000000000, 78.50000000000000000 ) ) ;
#118 = DIRECTION ( 'NONE',  ( 0.000000000000000000, 0.000000000000000000, 1.000000000000000000 ) ) ;
#119 = ORIENTED_EDGE ( 'NONE', *, *, #81, .T. ) ;
#120 = AXIS2_PLACEMENT_3D ( 'NONE', #903, #229, #738 ) ;
#121 = CIRCLE ( 'NONE', #515, 12.50000000000000000 ) ;
#122 = AXIS2_PLACEMENT_3D ( 'NONE', #278, #612, #787 ) ;
#123 = LINE ( 'NONE', #207, #601 ) ;
#124 = CARTESIAN_POINT ( 'NONE',  ( 35.00000000000000000, 0.000000000000000000, 78.50000000000000000 ) ) ;
#125 = CARTESIAN_POINT ( 'NONE',  ( 35.00000000000000000, -23.00000000000000000, 78.50000000000000000 ) ) ;
#126 = EDGE_LOOP ( 'NONE', ( #733, #147, #377, #876, #596, #852, #680, #224, #842, #408 ) ) ;
#127 = ORIENTED_EDGE ( 'NONE', *, *, #693, .T. ) ;
#128 = VECTOR ( 'NONE', #584, 1000.000000000000000 ) ;
#129 = DIRECTION ( 'NONE',  ( 0.000000000000000000, 1.000000000000000000, 0.000000000000000000 ) ) ;
#130 = CARTESIAN_POINT ( 'NONE',  ( -6.782329983125269912, -28.00000000000000000, 56.00000000000000000 ) ) ;
#131 = LINE ( 'NONE', #622, #295 ) ;
#132 = ORIENTED_EDGE ( 'NONE', *, *, #809, .F. ) ;
#133 = CARTESIAN_POINT ( 'NONE',  ( -20.50000000000000000, 26.00000000000000000, 56.00000000000000000 ) ) ;
#134 = EDGE_CURVE ( 'NONE', #751, #767, #580, .T. ) ;
#135 = CARTESIAN_POINT ( 'NONE',  ( -35.00000000000000000, 11.50000000000000000, 78.50000000000000000 ) ) ;
#136 = CARTESIAN_POINT ( 'NONE',  ( -37.00000000000000000, 2.500000000000000000, 78.50000000000000000 ) ) ;
#137 = CARTESIAN_POINT ( 'NONE',  ( -35.00000000000000000, 0.000000000000000000, 52.00000000000000000 ) ) ;
#138 = EDGE_CURVE ( 'NONE', #496, #1068, #570, .T. ) ;
#139 = ORIENTED_EDGE ( 'NONE', *, *, #665, .F. ) ;
#140 = ORIENTED_EDGE ( 'NONE', *, *, #528, .F. ) ;
#141 = DIRECTION ( 'NONE',  ( 1.000000000000000000, 0.000000000000000000, 0.000000000000000000 ) ) ;
#142 = LINE ( 'NONE', #897, #17 ) ;
#143 = ADVANCED_FACE ( 'NONE', ( #552 ), #44, .F. ) ;
#144 = CARTESIAN_POINT ( 'NONE',  ( -35.00000000000000000, 2.500000000000000000, 78.50000000000000000 ) ) ;
#145 = ORIENTED_EDGE ( 'NONE', *, *, #531, .F. ) ;
#146 = AXIS2_PLACEMENT_3D ( 'NONE', #512, #354, #944 ) ;
#147 = ORIENTED_EDGE ( 'NONE', *, *, #932, .T. ) ;
#148 = DIRECTION ( 'NONE',  ( 1.000000000000000000, 0.000000000000000000, 0.000000000000000000 ) ) ;
#149 = DIRECTION ( 'NONE',  ( 1.000000000000000000, 0.000000000000000000, 0.000000000000000000 ) ) ;
#150 = DIRECTION ( 'NONE',  ( 0.000000000000000000, 1.000000000000000000, 0.000000000000000000 ) ) ;
#151 = FACE_OUTER_BOUND ( 'NONE', #390, .T. ) ;
#152 = ADVANCED_FACE ( 'NONE', ( #730 ), #470, .T. ) ;
#153 = VERTEX_POINT ( 'NONE', #484 ) ;
#154 = ORIENTED_EDGE ( 'NONE', *, *, #54, .F. ) ;
#155 = CARTESIAN_POINT ( 'NONE',  ( -38.00000000000000000, 0.000000000000000000, 48.00000000000000000 ) ) ;
#156 = AXIS2_PLACEMENT_3D ( 'NONE', #1015, #342, #1086 ) ;
#157 = DIRECTION ( 'NONE',  ( 1.000000000000000000, 0.000000000000000000, 0.000000000000000000 ) ) ;
#158 = EDGE_CURVE ( 'NONE', #887, #395, #642, .T. ) ;
#159 = CARTESIAN_POINT ( 'NONE',  ( 6.782329983125269912, 26.00000000000000000, 56.00000000000000000 ) ) ;
#160 = ORIENTED_EDGE ( 'NONE', *, *, #679, .F. ) ;
#161 = ORIENTED_EDGE ( 'NONE', *, *, #337, .F. ) ;
#162 = CARTESIAN_POINT ( 'NONE',  ( 2.000000000000000000, 11.50000000000000000, 78.50000000000000000 ) ) ;
#163 = DIRECTION ( 'NONE',  ( 0.000000000000000000, 0.000000000000000000, 1.000000000000000000 ) ) ;
#164 = PLANE ( 'NONE',  #889 ) ;
#165 = ORIENTED_EDGE ( 'NONE', *, *, #426, .F. ) ;
#166 = VERTEX_POINT ( 'NONE', #391 ) ;
#167 = DIRECTION ( 'NONE',  ( 1.000000000000000000, 0.000000000000000000, 0.000000000000000000 ) ) ;
#168 = VECTOR ( 'NONE', #912, 1000.000000000000000 ) ;
#169 = CARTESIAN_POINT ( 'NONE',  ( 38.50000000000000000, 11.50000000000000000, 48.00000000000000000 ) ) ;
#170 = VERTEX_POINT ( 'NONE', #902 ) ;
#171 = ORIENTED_EDGE ( 'NONE', *, *, #893, .F. ) ;
#172 = DIRECTION ( 'NONE',  ( 0.000000000000000000, 1.000000000000000000, 0.000000000000000000 ) ) ;
#173 = EDGE_CURVE ( 'NONE', #381, #579, #394, .T. ) ;
#174 = EDGE_CURVE ( 'NONE', #661, #341, #476, .T. ) ;
#175 = PERSON_AND_ORGANIZATION ( #486, #431 ) ;
#176 = EDGE_CURVE ( 'NONE', #1012, #629, #822, .T. ) ;
#177 = CARTESIAN_POINT ( 'NONE',  ( 0.000000000000000000, 20.00000000000000000, 77.00000000000000000 ) ) ;
#178 = EDGE_LOOP ( 'NONE', ( #482, #400, #95, #647, #551, #199, #140, #1034, #901, #3 ) ) ;
#179 = FACE_OUTER_BOUND ( 'NONE', #364, .T. ) ;
#180 = VECTOR ( 'NONE', #626, 1000.000000000000000 ) ;
#181 = APPROVAL_ROLE ( '' ) ;
#182 = DIRECTION ( 'NONE',  ( 1.000000000000000000, 0.000000000000000000, 0.000000000000000000 ) ) ;
#183 = VECTOR ( 'NONE', #644, 1000.000000000000000 ) ;
#184 = AXIS2_PLACEMENT_3D ( 'NONE', #604, #607, #439 ) ;
#185 = SECURITY_CLASSIFICATION_LEVEL ( 'unclassified' ) ;
#186 = DIRECTION ( 'NONE',  ( -1.000000000000000000, 0.000000000000000000, 0.000000000000000000 ) ) ;
#187 = CARTESIAN_POINT ( 'NONE',  ( 35.00000000000000000, 2.500000000000000000, 52.00000000000000000 ) ) ;
#188 = APPROVAL_DATE_TIME ( #850, #525 ) ;
#189 = APPROVAL_DATE_TIME ( #784, #52 ) ;
#190 = CARTESIAN_POINT ( 'NONE',  ( -38.50000000000000000, 2.500000000000000000, 82.00000000000000000 ) ) ;
#191 = ORIENTED_EDGE ( 'NONE', *, *, #306, .T. ) ;
#192 = EDGE_LOOP ( 'NONE', ( #96, #132, #58, #327 ) ) ;
#193 = EDGE_CURVE ( 'NONE', #829, #210, #357, .T. ) ;
#195 = EDGE_CURVE ( 'NONE', #703, #395, #866, .T. ) ;
#194 = EDGE_CURVE ( 'NONE', #588, #1012, #432, .T. ) ;
#196 = DIRECTION ( 'NONE',  ( 0.000000000000000000, 0.000000000000000000, 1.000000000000000000 ) ) ;
#197 = DIRECTION ( 'NONE',  ( -0.000000000000000000, 1.000000000000000000, 0.000000000000000000 ) ) ;
#198 = VERTEX_POINT ( 'NONE', #947 ) ;
#199 = ORIENTED_EDGE ( 'NONE', *, *, #532, .F. ) ;
#200 = VECTOR ( 'NONE', #857, 1000.000000000000000 ) ;
#201 = LINE ( 'NONE', #445, #1080 ) ;
#202 = EDGE_LOOP ( 'NONE', ( #161, #139, #86, #966 ) ) ;
#203 = DIRECTION ( 'NONE',  ( 1.000000000000000000, 0.000000000000000000, 0.000000000000000000 ) ) ;
#204 = LINE ( 'NONE', #209, #826 ) ;
#205 = ORIENTED_EDGE ( 'NONE', *, *, #108, .F. ) ;
#206 = AXIS2_PLACEMENT_3D ( 'NONE', #758, #73, #506 ) ;
#207 = CARTESIAN_POINT ( 'NONE',  ( 0.000000000000000000, 23.00000000000000000, 56.00000000000000000 ) ) ;
#208 = DIRECTION ( 'NONE',  ( -1.000000000000000000, 0.000000000000000000, 0.000000000000000000 ) ) ;
#209 = CARTESIAN_POINT ( 'NONE',  ( 0.5000000000000000000, 11.50000000000000000, 82.00000000000000000 ) ) ;
#210 = VERTEX_POINT ( 'NONE', #187 ) ;
#211 = ORIENTED_EDGE ( 'NONE', *, *, #874, .T. ) ;
#212 = VECTOR ( 'NONE', #811, 1000.000000000000000 ) ;
#213 = AXIS2_PLACEMENT_3D ( 'NONE', #1042, #453, #1050 ) ;
#214 = DIRECTION ( 'NONE',  ( 0.000000000000000000, -1.000000000000000000, 0.000000000000000000 ) ) ;
#215 = DIRECTION ( 'NONE',  ( -0.000000000000000000, 1.000000000000000000, 0.000000000000000000 ) ) ;
#216 = CARTESIAN_POINT ( 'NONE',  ( -38.00000000000000000, 11.50000000000000000, 48.00000000000000000 ) ) ;
#217 = ORIENTED_EDGE ( 'NONE', *, *, #193, .T. ) ;
#218 = VECTOR ( 'NONE', #828, 1000.000000000000000 ) ;
#219 = CARTESIAN_POINT ( 'NONE',  ( -37.00000000000000000, 2.500000000000000000, 78.50000000000000000 ) ) ;
#220 = EDGE_CURVE ( 'NONE', #166, #247, #362, .T. ) ;
#221 = CARTESIAN_POINT ( 'NONE',  ( -3.500000000000000000, -28.00000000000000000, 78.50000000000000000 ) ) ;
#222 = LINE ( 'NONE', #316, #180 ) ;
#223 = DIRECTION ( 'NONE',  ( 0.000000000000000000, 0.000000000000000000, 1.000000000000000000 ) ) ;
#224 = ORIENTED_EDGE ( 'NONE', *, *, #861, .T. ) ;
#226 = EDGE_CURVE ( 'NONE', #662, #887, #518, .T. ) ;
#225 = EDGE_CURVE ( 'NONE', #1012, #661, #105, .T. ) ;
#227 = ORIENTED_EDGE ( 'NONE', *, *, #272, .T. ) ;
#228 = LINE ( 'NONE', #329, #675 ) ;
#229 = DIRECTION ( 'NONE',  ( 0.000000000000000000, -1.000000000000000000, 0.000000000000000000 ) ) ;
#230 = CARTESIAN_POINT ( 'NONE',  ( -6.782329983125259254, -28.00000000000000000, 77.00000000000000000 ) ) ;
#231 = EDGE_LOOP ( 'NONE', ( #756, #475, #1084, #571 ) ) ;
#232 = ORIENTED_EDGE ( 'NONE', *, *, #528, .T. ) ;
#233 = PLANE ( 'NONE',  #433 ) ;
#234 = DIRECTION ( 'NONE',  ( 0.000000000000000000, 1.000000000000000000, 0.000000000000000000 ) ) ;
#235 = AXIS2_PLACEMENT_3D ( 'NONE', #692, #196, #40 ) ;
#236 = SECURITY_CLASSIFICATION ( '', '', #185 ) ;
#237 = LINE ( 'NONE', #970, #883 ) ;
#238 = ORIENTED_EDGE ( 'NONE', *, *, #610, .F. ) ;
#239 = AXIS2_PLACEMENT_3D ( 'NONE', #382, #321, #1056 ) ;
#240 = DIRECTION ( 'NONE',  ( 0.000000000000000000, 1.000000000000000000, 0.000000000000000000 ) ) ;
#241 = ORIENTED_EDGE ( 'NONE', *, *, #1036, .F. ) ;
#242 = CARTESIAN_POINT ( 'NONE',  ( 0.000000000000000000, 2.500000000000000000, 66.50000000000000000 ) ) ;
#243 = LINE ( 'NONE', #664, #683 ) ;
#244 = ADVANCED_FACE ( 'NONE', ( #1025, #696 ), #686, .T. ) ;
#245 = LINE ( 'NONE', #576, #1087 ) ;
#246 = ORIENTED_EDGE ( 'NONE', *, *, #226, .T. ) ;
#247 = VERTEX_POINT ( 'NONE', #13 ) ;
#248 = CARTESIAN_POINT ( 'NONE',  ( 0.000000000000000000, 23.00000000000000000, 56.00000000000000000 ) ) ;
#249 = PLANE ( 'NONE',  #877 ) ;
#250 = CARTESIAN_POINT ( 'NONE',  ( 38.00000000000000000, 0.000000000000000000, 48.00000000000000000 ) ) ;
#251 = ORIENTED_EDGE ( 'NONE', *, *, #107, .T. ) ;
#252 = ORIENTED_EDGE ( 'NONE', *, *, #809, .T. ) ;
#253 = DIRECTION ( 'NONE',  ( 0.000000000000000000, 0.000000000000000000, -1.000000000000000000 ) ) ;
#254 = DIRECTION ( 'NONE',  ( 0.000000000000000000, 0.000000000000000000, 1.000000000000000000 ) ) ;
#255 = AXIS2_PLACEMENT_3D ( 'NONE', #648, #657, #982 ) ;
#256 = APPROVAL ( #1043, 'æœª' ) ;
#257 = EDGE_CURVE ( 'NONE', #111, #444, #519, .T. ) ;
#258 = ORIENTED_EDGE ( 'NONE', *, *, #92, .T. ) ;
#259 = ORIENTED_EDGE ( 'NONE', *, *, #384, .F. ) ;
#260 = CARTESIAN_POINT ( 'NONE',  ( 35.00000000000000000, -23.00000000000000000, 52.00000000000000000 ) ) ;
#261 = ADVANCED_FACE ( 'NONE', ( #9 ), #266, .F. ) ;
#262 = FACE_OUTER_BOUND ( 'NONE', #711, .T. ) ;
#263 = ORIENTED_EDGE ( 'NONE', *, *, #345, .T. ) ;
#264 = ORIENTED_EDGE ( 'NONE', *, *, #306, .F. ) ;
#265 = VECTOR ( 'NONE', #4, 1000.000000000000000 ) ;
#266 = PLANE ( 'NONE',  #796 ) ;
#267 = ORIENTED_EDGE ( 'NONE', *, *, #972, .T. ) ;
#268 = VECTOR ( 'NONE', #650, 1000.000000000000000 ) ;
#269 = DIRECTION ( 'NONE',  ( 0.000000000000000000, 0.000000000000000000, -1.000000000000000000 ) ) ;
#270 = AXIS2_PLACEMENT_3D ( 'NONE', #392, #724, #45 ) ;
#271 = EDGE_CURVE ( 'NONE', #751, #170, #443, .T. ) ;
#272 = EDGE_CURVE ( 'NONE', #363, #673, #350, .T. ) ;
#273 = AXIS2_PLACEMENT_3D ( 'NONE', #423, #949, #783 ) ;
#274 = DIRECTION ( 'NONE',  ( 1.000000000000000000, 0.000000000000000000, 0.000000000000000000 ) ) ;
#275 = LINE ( 'NONE', #860, #83 ) ;
#276 = ORIENTED_EDGE ( 'NONE', *, *, #762, .T. ) ;
#277 = CARTESIAN_POINT ( 'NONE',  ( 3.500000000000000000, -28.00000000000000000, 78.50000000000000000 ) ) ;
#278 = CARTESIAN_POINT ( 'NONE',  ( -35.00000000000000000, 0.000000000000000000, 78.50000000000000000 ) ) ;
#279 = CARTESIAN_POINT ( 'NONE',  ( 35.00000000000000000, 0.000000000000000000, 52.00000000000000000 ) ) ;
#280 = ORIENTED_EDGE ( 'NONE', *, *, #1036, .T. ) ;
#281 = LINE ( 'NONE', #536, #457 ) ;
#282 = COORDINATED_UNIVERSAL_TIME_OFFSET ( 8, 0, .AHEAD. ) ;
#283 = ORIENTED_EDGE ( 'NONE', *, *, #774, .T. ) ;
#284 = CC_DESIGN_DATE_AND_TIME_ASSIGNMENT ( #114, #451, ( #987 ) ) ;
#285 = EDGE_CURVE ( 'NONE', #294, #588, #275, .T. ) ;
#286 = VECTOR ( 'NONE', #101, 1000.000000000000000 ) ;
#287 = LINE ( 'NONE', #1031, #412 ) ;
#288 = ADVANCED_BREP_SHAPE_REPRESENTATION ( '\X2\4e3b6846\X0\', ( #91, #184 ), #743 ) ;
#289 = FACE_OUTER_BOUND ( 'NONE', #326, .T. ) ;
#290 = ORIENTED_EDGE ( 'NONE', *, *, #386, .T. ) ;
#291 = DIRECTION ( 'NONE',  ( 1.000000000000000000, 0.000000000000000000, 0.000000000000000000 ) ) ;
#292 = CARTESIAN_POINT ( 'NONE',  ( -35.00000000000000000, 2.500000000000000000, 52.00000000000000000 ) ) ;
#293 = DIRECTION ( 'NONE',  ( 1.000000000000000000, 0.000000000000000000, 0.000000000000000000 ) ) ;
#294 = VERTEX_POINT ( 'NONE', #608 ) ;
#295 = VECTOR ( 'NONE', #53, 1000.000000000000000 ) ;
#296 = CYLINDRICAL_SURFACE ( 'NONE', #701, 12.50000000000000000 ) ;
#297 = LINE ( 'NONE', #136, #33 ) ;
#298 = DIRECTION ( 'NONE',  ( 1.000000000000000000, 0.000000000000000000, 0.000000000000000000 ) ) ;
#299 = ORIENTED_EDGE ( 'NONE', *, *, #893, .T. ) ;
#300 = CARTESIAN_POINT ( 'NONE',  ( 38.00000000000000000, -26.00000000000000000, 48.00000000000000000 ) ) ;
#301 = LINE ( 'NONE', #553, #320 ) ;
#302 = CARTESIAN_POINT ( 'NONE',  ( 0.000000000000000000, -28.00000000000000000, 66.50000000000000000 ) ) ;
#303 = CARTESIAN_POINT ( 'NONE',  ( -3.500000000000000000, 23.00000000000000000, 78.50000000000000000 ) ) ;
#304 = ORIENTED_EDGE ( 'NONE', *, *, #257, .F. ) ;
#306 = EDGE_CURVE ( 'NONE', #992, #166, #782, .T. ) ;
#305 = EDGE_CURVE ( 'NONE', #763, #703, #682, .T. ) ;
#307 = VECTOR ( 'NONE', #240, 1000.000000000000000 ) ;
#308 = ORIENTED_EDGE ( 'NONE', *, *, #305, .T. ) ;
#309 = LINE ( 'NONE', #248, #347 ) ;
#310 = CARTESIAN_POINT ( 'NONE',  ( 12.50000000000000000, -28.00000000000000000, 66.50000000000000000 ) ) ;
#311 = PLANE ( 'NONE',  #1079 ) ;
#312 = ORIENTED_EDGE ( 'NONE', *, *, #138, .F. ) ;
#313 = EDGE_LOOP ( 'NONE', ( #780, #211, #312, #160, #258, #422, #448, #1089 ) ) ;
#314 = DIRECTION ( 'NONE',  ( 0.000000000000000000, 1.000000000000000000, 0.000000000000000000 ) ) ;
#315 = CARTESIAN_POINT ( 'NONE',  ( -35.00000000000000000, 23.00000000000000000, 52.00000000000000000 ) ) ;
#316 = CARTESIAN_POINT ( 'NONE',  ( -20.50000000000000000, 26.00000000000000000, 60.50000000000000000 ) ) ;
#317 = VERTEX_POINT ( 'NONE', #69 ) ;
#318 = DIRECTION ( 'NONE',  ( 0.000000000000000000, 0.000000000000000000, 1.000000000000000000 ) ) ;
#319 = EDGE_LOOP ( 'NONE', ( #290, #799, #936, #127 ) ) ;
#320 = VECTOR ( 'NONE', #214, 1000.000000000000000 ) ;
#321 = DIRECTION ( 'NONE',  ( 0.000000000000000000, 0.000000000000000000, 1.000000000000000000 ) ) ;
#322 = VECTOR ( 'NONE', #442, 1000.000000000000000 ) ;
#323 = AXIS2_PLACEMENT_3D ( 'NONE', #376, #706, #293 ) ;
#324 = CARTESIAN_POINT ( 'NONE',  ( -6.782329983125269912, 26.00000000000000000, 56.00000000000000000 ) ) ;
#325 = DIRECTION ( 'NONE',  ( 0.000000000000000000, 1.000000000000000000, 0.000000000000000000 ) ) ;
#326 = EDGE_LOOP ( 'NONE', ( #491, #564, #280, #1017 ) ) ;
#327 = ORIENTED_EDGE ( 'NONE', *, *, #665, .T. ) ;
#328 = VECTOR ( 'NONE', #735, 1000.000000000000000 ) ;
#329 = CARTESIAN_POINT ( 'NONE',  ( -35.00000000000000000, -23.00000000000000000, 52.00000000000000000 ) ) ;
#330 = LINE ( 'NONE', #593, #734 ) ;
#331 = DIRECTION ( 'NONE',  ( -1.000000000000000000, 0.000000000000000000, 0.000000000000000000 ) ) ;
#332 = VERTEX_POINT ( 'NONE', #76 ) ;
#333 = ORIENTED_EDGE ( 'NONE', *, *, #138, .T. ) ;
#334 = DIRECTION ( 'NONE',  ( 1.000000000000000000, 0.000000000000000000, 0.000000000000000000 ) ) ;
#335 = CARTESIAN_POINT ( 'NONE',  ( 38.00000000000000000, -26.00000000000000000, 82.00000000000000000 ) ) ;
#336 = CC_DESIGN_PERSON_AND_ORGANIZATION_ASSIGNMENT ( #603, #594, ( #993 ) ) ;
#337 = EDGE_CURVE ( 'NONE', #587, #78, #572, .T. ) ;
#338 = DIRECTION ( 'NONE',  ( 0.000000000000000000, 0.000000000000000000, 1.000000000000000000 ) ) ;
#339 = EDGE_CURVE ( 'NONE', #907, #662, #749, .T. ) ;
#340 = ORIENTED_EDGE ( 'NONE', *, *, #158, .T. ) ;
#341 = VERTEX_POINT ( 'NONE', #677 ) ;
#342 = DIRECTION ( 'NONE',  ( 0.000000000000000000, -1.000000000000000000, 0.000000000000000000 ) ) ;
#343 = CALENDAR_DATE ( 2026, 20, 9 ) ;
#344 = PLANE ( 'NONE',  #360 ) ;
#346 = ADVANCED_FACE ( 'NONE', ( #262 ), #344, .T. ) ;
#345 = EDGE_CURVE ( 'NONE', #1055, #579, #428, .T. ) ;
#347 = VECTOR ( 'NONE', #1085, 1000.000000000000000 ) ;
#348 = ORIENTED_EDGE ( 'NONE', *, *, #220, .F. ) ;
#349 = ORIENTED_EDGE ( 'NONE', *, *, #532, .T. ) ;
#350 = LINE ( 'NONE', #689, #463 ) ;
#351 = VERTEX_POINT ( 'NONE', #401 ) ;
#352 = AXIS2_PLACEMENT_3D ( 'NONE', #971, #223, #793 ) ;
#353 = PERSON_AND_ORGANIZATION_ROLE ( 'creator' ) ;
#354 = DIRECTION ( 'NONE',  ( -0.000000000000000000, 1.000000000000000000, 0.000000000000000000 ) ) ;
#355 = ADVANCED_FACE ( 'NONE', ( #595 ), #164, .T. ) ;
#356 = VECTOR ( 'NONE', #562, 1000.000000000000000 ) ;
#357 = LINE ( 'NONE', #279, #200 ) ;
#358 = ORIENTED_EDGE ( 'NONE', *, *, #858, .T. ) ;
#359 = PLANE ( 'NONE',  #235 ) ;
#360 = AXIS2_PLACEMENT_3D ( 'NONE', #1003, #660, #761 ) ;
#361 = FACE_OUTER_BOUND ( 'NONE', #178, .T. ) ;
#362 = LINE ( 'NONE', #605, #906 ) ;
#363 = VERTEX_POINT ( 'NONE', #159 ) ;
#364 = EDGE_LOOP ( 'NONE', ( #112, #999, #276, #837, #681, #1083, #867, #591, #11, #389, #841, #905 ) ) ;
#365 = DIRECTION ( 'NONE',  ( -1.000000000000000000, 0.000000000000000000, 0.000000000000000000 ) ) ;
#366 = ORIENTED_EDGE ( 'NONE', *, *, #384, .T. ) ;
#367 = PRODUCT_RELATED_PRODUCT_CATEGORY ( 'detail', '', ( #719 ) ) ;
#368 = ADVANCED_FACE ( 'NONE', ( #407 ), #833, .F. ) ;
#369 = EDGE_CURVE ( 'NONE', #763, #729, #500, .T. ) ;
#370 = DIRECTION ( 'NONE',  ( 0.000000000000000000, -1.000000000000000000, 0.000000000000000000 ) ) ;
#371 = ORIENTED_EDGE ( 'NONE', *, *, #1066, .T. ) ;
#372 = AXIS2_PLACEMENT_3D ( 'NONE', #777, #617, #1046 ) ;
#373 = APPROVAL_PERSON_ORGANIZATION ( #511, #525, #427 ) ;
#374 = DESIGN_CONTEXT ( 'detailed design', #806, 'design' ) ;
#375 = LINE ( 'NONE', #277, #75 ) ;
#376 = CARTESIAN_POINT ( 'NONE',  ( 0.000000000000000000, 20.00000000000000000, 56.00000000000000000 ) ) ;
#377 = ORIENTED_EDGE ( 'NONE', *, *, #804, .F. ) ;
#378 = CARTESIAN_POINT ( 'NONE',  ( 6.782329983125269912, -28.00000000000000000, 56.00000000000000000 ) ) ;
#379 = DIRECTION ( 'NONE',  ( 1.000000000000000000, 0.000000000000000000, 0.000000000000000000 ) ) ;
#380 = DIRECTION ( 'NONE',  ( 0.000000000000000000, -1.000000000000000000, 0.000000000000000000 ) ) ;
#381 = VERTEX_POINT ( 'NONE', #414 ) ;
#382 = CARTESIAN_POINT ( 'NONE',  ( 0.000000000000000000, 20.00000000000000000, 56.00000000000000000 ) ) ;
#383 = CARTESIAN_POINT ( 'NONE',  ( -38.00000000000000000, -26.00000000000000000, 82.00000000000000000 ) ) ;
#384 = EDGE_CURVE ( 'NONE', #71, #907, #998, .T. ) ;
#386 = EDGE_CURVE ( 'NONE', #736, #751, #245, .T. ) ;
#385 = EDGE_CURVE ( 'NONE', #78, #609, #590, .T. ) ;
#387 = CARTESIAN_POINT ( 'NONE',  ( 35.00000000000000000, -23.00000000000000000, 52.00000000000000000 ) ) ;
#388 = LINE ( 'NONE', #628, #67 ) ;
#389 = ORIENTED_EDGE ( 'NONE', *, *, #174, .F. ) ;
#390 = EDGE_LOOP ( 'NONE', ( #252, #697, #646, #781 ) ) ;
#391 = CARTESIAN_POINT ( 'NONE',  ( 6.782329983125259254, 23.00000000000000000, 77.00000000000000000 ) ) ;
#392 = CARTESIAN_POINT ( 'NONE',  ( -38.00000000000000000, 0.000000000000000000, 48.00000000000000000 ) ) ;
#393 = LINE ( 'NONE', #569, #212 ) ;
#394 = CIRCLE ( 'NONE', #255, 12.50000000000000000 ) ;
#395 = VERTEX_POINT ( 'NONE', #917 ) ;
#396 = ORIENTED_EDGE ( 'NONE', *, *, #543, .T. ) ;
#397 = DIRECTION ( 'NONE',  ( 0.000000000000000000, 0.000000000000000000, 1.000000000000000000 ) ) ;
#398 = DIRECTION ( 'NONE',  ( 1.000000000000000000, 0.000000000000000000, 0.000000000000000000 ) ) ;
#399 = CARTESIAN_POINT ( 'NONE',  ( 38.00000000000000000, 26.00000000000000000, 82.00000000000000000 ) ) ;
#400 = ORIENTED_EDGE ( 'NONE', *, *, #1040, .T. ) ;
#401 = CARTESIAN_POINT ( 'NONE',  ( 6.782329983125269912, 23.00000000000000000, 56.00000000000000000 ) ) ;
#402 = AXIS2_PLACEMENT_3D ( 'NONE', #37, #960, #298 ) ;
#403 = VERTEX_POINT ( 'NONE', #994 ) ;
#404 = CARTESIAN_POINT ( 'NONE',  ( -35.00000000000000000, 0.000000000000000000, 78.50000000000000000 ) ) ;
#405 = CARTESIAN_POINT ( 'NONE',  ( 3.500000000000000000, 2.500000000000000000, 78.50000000000000000 ) ) ;
#406 = DIRECTION ( 'NONE',  ( 0.000000000000000000, 0.000000000000000000, 1.000000000000000000 ) ) ;
#407 = FACE_OUTER_BOUND ( 'NONE', #231, .T. ) ;
#408 = ORIENTED_EDGE ( 'NONE', *, *, #195, .F. ) ;
#409 = ORIENTED_EDGE ( 'NONE', *, *, #158, .F. ) ;
#410 = VECTOR ( 'NONE', #41, 1000.000000000000000 ) ;
#411 = CARTESIAN_POINT ( 'NONE',  ( 35.00000000000000000, 2.500000000000000000, 78.50000000000000000 ) ) ;
#412 = VECTOR ( 'NONE', #708, 1000.000000000000000 ) ;
#413 = CARTESIAN_POINT ( 'NONE',  ( -38.00000000000000000, 0.000000000000000000, 48.00000000000000000 ) ) ;
#414 = CARTESIAN_POINT ( 'NONE',  ( 12.50000000000000000, -23.00000000000000000, 66.50000000000000000 ) ) ;
#415 = ORIENTED_EDGE ( 'NONE', *, *, #480, .T. ) ;
#416 = VERTEX_POINT ( 'NONE', #671 ) ;
#417 = VECTOR ( 'NONE', #1095, 1000.000000000000000 ) ;
#418 = ORIENTED_EDGE ( 'NONE', *, *, #972, .F. ) ;
#419 = CARTESIAN_POINT ( 'NONE',  ( 20.50000000000000000, 12.50000000000000000, 56.00000000000000000 ) ) ;
#420 = EDGE_CURVE ( 'NONE', #64, #729, #488, .T. ) ;
#421 = CYLINDRICAL_SURFACE ( 'NONE', #273, 12.50000000000000000 ) ;
#422 = ORIENTED_EDGE ( 'NONE', *, *, #583, .F. ) ;
#423 = CARTESIAN_POINT ( 'NONE',  ( 0.000000000000000000, -28.00000000000000000, 66.50000000000000000 ) ) ;
#424 = LINE ( 'NONE', #510, #265 ) ;
#426 = EDGE_CURVE ( 'NONE', #699, #111, #494, .T. ) ;
#425 = EDGE_CURVE ( 'NONE', #403, #995, #1074, .T. ) ;
#427 = APPROVAL_ROLE ( '' ) ;
#428 = LINE ( 'NONE', #5, #218 ) ;
#429 = ORIENTED_EDGE ( 'NONE', *, *, #717, .F. ) ;
#430 = CARTESIAN_POINT ( 'NONE',  ( 35.00000000000000000, 0.000000000000000000, 78.50000000000000000 ) ) ;
#431 = ORGANIZATION ( 'æœª', 'æœª', '' ) ;
#432 = LINE ( 'NONE', #766, #814 ) ;
#433 = AXIS2_PLACEMENT_3D ( 'NONE', #723, #920, #634 ) ;
#434 = EDGE_LOOP ( 'NONE', ( #371, #651, #119, #217 ) ) ;
#435 = DATE_AND_TIME ( #98, #94 ) ;
#436 = DIRECTION ( 'NONE',  ( 1.000000000000000000, 0.000000000000000000, 0.000000000000000000 ) ) ;
#437 = EDGE_CURVE ( 'NONE', #1007, #992, #839, .T. ) ;
#438 = VECTOR ( 'NONE', #493, 1000.000000000000000 ) ;
#439 = DIRECTION ( 'NONE',  ( 1.000000000000000000, 0.000000000000000000, 0.000000000000000000 ) ) ;
#440 = CARTESIAN_POINT ( 'NONE',  ( -35.00000000000000000, 0.000000000000000000, 78.50000000000000000 ) ) ;
#441 = CIRCLE ( 'NONE', #1054, 12.50000000000000000 ) ;
#442 = DIRECTION ( 'NONE',  ( 0.000000000000000000, 1.000000000000000000, 0.000000000000000000 ) ) ;
#443 = LINE ( 'NONE', #440, #550 ) ;
#444 = VERTEX_POINT ( 'NONE', #755 ) ;
#445 = CARTESIAN_POINT ( 'NONE',  ( -0.5000000000000000000, 2.500000000000000000, 48.00000000000000000 ) ) ;
#446 = ADVANCED_FACE ( 'NONE', ( #151 ), #421, .F. ) ;
#447 = APPROVAL_ROLE ( '' ) ;
#448 = ORIENTED_EDGE ( 'NONE', *, *, #173, .F. ) ;
#449 = ADVANCED_FACE ( 'NONE', ( #882 ), #450, .F. ) ;
#450 = PLANE ( 'NONE',  #1030 ) ;
#451 = DATE_TIME_ROLE ( 'creation_date' ) ;
#452 = ORIENTED_EDGE ( 'NONE', *, *, #953, .F. ) ;
#453 = DIRECTION ( 'NONE',  ( 0.000000000000000000, -1.000000000000000000, 0.000000000000000000 ) ) ;
#454 = LINE ( 'NONE', #637, #916 ) ;
#455 = AXIS2_PLACEMENT_3D ( 'NONE', #487, #208, #406 ) ;
#456 = ORIENTED_EDGE ( 'NONE', *, *, #339, .F. ) ;
#457 = VECTOR ( 'NONE', #862, 1000.000000000000000 ) ;
#458 = APPROVAL_PERSON_ORGANIZATION ( #943, #52, #447 ) ;
#459 = ADVANCED_FACE ( 'NONE', ( #698, #18 ), #103, .T. ) ;
#460 = DIRECTION ( 'NONE',  ( 0.000000000000000000, -1.000000000000000000, 0.000000000000000000 ) ) ;
#461 = FACE_OUTER_BOUND ( 'NONE', #750, .T. ) ;
#462 = DIRECTION ( 'NONE',  ( 0.000000000000000000, -1.000000000000000000, 0.000000000000000000 ) ) ;
#463 = VECTOR ( 'NONE', #938, 1000.000000000000000 ) ;
#464 = ORIENTED_EDGE ( 'NONE', *, *, #271, .F. ) ;
#465 = ADVANCED_FACE ( 'NONE', ( #878 ), #359, .F. ) ;
#466 = DIRECTION ( 'NONE',  ( 0.000000000000000000, 1.000000000000000000, 0.000000000000000000 ) ) ;
#467 = FACE_OUTER_BOUND ( 'NONE', #202, .T. ) ;
#468 = PLANE ( 'NONE',  #962 ) ;
#469 = VERTEX_POINT ( 'NONE', #868 ) ;
#470 = PLANE ( 'NONE',  #239 ) ;
#471 = LINE ( 'NONE', #888, #653 ) ;
#472 = CARTESIAN_POINT ( 'NONE',  ( -3.500000000000000000, 2.500000000000000000, 78.50000000000000000 ) ) ;
#473 = CARTESIAN_POINT ( 'NONE',  ( 3.500000000000000000, 23.00000000000000000, 78.50000000000000000 ) ) ;
#474 = ORIENTED_EDGE ( 'NONE', *, *, #174, .T. ) ;
#475 = ORIENTED_EDGE ( 'NONE', *, *, #760, .F. ) ;
#476 = LINE ( 'NONE', #567, #721 ) ;
#477 = DIRECTION ( 'NONE',  ( 0.000000000000000000, 1.000000000000000000, 0.000000000000000000 ) ) ;
#478 = DIRECTION ( 'NONE',  ( 0.000000000000000000, -1.000000000000000000, 0.000000000000000000 ) ) ;
#479 = VECTOR ( 'NONE', #436, 1000.000000000000000 ) ;
#480 = EDGE_CURVE ( 'NONE', #1018, #587, #123, .T. ) ;
#481 = ADVANCED_FACE ( 'NONE', ( #533 ), #296, .F. ) ;
#482 = ORIENTED_EDGE ( 'NONE', *, *, #425, .F. ) ;
#483 = ORIENTED_EDGE ( 'NONE', *, *, #804, .T. ) ;
#484 = CARTESIAN_POINT ( 'NONE',  ( 20.50000000000000000, 26.00000000000000000, 77.00000000000000000 ) ) ;
#485 = CARTESIAN_POINT ( 'NONE',  ( 0.000000000000000000, -26.00000000000000000, 66.50000000000000000 ) ) ;
#486 = PERSON ( 'æœª', 'æœª', 'æœª', ('æœª'), ('æœª'), ('æœª') ) ;
#487 = CARTESIAN_POINT ( 'NONE',  ( -20.50000000000000000, 27.50000000000000000, 56.00000000000000000 ) ) ;
#488 = LINE ( 'NONE', #928, #638 ) ;
#489 = VECTOR ( 'NONE', #118, 1000.000000000000000 ) ;
#490 = ORIENTED_EDGE ( 'NONE', *, *, #337, .T. ) ;
#491 = ORIENTED_EDGE ( 'NONE', *, *, #194, .T. ) ;
#492 = DIRECTION ( 'NONE',  ( 0.000000000000000000, 1.000000000000000000, 0.000000000000000000 ) ) ;
#493 = DIRECTION ( 'NONE',  ( 0.000000000000000000, 1.000000000000000000, 0.000000000000000000 ) ) ;
#494 = LINE ( 'NONE', #922, #168 ) ;
#495 = ORIENTED_EDGE ( 'NONE', *, *, #504, .T. ) ;
#496 = VERTEX_POINT ( 'NONE', #705 ) ;
#497 = AXIS2_PLACEMENT_3D ( 'NONE', #808, #234, #983 ) ;
#498 = ORIENTED_EDGE ( 'NONE', *, *, #844, .T. ) ;
#499 = CARTESIAN_POINT ( 'NONE',  ( 0.000000000000000000, 26.00000000000000000, 56.00000000000000000 ) ) ;
#500 = LINE ( 'NONE', #820, #606 ) ;
#501 = ORIENTED_EDGE ( 'NONE', *, *, #720, .T. ) ;
#502 = AXIS2_PLACEMENT_3D ( 'NONE', #177, #338, #84 ) ;
#503 = ORIENTED_EDGE ( 'NONE', *, *, #955, .T. ) ;
#505 = EDGE_CURVE ( 'NONE', #351, #363, #540, .T. ) ;
#504 = EDGE_CURVE ( 'NONE', #395, #556, #201, .T. ) ;
#506 = DIRECTION ( 'NONE',  ( 1.000000000000000000, 0.000000000000000000, 0.000000000000000000 ) ) ;
#507 = CARTESIAN_POINT ( 'NONE',  ( 3.500000000000000000, -28.00000000000000000, 78.50000000000000000 ) ) ;
#508 = ORIENTED_EDGE ( 'NONE', *, *, #560, .T. ) ;
#509 = CARTESIAN_POINT ( 'NONE',  ( 35.00000000000000000, 0.000000000000000000, 52.00000000000000000 ) ) ;
#510 = CARTESIAN_POINT ( 'NONE',  ( 35.00000000000000000, 2.500000000000000000, 78.50000000000000000 ) ) ;
#511 = PERSON_AND_ORGANIZATION ( #486, #431 ) ;
#512 = CARTESIAN_POINT ( 'NONE',  ( 0.000000000000000000, 26.00000000000000000, 65.00000000000000000 ) ) ;
#513 = VERTEX_POINT ( 'NONE', #527 ) ;
#514 = ORIENTED_EDGE ( 'NONE', *, *, #1011, .F. ) ;
#515 = AXIS2_PLACEMENT_3D ( 'NONE', #624, #129, #149 ) ;
#516 = CC_DESIGN_APPROVAL ( #525, ( #236 ) ) ;
#517 = MECHANICAL_CONTEXT ( 'NONE', #1, 'mechanical' ) ;
#518 = LINE ( 'NONE', #20, #620 ) ;
#519 = LINE ( 'NONE', #779, #945 ) ;
#520 = CARTESIAN_POINT ( 'NONE',  ( 35.00000000000000000, 2.500000000000000000, 48.00000000000000000 ) ) ;
#521 = CALENDAR_DATE ( 2026, 20, 9 ) ;
#522 = CARTESIAN_POINT ( 'NONE',  ( 37.00000000000000000, 11.50000000000000000, 52.00000000000000000 ) ) ;
#523 = ORIENTED_EDGE ( 'NONE', *, *, #339, .T. ) ;
#524 = VECTOR ( 'NONE', #334, 1000.000000000000000 ) ;
#525 = APPROVAL ( #771, 'æœª' ) ;
#526 = ADVANCED_FACE ( 'NONE', ( #109 ), #968, .F. ) ;
#527 = CARTESIAN_POINT ( 'NONE',  ( 12.50000000000000000, -26.00000000000000000, 66.50000000000000000 ) ) ;
#528 = EDGE_CURVE ( 'NONE', #64, #1007, #872, .T. ) ;
#529 = ORIENTED_EDGE ( 'NONE', *, *, #272, .F. ) ;
#530 = VECTOR ( 'NONE', #559, 1000.000000000000000 ) ;
#532 = EDGE_CURVE ( 'NONE', #1007, #198, #991, .T. ) ;
#531 = EDGE_CURVE ( 'NONE', #673, #153, #786, .T. ) ;
#533 = FACE_OUTER_BOUND ( 'NONE', #313, .T. ) ;
#534 = CARTESIAN_POINT ( 'NONE',  ( 38.00000000000000000, 26.00000000000000000, 82.00000000000000000 ) ) ;
#535 = ORIENTED_EDGE ( 'NONE', *, *, #1094, .F. ) ;
#536 = CARTESIAN_POINT ( 'NONE',  ( 0.000000000000000000, 26.00000000000000000, 77.00000000000000000 ) ) ;
#537 = VECTOR ( 'NONE', #380, 1000.000000000000000 ) ;
#538 = CARTESIAN_POINT ( 'NONE',  ( -6.782329983125269912, 23.00000000000000000, 56.00000000000000000 ) ) ;
#539 = EDGE_LOOP ( 'NONE', ( #251, #847, #918, #752 ) ) ;
#540 = LINE ( 'NONE', #378, #322 ) ;
#541 = CARTESIAN_POINT ( 'NONE',  ( -35.00000000000000000, 0.000000000000000000, 52.00000000000000000 ) ) ;
#542 = LINE ( 'NONE', #879, #489 ) ;
#543 = EDGE_CURVE ( 'NONE', #726, #699, #287, .T. ) ;
#544 = AXIS2_PLACEMENT_3D ( 'NONE', #302, #978, #379 ) ;
#545 = ORIENTED_EDGE ( 'NONE', *, *, #942, .F. ) ;
#546 = VECTOR ( 'NONE', #649, 1000.000000000000000 ) ;
#547 = CARTESIAN_POINT ( 'NONE',  ( -6.782329983125259254, 23.00000000000000000, 77.00000000000000000 ) ) ;
#548 = CARTESIAN_POINT ( 'NONE',  ( 35.00000000000000711, 2.500000000000000000, 82.00000000000000000 ) ) ;
#549 = PLANE ( 'NONE',  #352 ) ;
#550 = VECTOR ( 'NONE', #1033, 1000.000000000000000 ) ;
#551 = ORIENTED_EDGE ( 'NONE', *, *, #107, .F. ) ;
#552 = FACE_OUTER_BOUND ( 'NONE', #32, .T. ) ;
#553 = CARTESIAN_POINT ( 'NONE',  ( -20.50000000000000000, 27.50000000000000000, 56.00000000000000000 ) ) ;
#554 = CARTESIAN_POINT ( 'NONE',  ( -35.00000000000000000, -23.00000000000000000, 52.00000000000000000 ) ) ;
#555 = PLANE ( 'NONE',  #323 ) ;
#556 = VERTEX_POINT ( 'NONE', #520 ) ;
#557 = ORIENTED_EDGE ( 'NONE', *, *, #425, .T. ) ;
#558 = CC_DESIGN_PERSON_AND_ORGANIZATION_ASSIGNMENT ( #12, #353, ( #993 ) ) ;
#559 = DIRECTION ( 'NONE',  ( -1.000000000000000000, 0.000000000000000000, 0.000000000000000000 ) ) ;
#560 = EDGE_CURVE ( 'NONE', #881, #363, #940, .T. ) ;
#561 = DIRECTION ( 'NONE',  ( 0.000000000000000000, -1.000000000000000000, 0.000000000000000000 ) ) ;
#562 = DIRECTION ( 'NONE',  ( 0.000000000000000000, 1.000000000000000000, 0.000000000000000000 ) ) ;
#563 = EDGE_CURVE ( 'NONE', #469, #332, #281, .T. ) ;
#564 = ORIENTED_EDGE ( 'NONE', *, *, #176, .T. ) ;
#565 = APPROVAL_PERSON_ORGANIZATION ( #31, #256, #181 ) ;
#566 = ORIENTED_EDGE ( 'NONE', *, *, #583, .T. ) ;
#567 = CARTESIAN_POINT ( 'NONE',  ( 35.00000000000000000, 0.000000000000000000, 52.00000000000000000 ) ) ;
#568 = CARTESIAN_POINT ( 'NONE',  ( -20.50000000000000000, 23.00000000000000000, 56.00000000000000000 ) ) ;
#569 = CARTESIAN_POINT ( 'NONE',  ( 35.00000000000000000, 0.000000000000000000, 78.50000000000000000 ) ) ;
#570 = CIRCLE ( 'NONE', #704, 12.50000000000000000 ) ;
#571 = ORIENTED_EDGE ( 'NONE', *, *, #827, .F. ) ;
#572 = LINE ( 'NONE', #1016, #977 ) ;
#573 = ORIENTED_EDGE ( 'NONE', *, *, #585, .F. ) ;
#574 = CARTESIAN_POINT ( 'NONE',  ( 35.00000000000000000, 23.00000000000000000, 52.00000000000000000 ) ) ;
#575 = CARTESIAN_POINT ( 'NONE',  ( 35.00000000000000000, 2.500000000000000000, 78.50000000000000000 ) ) ;
#576 = CARTESIAN_POINT ( 'NONE',  ( -35.00000000000000000, 2.500000000000000000, 49.00000000000000000 ) ) ;
#577 = VECTOR ( 'NONE', #253, 1000.000000000000000 ) ;
#578 = ORIENTED_EDGE ( 'NONE', *, *, #505, .F. ) ;
#579 = VERTEX_POINT ( 'NONE', #117 ) ;
#580 = LINE ( 'NONE', #219, #1044 ) ;
#581 = DIRECTION ( 'NONE',  ( -1.000000000000000000, 0.000000000000000000, 0.000000000000000000 ) ) ;
#582 = VECTOR ( 'NONE', #908, 1000.000000000000000 ) ;
#583 = EDGE_CURVE ( 'NONE', #579, #597, #375, .T. ) ;
#584 = DIRECTION ( 'NONE',  ( -1.000000000000000000, 0.000000000000000000, 0.000000000000000000 ) ) ;
#586 = EDGE_CURVE ( 'NONE', #341, #629, #50, .T. ) ;
#585 = EDGE_CURVE ( 'NONE', #609, #1039, #121, .T. ) ;
#587 = VERTEX_POINT ( 'NONE', #568 ) ;
#588 = VERTEX_POINT ( 'NONE', #135 ) ;
#589 = LINE ( 'NONE', #838, #116 ) ;
#590 = LINE ( 'NONE', #1082, #328 ) ;
#591 = ORIENTED_EDGE ( 'NONE', *, *, #717, .T. ) ;
#592 = FACE_OUTER_BOUND ( 'NONE', #434, .T. ) ;
#593 = CARTESIAN_POINT ( 'NONE',  ( 0.000000000000000000, 26.00000000000000000, 77.00000000000000000 ) ) ;
#594 = PERSON_AND_ORGANIZATION_ROLE ( 'design_supplier' ) ;
#595 = FACE_OUTER_BOUND ( 'NONE', #614, .T. ) ;
#596 = ORIENTED_EDGE ( 'NONE', *, *, #134, .F. ) ;
#597 = VERTEX_POINT ( 'NONE', #405 ) ;
#598 =( NAMED_UNIT ( * ) PLANE_ANGLE_UNIT ( ) SI_UNIT ( $, .RADIAN. ) );
#599 = CARTESIAN_POINT ( 'NONE',  ( -35.00000000000000000, 0.000000000000000000, 52.00000000000000000 ) ) ;
#600 = CIRCLE ( 'NONE', #497, 12.50000000000000000 ) ;
#601 = VECTOR ( 'NONE', #365, 1000.000000000000000 ) ;
#602 = VECTOR ( 'NONE', #274, 1000.000000000000000 ) ;
#603 = PERSON_AND_ORGANIZATION ( #486, #431 ) ;
#604 = CARTESIAN_POINT ( 'NONE',  ( 0.000000000000000000, 0.000000000000000000, 0.000000000000000000 ) ) ;
#605 = CARTESIAN_POINT ( 'NONE',  ( 0.000000000000000000, 23.00000000000000000, 77.00000000000000000 ) ) ;
#606 = VECTOR ( 'NONE', #1009, 1000.000000000000000 ) ;
#607 = DIRECTION ( 'NONE',  ( 0.000000000000000000, 0.000000000000000000, 1.000000000000000000 ) ) ;
#608 = CARTESIAN_POINT ( 'NONE',  ( -35.00000000000000000, 23.00000000000000000, 78.50000000000000000 ) ) ;
#609 = VERTEX_POINT ( 'NONE', #547 ) ;
#610 = EDGE_CURVE ( 'NONE', #513, #633, #34, .T. ) ;
#611 = DIRECTION ( 'NONE',  ( 0.000000000000000000, 1.000000000000000000, 0.000000000000000000 ) ) ;
#612 = DIRECTION ( 'NONE',  ( 0.000000000000000000, 0.000000000000000000, 1.000000000000000000 ) ) ;
#613 = ORIENTED_EDGE ( 'NONE', *, *, #616, .F. ) ;
#614 = EDGE_LOOP ( 'NONE', ( #495, #283, #557, #43, #165, #613, #418, #340 ) ) ;
#616 = EDGE_CURVE ( 'NONE', #71, #699, #1057, .T. ) ;
#615 = EDGE_CURVE ( 'NONE', #513, #381, #1063, .T. ) ;
#617 = DIRECTION ( 'NONE',  ( 0.000000000000000000, -1.000000000000000000, 0.000000000000000000 ) ) ;
#618 = LINE ( 'NONE', #534, #602 ) ;
#619 = ORIENTED_EDGE ( 'NONE', *, *, #543, .F. ) ;
#620 = VECTOR ( 'NONE', #769, 1000.000000000000000 ) ;
#621 = CARTESIAN_POINT ( 'NONE',  ( 0.000000000000000000, 26.00000000000000000, 66.50000000000000000 ) ) ;
#622 = CARTESIAN_POINT ( 'NONE',  ( 6.782329983125259254, -28.00000000000000000, 77.00000000000000000 ) ) ;
#623 = ORIENTED_EDGE ( 'NONE', *, *, #1035, .F. ) ;
#624 = CARTESIAN_POINT ( 'NONE',  ( 0.000000000000000000, 23.00000000000000000, 66.50000000000000000 ) ) ;
#625 = ADVANCED_FACE ( 'NONE', ( #731 ), #801, .T. ) ;
#626 = DIRECTION ( 'NONE',  ( 0.000000000000000000, 0.000000000000000000, -1.000000000000000000 ) ) ;
#627 = VECTOR ( 'NONE', #674, 1000.000000000000000 ) ;
#628 = CARTESIAN_POINT ( 'NONE',  ( -38.00000000000000000, 0.000000000000000000, 82.00000000000000000 ) ) ;
#629 = VERTEX_POINT ( 'NONE', #315 ) ;
#630 = DIRECTION ( 'NONE',  ( 0.000000000000000000, -1.000000000000000000, 0.000000000000000000 ) ) ;
#631 = LINE ( 'NONE', #124, #790 ) ;
#632 = LINE ( 'NONE', #798, #770 ) ;
#633 = VERTEX_POINT ( 'NONE', #989 ) ;
#634 = DIRECTION ( 'NONE',  ( 1.000000000000000000, 0.000000000000000000, 0.000000000000000000 ) ) ;
#635 = CARTESIAN_POINT ( 'NONE',  ( 20.50000000000000000, 26.00000000000000000, 56.00000000000000000 ) ) ;
#636 = FACE_OUTER_BOUND ( 'NONE', #958, .T. ) ;
#637 = CARTESIAN_POINT ( 'NONE',  ( 35.00000000000000000, 11.50000000000000000, 46.00000000000000000 ) ) ;
#638 = VECTOR ( 'NONE', #652, 1000.000000000000000 ) ;
#639 = ORIENTED_EDGE ( 'NONE', *, *, #1023, .F. ) ;
#640 = EDGE_CURVE ( 'NONE', #351, #1018, #600, .T. ) ;
#641 = ORIENTED_EDGE ( 'NONE', *, *, #810, .F. ) ;
#642 = LINE ( 'NONE', #49, #56 ) ;
#643 = ADVANCED_FACE ( 'NONE', ( #66 ), #909, .F. ) ;
#644 = DIRECTION ( 'NONE',  ( 0.000000000000000000, 1.000000000000000000, 0.000000000000000000 ) ) ;
#645 = CARTESIAN_POINT ( 'NONE',  ( 35.00000000000000711, 11.49999999999999822, 82.00000000000000000 ) ) ;
#646 = ORIENTED_EDGE ( 'NONE', *, *, #505, .T. ) ;
#647 = ORIENTED_EDGE ( 'NONE', *, *, #194, .F. ) ;
#648 = CARTESIAN_POINT ( 'NONE',  ( 0.000000000000000000, -23.00000000000000000, 66.50000000000000000 ) ) ;
#649 = DIRECTION ( 'NONE',  ( -1.000000000000000000, 0.000000000000000000, 0.000000000000000000 ) ) ;
#650 = DIRECTION ( 'NONE',  ( 0.000000000000000000, 0.000000000000000000, -1.000000000000000000 ) ) ;
#651 = ORIENTED_EDGE ( 'NONE', *, *, #693, .F. ) ;
#652 = DIRECTION ( 'NONE',  ( 2.040851148208007998E-16, -0.000000000000000000, 1.000000000000000000 ) ) ;
#653 = VECTOR ( 'NONE', #1077, 1000.000000000000000 ) ;
#654 = AXIS2_PLACEMENT_3D ( 'NONE', #485, #60, #398 ) ;
#655 = CC_DESIGN_APPROVAL ( #256, ( #993 ) ) ;
#656 = ORIENTED_EDGE ( 'NONE', *, *, #531, .T. ) ;
#657 = DIRECTION ( 'NONE',  ( 0.000000000000000000, -1.000000000000000000, 0.000000000000000000 ) ) ;
#658 = DIRECTION ( 'NONE',  ( -1.000000000000000000, 0.000000000000000000, 0.000000000000000000 ) ) ;
#659 = EDGE_CURVE ( 'NONE', #907, #726, #471, .T. ) ;
#660 = DIRECTION ( 'NONE',  ( 1.000000000000000000, 0.000000000000000000, 0.000000000000000000 ) ) ;
#661 = VERTEX_POINT ( 'NONE', #713 ) ;
#662 = VERTEX_POINT ( 'NONE', #383 ) ;
#663 = DIRECTION ( 'NONE',  ( 0.000000000000000000, 1.000000000000000000, 0.000000000000000000 ) ) ;
#664 = CARTESIAN_POINT ( 'NONE',  ( 35.00000000000000000, -23.00000000000000000, 78.50000000000000000 ) ) ;
#665 = EDGE_CURVE ( 'NONE', #62, #587, #301, .T. ) ;
#666 = CARTESIAN_POINT ( 'NONE',  ( 0.000000000000000000, 23.00000000000000000, 66.50000000000000000 ) ) ;
#667 = ORIENTED_EDGE ( 'NONE', *, *, #176, .F. ) ;
#668 = ORIENTED_EDGE ( 'NONE', *, *, #1035, .T. ) ;
#669 = LINE ( 'NONE', #843, #577 ) ;
#670 = DATE_TIME_ROLE ( 'classification_date' ) ;
#671 = CARTESIAN_POINT ( 'NONE',  ( 20.50000000000000000, 23.00000000000000000, 56.00000000000000000 ) ) ;
#672 = ORIENTED_EDGE ( 'NONE', *, *, #659, .T. ) ;
#673 = VERTEX_POINT ( 'NONE', #635 ) ;
#674 = DIRECTION ( 'NONE',  ( 0.000000000000000000, 0.000000000000000000, -1.000000000000000000 ) ) ;
#675 = VECTOR ( 'NONE', #148, 1000.000000000000000 ) ;
#676 = COORDINATED_UNIVERSAL_TIME_OFFSET ( 8, 0, .AHEAD. ) ;
#677 = CARTESIAN_POINT ( 'NONE',  ( 35.00000000000000000, 23.00000000000000000, 52.00000000000000000 ) ) ;
#678 = CC_DESIGN_DATE_AND_TIME_ASSIGNMENT ( #864, #670, ( #236 ) ) ;
#679 = EDGE_CURVE ( 'NONE', #767, #496, #976, .T. ) ;
#680 = ORIENTED_EDGE ( 'NONE', *, *, #1066, .F. ) ;
#681 = ORIENTED_EDGE ( 'NONE', *, *, #932, .F. ) ;
#682 = LINE ( 'NONE', #190, #417 ) ;
#683 = VECTOR ( 'NONE', #581, 1000.000000000000000 ) ;
#684 = ORIENTED_EDGE ( 'NONE', *, *, #679, .T. ) ;
#685 = CARTESIAN_POINT ( 'NONE',  ( 39.00000000000000000, 11.50000000000000000, 46.00000000000000000 ) ) ;
#686 = PLANE ( 'NONE',  #146 ) ;
#687 = AXIS2_PLACEMENT_3D ( 'NONE', #884, #215, #68 ) ;
#688 = AXIS2_PLACEMENT_3D ( 'NONE', #621, #460, #1037 ) ;
#689 = CARTESIAN_POINT ( 'NONE',  ( 0.000000000000000000, 26.00000000000000000, 56.00000000000000000 ) ) ;
#690 = EDGE_LOOP ( 'NONE', ( #913, #396, #985, #880 ) ) ;
#691 = AXIS2_PLACEMENT_3D ( 'NONE', #666, #325, #846 ) ;
#692 = CARTESIAN_POINT ( 'NONE',  ( -35.00000000000000000, 0.000000000000000000, 78.50000000000000000 ) ) ;
#694 = EDGE_CURVE ( 'NONE', #995, #317, #817, .T. ) ;
#693 = EDGE_CURVE ( 'NONE', #794, #736, #142, .T. ) ;
#695 = APPLICATION_PROTOCOL_DEFINITION ( 'international standard', 'config_control_design', 1994, #806 ) ;
#696 = FACE_OUTER_BOUND ( 'NONE', #690, .T. ) ;
#697 = ORIENTED_EDGE ( 'NONE', *, *, #640, .F. ) ;
#698 = FACE_BOUND ( 'NONE', #911, .T. ) ;
#699 = VERTEX_POINT ( 'NONE', #904 ) ;
#700 = CARTESIAN_POINT ( 'NONE',  ( 0.000000000000000000, 11.50000000000000000, 66.50000000000000000 ) ) ;
#701 = AXIS2_PLACEMENT_3D ( 'NONE', #25, #954, #963 ) ;
#702 = LOCAL_TIME ( 15, 24, 52.00000000000000000, #778 ) ;
#703 = VERTEX_POINT ( 'NONE', #709 ) ;
#704 = AXIS2_PLACEMENT_3D ( 'NONE', #59, #712, #1076 ) ;
#705 = CARTESIAN_POINT ( 'NONE',  ( -3.500000000000000000, -23.00000000000000000, 78.50000000000000000 ) ) ;
#706 = DIRECTION ( 'NONE',  ( 0.000000000000000000, 0.000000000000000000, 1.000000000000000000 ) ) ;
#707 = ORIENTED_EDGE ( 'NONE', *, *, #615, .T. ) ;
#708 = DIRECTION ( 'NONE',  ( 0.000000000000000000, 0.000000000000000000, -1.000000000000000000 ) ) ;
#709 = CARTESIAN_POINT ( 'NONE',  ( -38.00000000000000000, 2.500000000000000000, 82.00000000000000000 ) ) ;
#710 = CARTESIAN_POINT ( 'NONE',  ( -35.00000000000000000, 11.50000000000000000, 52.00000000000000000 ) ) ;
#711 = EDGE_LOOP ( 'NONE', ( #1090, #619, #929, #259 ) ) ;
#712 = DIRECTION ( 'NONE',  ( 0.000000000000000000, -1.000000000000000000, 0.000000000000000000 ) ) ;
#713 = CARTESIAN_POINT ( 'NONE',  ( 35.00000000000000000, 11.50000000000000000, 52.00000000000000000 ) ) ;
#714 = DIRECTION ( 'NONE',  ( 0.000000000000000000, -1.000000000000000000, 0.000000000000000000 ) ) ;
#715 = CC_DESIGN_PERSON_AND_ORGANIZATION_ASSIGNMENT ( #946, #110, ( #719 ) ) ;
#716 = DIRECTION ( 'NONE',  ( 1.000000000000000000, 0.000000000000000000, 0.000000000000000000 ) ) ;
#717 = EDGE_CURVE ( 'NONE', #64, #1022, #631, .T. ) ;
#718 = EDGE_LOOP ( 'NONE', ( #523, #246, #267, #366 ) ) ;
#719 = PRODUCT ( '\X2\4e3b6846\X0\', '\X2\4e3b6846\X0\', '', ( #517 ) ) ;
#720 = EDGE_CURVE ( 'NONE', #332, #62, #222, .T. ) ;
#721 = VECTOR ( 'NONE', #492, 1000.000000000000000 ) ;
#722 = ORIENTED_EDGE ( 'NONE', *, *, #759, .F. ) ;
#723 = CARTESIAN_POINT ( 'NONE',  ( -35.00000000000000000, 0.000000000000000000, 78.50000000000000000 ) ) ;
#724 = DIRECTION ( 'NONE',  ( -1.000000000000000000, 0.000000000000000000, 0.000000000000000000 ) ) ;
#725 = CARTESIAN_POINT ( 'NONE',  ( -20.50000000000000000, 27.50000000000000000, 77.00000000000000000 ) ) ;
#726 = VERTEX_POINT ( 'NONE', #399 ) ;
#728 = EDGE_CURVE ( 'NONE', #170, #794, #825, .T. ) ;
#727 = ADVANCED_FACE ( 'NONE', ( #467 ), #898, .F. ) ;
#729 = VERTEX_POINT ( 'NONE', #645 ) ;
#730 = FACE_OUTER_BOUND ( 'NONE', #192, .T. ) ;
#731 = FACE_OUTER_BOUND ( 'NONE', #785, .T. ) ;
#732 = LINE ( 'NONE', #387, #1026 ) ;
#733 = ORIENTED_EDGE ( 'NONE', *, *, #305, .F. ) ;
#734 = VECTOR ( 'NONE', #933, 1000.000000000000000 ) ;
#735 = DIRECTION ( 'NONE',  ( 1.000000000000000000, 0.000000000000000000, 0.000000000000000000 ) ) ;
#736 = VERTEX_POINT ( 'NONE', #292 ) ;
#737 = DIRECTION ( 'NONE',  ( 0.000000000000000000, 1.000000000000000000, 0.000000000000000000 ) ) ;
#738 = DIRECTION ( 'NONE',  ( 0.000000000000000000, 0.000000000000000000, -1.000000000000000000 ) ) ;
#739 = DIRECTION ( 'NONE',  ( -1.000000000000000000, 0.000000000000000000, 0.000000000000000000 ) ) ;
#740 = DIRECTION ( 'NONE',  ( 0.000000000000000000, 0.000000000000000000, -1.000000000000000000 ) ) ;
#741 = VECTOR ( 'NONE', #61, 1000.000000000000000 ) ;
#742 = VECTOR ( 'NONE', #466, 1000.000000000000000 ) ;
#743 =( GEOMETRIC_REPRESENTATION_CONTEXT ( 3 ) GLOBAL_UNCERTAINTY_ASSIGNED_CONTEXT ( ( #10 ) ) GLOBAL_UNIT_ASSIGNED_CONTEXT ( ( #772, #598, #1024 ) ) REPRESENTATION_CONTEXT ( 'NONE', 'WORKASPACE' ) );
#744 = ORIENTED_EDGE ( 'NONE', *, *, #195, .T. ) ;
#745 = EDGE_LOOP ( 'NONE', ( #981, #514, #304, #205 ) ) ;
#746 = ADVANCED_FACE ( 'NONE', ( #802 ), #311, .F. ) ;
#747 = DIRECTION ( 'NONE',  ( 1.000000000000000000, 0.000000000000000000, 0.000000000000000000 ) ) ;
#748 = CARTESIAN_POINT ( 'NONE',  ( -38.00000000000000000, -26.00000000000000000, 48.00000000000000000 ) ) ;
#749 = LINE ( 'NONE', #1088, #840 ) ;
#750 = EDGE_LOOP ( 'NONE', ( #788, #835, #668, #264, #1029, #349, #722, #573 ) ) ;
#751 = VERTEX_POINT ( 'NONE', #144 ) ;
#752 = ORIENTED_EDGE ( 'NONE', *, *, #759, .T. ) ;
#753 = DIRECTION ( 'NONE',  ( 0.000000000000000000, 0.000000000000000000, 1.000000000000000000 ) ) ;
#754 = COORDINATED_UNIVERSAL_TIME_OFFSET ( 8, 0, .AHEAD. ) ;
#755 = CARTESIAN_POINT ( 'NONE',  ( -38.00000000000000000, 26.00000000000000000, 82.00000000000000000 ) ) ;
#756 = ORIENTED_EDGE ( 'NONE', *, *, #385, .F. ) ;
#757 = CARTESIAN_POINT ( 'NONE',  ( 35.00000000000000000, 23.00000000000000000, 78.50000000000000000 ) ) ;
#758 = CARTESIAN_POINT ( 'NONE',  ( 0.000000000000000000, -28.00000000000000000, 66.50000000000000000 ) ) ;
#759 = EDGE_CURVE ( 'NONE', #1039, #198, #910, .T. ) ;
#760 = EDGE_CURVE ( 'NONE', #332, #78, #1058, .T. ) ;
#761 = DIRECTION ( 'NONE',  ( 0.000000000000000000, 1.000000000000000000, 0.000000000000000000 ) ) ;
#762 = EDGE_CURVE ( 'NONE', #829, #1055, #732, .T. ) ;
#763 = VERTEX_POINT ( 'NONE', #548 ) ;
#764 = DIRECTION ( 'NONE',  ( 1.000000000000000000, 0.000000000000000000, 0.000000000000000000 ) ) ;
#765 = VECTOR ( 'NONE', #1062, 1000.000000000000000 ) ;
#766 = CARTESIAN_POINT ( 'NONE',  ( -35.00000000000000000, 11.50000000000000000, 49.00000000000000000 ) ) ;
#767 = VERTEX_POINT ( 'NONE', #472 ) ;
#768 = APPROVAL_DATE_TIME ( #435, #256 ) ;
#769 = DIRECTION ( 'NONE',  ( 0.000000000000000000, 0.000000000000000000, -1.000000000000000000 ) ) ;
#770 = VECTOR ( 'NONE', #965, 1000.000000000000000 ) ;
#771 = APPROVAL_STATUS ( 'not_yet_approved' ) ;
#772 =( LENGTH_UNIT ( ) NAMED_UNIT ( * ) SI_UNIT ( .MILLI., .METRE. ) );
#773 = CARTESIAN_POINT ( 'NONE',  ( 20.50000000000000000, 12.50000000000000000, 56.00000000000000000 ) ) ;
#774 = EDGE_CURVE ( 'NONE', #556, #403, #237, .T. ) ;
#776 = ADVANCED_FACE ( 'NONE', ( #461 ), #990, .F. ) ;
#775 = ADVANCED_FACE ( 'NONE', ( #636 ), #1052, .F. ) ;
#777 = CARTESIAN_POINT ( 'NONE',  ( 0.000000000000000000, -23.00000000000000000, 65.25000000000000000 ) ) ;
#778 = COORDINATED_UNIVERSAL_TIME_OFFSET ( 8, 0, .AHEAD. ) ;
#779 = CARTESIAN_POINT ( 'NONE',  ( -38.00000000000000000, 26.00000000000000000, 82.00000000000000000 ) ) ;
#780 = ORIENTED_EDGE ( 'NONE', *, *, #27, .F. ) ;
#781 = ORIENTED_EDGE ( 'NONE', *, *, #560, .F. ) ;
#782 = CIRCLE ( 'NONE', #691, 12.50000000000000000 ) ;
#783 = DIRECTION ( 'NONE',  ( 1.000000000000000000, 0.000000000000000000, 0.000000000000000000 ) ) ;
#784 = DATE_AND_TIME ( #28, #702 ) ;
#785 = EDGE_LOOP ( 'NONE', ( #744, #409, #1005, #639 ) ) ;
#786 = LINE ( 'NONE', #30, #885 ) ;
#787 = DIRECTION ( 'NONE',  ( 1.000000000000000000, 0.000000000000000000, 0.000000000000000000 ) ) ;
#788 = ORIENTED_EDGE ( 'NONE', *, *, #827, .T. ) ;
#789 = CARTESIAN_POINT ( 'NONE',  ( 2.000000000000000000, 11.50000000000000000, 78.50000000000000000 ) ) ;
#790 = VECTOR ( 'NONE', #150, 1000.000000000000000 ) ;
#791 = AXIS2_PLACEMENT_3D ( 'NONE', #700, #370, #203 ) ;
#792 = LOCAL_TIME ( 15, 24, 52.00000000000000000, #754 ) ;
#793 = DIRECTION ( 'NONE',  ( 1.000000000000000000, 0.000000000000000000, 0.000000000000000000 ) ) ;
#794 = VERTEX_POINT ( 'NONE', #554 ) ;
#795 = DIRECTION ( 'NONE',  ( 0.000000000000000000, 0.000000000000000000, -1.000000000000000000 ) ) ;
#796 = AXIS2_PLACEMENT_3D ( 'NONE', #773, #182, #851 ) ;
#797 = CARTESIAN_POINT ( 'NONE',  ( -3.500000000000000000, -28.00000000000000000, 78.50000000000000000 ) ) ;
#798 = CARTESIAN_POINT ( 'NONE',  ( -38.00000000000000000, -26.00000000000000000, 48.00000000000000000 ) ) ;
#799 = ORIENTED_EDGE ( 'NONE', *, *, #271, .T. ) ;
#800 = DIRECTION ( 'NONE',  ( 1.000000000000000000, 0.000000000000000000, 0.000000000000000000 ) ) ;
#801 = PLANE ( 'NONE',  #270 ) ;
#802 = FACE_OUTER_BOUND ( 'NONE', #319, .T. ) ;
#803 = DIRECTION ( 'NONE',  ( 0.000000000000000000, 0.000000000000000000, 1.000000000000000000 ) ) ;
#804 = EDGE_CURVE ( 'NONE', #597, #48, #297, .T. ) ;
#805 = ORIENTED_EDGE ( 'NONE', *, *, #57, .T. ) ;
#806 = APPLICATION_CONTEXT ( 'configuration controlled 3d designs of mechanical parts and assemblies' ) ;
#807 = CARTESIAN_POINT ( 'NONE',  ( 35.00000000000000000, 23.00000000000000000, 78.50000000000000000 ) ) ;
#808 = CARTESIAN_POINT ( 'NONE',  ( 0.000000000000000000, 23.00000000000000000, 66.50000000000000000 ) ) ;
#810 = EDGE_CURVE ( 'NONE', #1055, #48, #393, .T. ) ;
#809 = EDGE_CURVE ( 'NONE', #881, #1018, #890, .T. ) ;
#811 = DIRECTION ( 'NONE',  ( 0.000000000000000000, 1.000000000000000000, 0.000000000000000000 ) ) ;
#812 = CARTESIAN_POINT ( 'NONE',  ( 3.500000000000000000, 11.50000000000000000, 78.50000000000000000 ) ) ;
#813 = ORIENTED_EDGE ( 'NONE', *, *, #54, .T. ) ;
#814 = VECTOR ( 'NONE', #269, 1000.000000000000000 ) ;
#815 = ORIENTED_EDGE ( 'NONE', *, *, #586, .F. ) ;
#816 = CARTESIAN_POINT ( 'NONE',  ( 35.00000000000000711, 11.50000000000000000, 78.50000000000000000 ) ) ;
#817 = LINE ( 'NONE', #964, #741 ) ;
#818 = DIRECTION ( 'NONE',  ( 0.000000000000000000, 0.000000000000000000, 1.000000000000000000 ) ) ;
#819 = ORIENTED_EDGE ( 'NONE', *, *, #173, .T. ) ;
#820 = CARTESIAN_POINT ( 'NONE',  ( 35.00000000000000711, -9.500000000000000000, 82.00000000000000000 ) ) ;
#821 = ORIENTED_EDGE ( 'NONE', *, *, #953, .T. ) ;
#822 = LINE ( 'NONE', #599, #286 ) ;
#823 = CC_DESIGN_SECURITY_CLASSIFICATION ( #236, ( #993 ) ) ;
#824 = CARTESIAN_POINT ( 'NONE',  ( -35.00000000000000000, 23.00000000000000000, 52.00000000000000000 ) ) ;
#825 = LINE ( 'NONE', #46, #268 ) ;
#826 = VECTOR ( 'NONE', #716, 1000.000000000000000 ) ;
#827 = EDGE_CURVE ( 'NONE', #609, #469, #51, .T. ) ;
#828 = DIRECTION ( 'NONE',  ( -1.000000000000000000, 0.000000000000000000, 0.000000000000000000 ) ) ;
#829 = VERTEX_POINT ( 'NONE', #260 ) ;
#830 = EDGE_LOOP ( 'NONE', ( #1048, #474, #967, #667 ) ) ;
#831 = CARTESIAN_POINT ( 'NONE',  ( 0.000000000000000000, -26.00000000000000000, 66.50000000000000000 ) ) ;
#832 = CYLINDRICAL_SURFACE ( 'NONE', #206, 12.50000000000000000 ) ;
#833 = PLANE ( 'NONE',  #502 ) ;
#834 = VECTOR ( 'NONE', #714, 1000.000000000000000 ) ;
#835 = ORIENTED_EDGE ( 'NONE', *, *, #955, .F. ) ;
#836 = ORIENTED_EDGE ( 'NONE', *, *, #57, .F. ) ;
#837 = ORIENTED_EDGE ( 'NONE', *, *, #810, .T. ) ;
#838 = CARTESIAN_POINT ( 'NONE',  ( 20.50000000000000000, 12.50000000000000000, 77.00000000000000000 ) ) ;
#839 = LINE ( 'NONE', #507, #307 ) ;
#840 = VECTOR ( 'NONE', #331, 1000.000000000000000 ) ;
#841 = ORIENTED_EDGE ( 'NONE', *, *, #1040, .F. ) ;
#842 = ORIENTED_EDGE ( 'NONE', *, *, #504, .F. ) ;
#843 = CARTESIAN_POINT ( 'NONE',  ( 20.50000000000000000, 23.00000000000000000, 60.62500000000000000 ) ) ;
#844 = EDGE_CURVE ( 'NONE', #416, #673, #1092, .T. ) ;
#845 = EDGE_CURVE ( 'NONE', #62, #881, #1078, .T. ) ;
#846 = DIRECTION ( 'NONE',  ( 1.000000000000000000, 0.000000000000000000, 0.000000000000000000 ) ) ;
#847 = ORIENTED_EDGE ( 'NONE', *, *, #285, .F. ) ;
#848 = DIRECTION ( 'NONE',  ( 0.000000000000000000, -1.000000000000000000, 0.000000000000000000 ) ) ;
#849 = DIRECTION ( 'NONE',  ( 0.000000000000000000, 1.000000000000000000, 0.000000000000000000 ) ) ;
#850 = DATE_AND_TIME ( #343, #792 ) ;
#851 = DIRECTION ( 'NONE',  ( 0.000000000000000000, 1.000000000000000000, 0.000000000000000000 ) ) ;
#852 = ORIENTED_EDGE ( 'NONE', *, *, #386, .F. ) ;
#853 = VECTOR ( 'NONE', #959, 1000.000000000000000 ) ;
#854 = LOCAL_TIME ( 15, 24, 52.00000000000000000, #676 ) ;
#855 = ORIENTED_EDGE ( 'NONE', *, *, #39, .F. ) ;
#856 = COORDINATED_UNIVERSAL_TIME_OFFSET ( 8, 0, .AHEAD. ) ;
#857 = DIRECTION ( 'NONE',  ( 0.000000000000000000, 1.000000000000000000, 0.000000000000000000 ) ) ;
#858 = EDGE_CURVE ( 'NONE', #247, #153, #589, .T. ) ;
#859 = CARTESIAN_POINT ( 'NONE',  ( -12.50000000000000000, -23.00000000000000000, 66.50000000000000000 ) ) ;
#860 = CARTESIAN_POINT ( 'NONE',  ( -35.00000000000000000, 0.000000000000000000, 78.50000000000000000 ) ) ;
#861 = EDGE_CURVE ( 'NONE', #210, #556, #82, .T. ) ;
#862 = DIRECTION ( 'NONE',  ( -1.000000000000000000, 0.000000000000000000, 0.000000000000000000 ) ) ;
#863 = AXIS2_PLACEMENT_3D ( 'NONE', #509, #930, #848 ) ;
#864 = DATE_AND_TIME ( #521, #854 ) ;
#865 = PERSON_AND_ORGANIZATION ( #486, #431 ) ;
#866 = LINE ( 'NONE', #1020, #957 ) ;
#867 = ORIENTED_EDGE ( 'NONE', *, *, #420, .F. ) ;
#868 = CARTESIAN_POINT ( 'NONE',  ( -6.782329983125259254, 26.00000000000000000, 77.00000000000000000 ) ) ;
#869 = AXIS2_PLACEMENT_3D ( 'NONE', #242, #663, #988 ) ;
#870 = ORIENTED_EDGE ( 'NONE', *, *, #563, .T. ) ;
#871 = ORIENTED_EDGE ( 'NONE', *, *, #27, .T. ) ;
#872 = LINE ( 'NONE', #789, #853 ) ;
#873 = CC_DESIGN_PERSON_AND_ORGANIZATION_ASSIGNMENT ( #175, #1019, ( #236 ) ) ;
#874 = EDGE_CURVE ( 'NONE', #633, #1068, #997, .T. ) ;
#875 = APPROVAL_STATUS ( 'not_yet_approved' ) ;
#876 = ORIENTED_EDGE ( 'NONE', *, *, #92, .F. ) ;
#877 = AXIS2_PLACEMENT_3D ( 'NONE', #926, #753, #167 ) ;
#878 = FACE_OUTER_BOUND ( 'NONE', #539, .T. ) ;
#879 = CARTESIAN_POINT ( 'NONE',  ( -35.00000000000000000, 23.00000000000000000, 78.50000000000000000 ) ) ;
#880 = ORIENTED_EDGE ( 'NONE', *, *, #257, .T. ) ;
#881 = VERTEX_POINT ( 'NONE', #324 ) ;
#882 = FACE_OUTER_BOUND ( 'NONE', #830, .T. ) ;
#883 = VECTOR ( 'NONE', #1064, 1000.000000000000000 ) ;
#884 = CARTESIAN_POINT ( 'NONE',  ( 0.000000000000000000, 23.00000000000000000, 65.25000000000000000 ) ) ;
#885 = VECTOR ( 'NONE', #36, 1000.000000000000000 ) ;
#886 = FACE_OUTER_BOUND ( 'NONE', #55, .T. ) ;
#887 = VERTEX_POINT ( 'NONE', #748 ) ;
#888 = CARTESIAN_POINT ( 'NONE',  ( 38.00000000000000000, 0.000000000000000000, 82.00000000000000000 ) ) ;
#889 = AXIS2_PLACEMENT_3D ( 'NONE', #250, #740, #934 ) ;
#890 = LINE ( 'NONE', #130, #834 ) ;
#891 = CARTESIAN_POINT ( 'NONE',  ( 35.00000000000000000, 23.00000000000000000, 78.50000000000000000 ) ) ;
#892 = ORIENTED_EDGE ( 'NONE', *, *, #927, .F. ) ;
#894 = ADVANCED_FACE ( 'NONE', ( #1008 ), #249, .F. ) ;
#893 = EDGE_CURVE ( 'NONE', #496, #170, #243, .T. ) ;
#895 = PRODUCT_DEFINITION_SHAPE ( 'NONE', 'NONE',  #987 ) ;
#896 = FACE_OUTER_BOUND ( 'NONE', #1075, .T. ) ;
#897 = CARTESIAN_POINT ( 'NONE',  ( -35.00000000000000000, 0.000000000000000000, 52.00000000000000000 ) ) ;
#898 = PLANE ( 'NONE',  #455 ) ;
#899 = DIRECTION ( 'NONE',  ( -1.000000000000000000, 0.000000000000000000, 0.000000000000000000 ) ) ;
#900 = ORIENTED_EDGE ( 'NONE', *, *, #942, .T. ) ;
#901 = ORIENTED_EDGE ( 'NONE', *, *, #1004, .F. ) ;
#902 = CARTESIAN_POINT ( 'NONE',  ( -35.00000000000000000, -23.00000000000000000, 78.50000000000000000 ) ) ;
#903 = CARTESIAN_POINT ( 'NONE',  ( -39.00000000000000000, 2.500000000000000000, 46.00000000000000000 ) ) ;
#904 = CARTESIAN_POINT ( 'NONE',  ( 38.00000000000000000, 26.00000000000000000, 48.00000000000000000 ) ) ;
#905 = ORIENTED_EDGE ( 'NONE', *, *, #774, .F. ) ;
#906 = VECTOR ( 'NONE', #99, 1000.000000000000000 ) ;
#907 = VERTEX_POINT ( 'NONE', #335 ) ;
#908 = DIRECTION ( 'NONE',  ( 0.000000000000000000, 0.000000000000000000, -1.000000000000000000 ) ) ;
#909 = PLANE ( 'NONE',  #120 ) ;
#910 = LINE ( 'NONE', #797, #74 ) ;
#911 = EDGE_LOOP ( 'NONE', ( #70, #871 ) ) ;
#912 = DIRECTION ( 'NONE',  ( -1.000000000000000000, 0.000000000000000000, 0.000000000000000000 ) ) ;
#913 = ORIENTED_EDGE ( 'NONE', *, *, #1094, .T. ) ;
#914 = CARTESIAN_POINT ( 'NONE',  ( -20.50000000000000000, 23.00000000000000000, 77.00000000000000000 ) ) ;
#915 = PLANE ( 'NONE',  #1071 ) ;
#916 = VECTOR ( 'NONE', #979, 1000.000000000000000 ) ;
#917 = CARTESIAN_POINT ( 'NONE',  ( -38.00000000000000000, 2.500000000000000000, 48.00000000000000000 ) ) ;
#918 = ORIENTED_EDGE ( 'NONE', *, *, #19, .T. ) ;
#919 = EDGE_LOOP ( 'NONE', ( #333, #900, #819, #38, #77, #29, #986, #171 ) ) ;
#920 = DIRECTION ( 'NONE',  ( 0.000000000000000000, 0.000000000000000000, 1.000000000000000000 ) ) ;
#921 = FACE_OUTER_BOUND ( 'NONE', #745, .T. ) ;
#922 = CARTESIAN_POINT ( 'NONE',  ( -38.00000000000000000, 26.00000000000000000, 48.00000000000000000 ) ) ;
#923 = ADVANCED_FACE ( 'NONE', ( #921 ), #915, .T. ) ;
#924 = ORIENTED_EDGE ( 'NONE', *, *, #385, .T. ) ;
#925 = EDGE_LOOP ( 'NONE', ( #483, #641, #263, #566 ) ) ;
#926 = CARTESIAN_POINT ( 'NONE',  ( 0.000000000000000000, 20.00000000000000000, 77.00000000000000000 ) ) ;
#927 = EDGE_CURVE ( 'NONE', #247, #416, #669, .T. ) ;
#928 = CARTESIAN_POINT ( 'NONE',  ( 35.00000000000000000, 11.50000000000000000, 46.00000000000000000 ) ) ;
#929 = ORIENTED_EDGE ( 'NONE', *, *, #659, .F. ) ;
#930 = DIRECTION ( 'NONE',  ( 0.000000000000000000, 0.000000000000000000, -1.000000000000000000 ) ) ;
#932 = EDGE_CURVE ( 'NONE', #763, #48, #424, .T. ) ;
#931 = ADVANCED_FACE ( 'NONE', ( #87 ), #832, .F. ) ;
#933 = DIRECTION ( 'NONE',  ( -1.000000000000000000, 0.000000000000000000, 0.000000000000000000 ) ) ;
#934 = DIRECTION ( 'NONE',  ( 0.000000000000000000, -1.000000000000000000, 0.000000000000000000 ) ) ;
#935 = ORIENTED_EDGE ( 'NONE', *, *, #844, .F. ) ;
#936 = ORIENTED_EDGE ( 'NONE', *, *, #728, .T. ) ;
#937 = CARTESIAN_POINT ( 'NONE',  ( -2.000000000000000000, 2.500000000000000000, 52.00000000000000000 ) ) ;
#938 = DIRECTION ( 'NONE',  ( 1.000000000000000000, 0.000000000000000000, 0.000000000000000000 ) ) ;
#939 = VECTOR ( 'NONE', #561, 1000.000000000000000 ) ;
#940 = CIRCLE ( 'NONE', #688, 12.50000000000000000 ) ;
#941 = VECTOR ( 'NONE', #186, 1000.000000000000000 ) ;
#942 = EDGE_CURVE ( 'NONE', #1068, #381, #1049, .T. ) ;
#943 = PERSON_AND_ORGANIZATION ( #486, #431 ) ;
#944 = DIRECTION ( 'NONE',  ( 1.000000000000000000, 0.000000000000000000, 0.000000000000000000 ) ) ;
#945 = VECTOR ( 'NONE', #16, 1000.000000000000000 ) ;
#946 = PERSON_AND_ORGANIZATION ( #486, #431 ) ;
#947 = CARTESIAN_POINT ( 'NONE',  ( -3.500000000000000000, 11.50000000000000000, 78.50000000000000000 ) ) ;
#948 = ORIENTED_EDGE ( 'NONE', *, *, #437, .T. ) ;
#949 = DIRECTION ( 'NONE',  ( 0.000000000000000000, 1.000000000000000000, 0.000000000000000000 ) ) ;
#950 = DIRECTION ( 'NONE',  ( 1.000000000000000000, 0.000000000000000000, 0.000000000000000000 ) ) ;
#951 = EDGE_LOOP ( 'NONE', ( #6, #238, #707, #545 ) ) ;
#952 = CC_DESIGN_PERSON_AND_ORGANIZATION_ASSIGNMENT ( #865, #1038, ( #987 ) ) ;
#953 = EDGE_CURVE ( 'NONE', #153, #1065, #330, .T. ) ;
#954 = DIRECTION ( 'NONE',  ( 0.000000000000000000, 1.000000000000000000, 0.000000000000000000 ) ) ;
#955 = EDGE_CURVE ( 'NONE', #1065, #469, #1021, .T. ) ;
#956 = CALENDAR_DATE ( 2026, 20, 9 ) ;
#957 = VECTOR ( 'NONE', #93, 1000.000000000000000 ) ;
#958 = EDGE_LOOP ( 'NONE', ( #924, #80, #115, #241, #815, #855, #154, #191, #961, #1060, #805, #85, #415, #490 ) ) ;
#959 = DIRECTION ( 'NONE',  ( -1.000000000000000000, 0.000000000000000000, 0.000000000000000000 ) ) ;
#960 = DIRECTION ( 'NONE',  ( 0.000000000000000000, -1.000000000000000000, 0.000000000000000000 ) ) ;
#961 = ORIENTED_EDGE ( 'NONE', *, *, #220, .T. ) ;
#962 = AXIS2_PLACEMENT_3D ( 'NONE', #137, #899, #803 ) ;
#963 = DIRECTION ( 'NONE',  ( 1.000000000000000000, 0.000000000000000000, 0.000000000000000000 ) ) ;
#964 = CARTESIAN_POINT ( 'NONE',  ( -38.00000000000000000, 11.50000000000000000, 47.00000000000000000 ) ) ;
#965 = DIRECTION ( 'NONE',  ( 1.000000000000000000, 0.000000000000000000, 0.000000000000000000 ) ) ;
#966 = ORIENTED_EDGE ( 'NONE', *, *, #760, .T. ) ;
#967 = ORIENTED_EDGE ( 'NONE', *, *, #586, .T. ) ;
#968 = PLANE ( 'NONE',  #372 ) ;
#969 = VECTOR ( 'NONE', #172, 1000.000000000000000 ) ;
#970 = CARTESIAN_POINT ( 'NONE',  ( 35.00000000000000000, -9.500000000000000000, 48.00000000000000000 ) ) ;
#971 = CARTESIAN_POINT ( 'NONE',  ( -38.00000000000000000, 0.000000000000000000, 82.00000000000000000 ) ) ;
#972 = EDGE_CURVE ( 'NONE', #887, #71, #632, .T. ) ;
#973 = EDGE_LOOP ( 'NONE', ( #870, #501, #1000, #508, #227, #656, #821, #503 ) ) ;
#974 = ADVANCED_FACE ( 'NONE', ( #289 ), #468, .F. ) ;
#975 = LINE ( 'NONE', #155, #97 ) ;
#976 = LINE ( 'NONE', #221, #939 ) ;
#977 = VECTOR ( 'NONE', #88, 1000.000000000000000 ) ;
#978 = DIRECTION ( 'NONE',  ( 0.000000000000000000, 1.000000000000000000, 0.000000000000000000 ) ) ;
#979 = DIRECTION ( 'NONE',  ( 2.040851148208007998E-16, -0.000000000000000000, 1.000000000000000000 ) ) ;
#980 = ORIENTED_EDGE ( 'NONE', *, *, #1004, .T. ) ;
#981 = ORIENTED_EDGE ( 'NONE', *, *, #694, .T. ) ;
#982 = DIRECTION ( 'NONE',  ( 1.000000000000000000, 0.000000000000000000, 0.000000000000000000 ) ) ;
#983 = DIRECTION ( 'NONE',  ( 1.000000000000000000, 0.000000000000000000, 0.000000000000000000 ) ) ;
#984 = DIRECTION ( 'NONE',  ( 1.000000000000000000, 0.000000000000000000, 0.000000000000000000 ) ) ;
#985 = ORIENTED_EDGE ( 'NONE', *, *, #426, .T. ) ;
#986 = ORIENTED_EDGE ( 'NONE', *, *, #728, .F. ) ;
#987 = PRODUCT_DEFINITION ( 'æœ', '', #993, #374 ) ;
#988 = DIRECTION ( 'NONE',  ( 1.000000000000000000, 0.000000000000000000, 0.000000000000000000 ) ) ;
#989 = CARTESIAN_POINT ( 'NONE',  ( -12.50000000000000000, -26.00000000000000000, 66.50000000000000000 ) ) ;
#990 = CYLINDRICAL_SURFACE ( 'NONE', #544, 12.50000000000000000 ) ;
#991 = CIRCLE ( 'NONE', #791, 12.50000000000000000 ) ;
#992 = VERTEX_POINT ( 'NONE', #473 ) ;
#993 = PRODUCT_DEFINITION_FORMATION_WITH_SPECIFIED_SOURCE ( 'ä»', '', #719, .NOT_KNOWN. ) ;
#994 = CARTESIAN_POINT ( 'NONE',  ( 35.00000000000000000, 11.50000000000000000, 48.00000000000000000 ) ) ;
#995 = VERTEX_POINT ( 'NONE', #216 ) ;
#996 = LINE ( 'NONE', #807, #765 ) ;
#997 = LINE ( 'NONE', #1002, #438 ) ;
#998 = LINE ( 'NONE', #63, #24 ) ;
#999 = ORIENTED_EDGE ( 'NONE', *, *, #193, .F. ) ;
#1000 = ORIENTED_EDGE ( 'NONE', *, *, #845, .T. ) ;
#1001 = CARTESIAN_POINT ( 'NONE',  ( -38.00000000000000000, 26.00000000000000000, 48.00000000000000000 ) ) ;
#1002 = CARTESIAN_POINT ( 'NONE',  ( -12.50000000000000000, -28.00000000000000000, 66.50000000000000000 ) ) ;
#1003 = CARTESIAN_POINT ( 'NONE',  ( 38.00000000000000000, 0.000000000000000000, 82.00000000000000000 ) ) ;
#1004 = EDGE_CURVE ( 'NONE', #317, #729, #204, .T. ) ;
#1005 = ORIENTED_EDGE ( 'NONE', *, *, #226, .F. ) ;
#1006 = AXIS2_PLACEMENT_3D ( 'NONE', #430, #764, #7 ) ;
#1007 = VERTEX_POINT ( 'NONE', #812 ) ;
#1008 = FACE_OUTER_BOUND ( 'NONE', #1061, .T. ) ;
#1009 = DIRECTION ( 'NONE',  ( 0.000000000000000000, 1.000000000000000000, 0.000000000000000000 ) ) ;
#1011 = EDGE_CURVE ( 'NONE', #444, #317, #1059, .T. ) ;
#1010 = ADVANCED_FACE ( 'NONE', ( #47 ), #549, .T. ) ;
#1012 = VERTEX_POINT ( 'NONE', #710 ) ;
#1013 = PLANE ( 'NONE',  #863 ) ;
#1014 = CIRCLE ( 'NONE', #869, 12.50000000000000000 ) ;
#1015 = CARTESIAN_POINT ( 'NONE',  ( 0.000000000000000000, -23.00000000000000000, 66.50000000000000000 ) ) ;
#1016 = CARTESIAN_POINT ( 'NONE',  ( -20.50000000000000000, 23.00000000000000000, 60.62500000000000000 ) ) ;
#1017 = ORIENTED_EDGE ( 'NONE', *, *, #285, .T. ) ;
#1018 = VERTEX_POINT ( 'NONE', #538 ) ;
#1019 = PERSON_AND_ORGANIZATION_ROLE ( 'classification_officer' ) ;
#1020 = CARTESIAN_POINT ( 'NONE',  ( -38.00000000000000000, 2.500000000000000000, 47.00000000000000000 ) ) ;
#1021 = CIRCLE ( 'NONE', #402, 12.50000000000000000 ) ;
#1022 = VERTEX_POINT ( 'NONE', #891 ) ;
#1023 = EDGE_CURVE ( 'NONE', #703, #662, #388, .T. ) ;
#1024 =( NAMED_UNIT ( * ) SI_UNIT ( $, .STERADIAN. ) SOLID_ANGLE_UNIT ( ) );
#1025 = FACE_BOUND ( 'NONE', #973, .T. ) ;
#1026 = VECTOR ( 'NONE', #1072, 1000.000000000000000 ) ;
#1027 = APPLICATION_PROTOCOL_DEFINITION ( 'international standard', 'config_control_design', 1994, #1 ) ;
#1028 = DIRECTION ( 'NONE',  ( 0.000000000000000000, -1.000000000000000000, 0.000000000000000000 ) ) ;
#1029 = ORIENTED_EDGE ( 'NONE', *, *, #437, .F. ) ;
#1030 = AXIS2_PLACEMENT_3D ( 'NONE', #113, #795, #630 ) ;
#1031 = CARTESIAN_POINT ( 'NONE',  ( 38.00000000000000000, 26.00000000000000000, 48.00000000000000000 ) ) ;
#1032 = PLANE ( 'NONE',  #122 ) ;
#1033 = DIRECTION ( 'NONE',  ( 0.000000000000000000, -1.000000000000000000, 0.000000000000000000 ) ) ;
#1034 = ORIENTED_EDGE ( 'NONE', *, *, #420, .T. ) ;
#1035 = EDGE_CURVE ( 'NONE', #1065, #166, #131, .T. ) ;
#1036 = EDGE_CURVE ( 'NONE', #629, #294, #542, .T. ) ;
#1037 = DIRECTION ( 'NONE',  ( 1.000000000000000000, 0.000000000000000000, 0.000000000000000000 ) ) ;
#1038 = PERSON_AND_ORGANIZATION_ROLE ( 'creator' ) ;
#1039 = VERTEX_POINT ( 'NONE', #303 ) ;
#1040 = EDGE_CURVE ( 'NONE', #403, #661, #454, .T. ) ;
#1041 = LOCAL_TIME ( 15, 24, 52.00000000000000000, #282 ) ;
#1042 = CARTESIAN_POINT ( 'NONE',  ( 0.000000000000000000, -26.00000000000000000, 65.00000000000000000 ) ) ;
#1043 = APPROVAL_STATUS ( 'not_yet_approved' ) ;
#1044 = VECTOR ( 'NONE', #800, 1000.000000000000000 ) ;
#1045 = ORIENTED_EDGE ( 'NONE', *, *, #1011, .T. ) ;
#1046 = DIRECTION ( 'NONE',  ( 0.000000000000000000, 0.000000000000000000, -1.000000000000000000 ) ) ;
#1047 = CARTESIAN_POINT ( 'NONE',  ( -38.00000000000000000, 0.000000000000000000, 82.00000000000000000 ) ) ;
#1048 = ORIENTED_EDGE ( 'NONE', *, *, #225, .T. ) ;
#1049 = CIRCLE ( 'NONE', #156, 12.50000000000000000 ) ;
#1050 = DIRECTION ( 'NONE',  ( 0.000000000000000000, 0.000000000000000000, -1.000000000000000000 ) ) ;
#1051 = ADVANCED_FACE ( 'NONE', ( #886 ), #555, .T. ) ;
#1052 = PLANE ( 'NONE',  #687 ) ;
#1053 = LINE ( 'NONE', #937, #941 ) ;
#1054 = AXIS2_PLACEMENT_3D ( 'NONE', #831, #72, #747 ) ;
#1055 = VERTEX_POINT ( 'NONE', #125 ) ;
#1056 = DIRECTION ( 'NONE',  ( 1.000000000000000000, 0.000000000000000000, 0.000000000000000000 ) ) ;
#1057 = LINE ( 'NONE', #1070, #742 ) ;
#1058 = LINE ( 'NONE', #725, #410 ) ;
#1059 = LINE ( 'NONE', #1047, #537 ) ;
#1060 = ORIENTED_EDGE ( 'NONE', *, *, #927, .T. ) ;
#1061 = EDGE_LOOP ( 'NONE', ( #452, #2, #348, #623 ) ) ;
#1062 = DIRECTION ( 'NONE',  ( 1.000000000000000000, 0.000000000000000000, 0.000000000000000000 ) ) ;
#1063 = LINE ( 'NONE', #310, #183 ) ;
#1064 = DIRECTION ( 'NONE',  ( 0.000000000000000000, 1.000000000000000000, 0.000000000000000000 ) ) ;
#1065 = VERTEX_POINT ( 'NONE', #42 ) ;
#1066 = EDGE_CURVE ( 'NONE', #210, #736, #1053, .T. ) ;
#1067 = ADVANCED_FACE ( 'NONE', ( #100 ), #1032, .F. ) ;
#1068 = VERTEX_POINT ( 'NONE', #859 ) ;
#1069 = LINE ( 'NONE', #574, #582 ) ;
#1070 = CARTESIAN_POINT ( 'NONE',  ( 38.00000000000000000, 0.000000000000000000, 48.00000000000000000 ) ) ;
#1071 = AXIS2_PLACEMENT_3D ( 'NONE', #413, #658, #163 ) ;
#1072 = DIRECTION ( 'NONE',  ( 0.000000000000000000, 0.000000000000000000, 1.000000000000000000 ) ) ;
#1073 = ORIENTED_EDGE ( 'NONE', *, *, #1023, .T. ) ;
#1074 = LINE ( 'NONE', #169, #128 ) ;
#1075 = EDGE_LOOP ( 'NONE', ( #22, #684, #299, #464 ) ) ;
#1076 = DIRECTION ( 'NONE',  ( 1.000000000000000000, 0.000000000000000000, 0.000000000000000000 ) ) ;
#1077 = DIRECTION ( 'NONE',  ( 0.000000000000000000, 1.000000000000000000, 0.000000000000000000 ) ) ;
#1078 = LINE ( 'NONE', #499, #14 ) ;
#1079 = AXIS2_PLACEMENT_3D ( 'NONE', #541, #739, #818 ) ;
#1080 = VECTOR ( 'NONE', #291, 1000.000000000000000 ) ;
#1081 = AXIS2_PLACEMENT_3D ( 'NONE', #685, #197, #950 ) ;
#1082 = CARTESIAN_POINT ( 'NONE',  ( 0.000000000000000000, 23.00000000000000000, 77.00000000000000000 ) ) ;
#1083 = ORIENTED_EDGE ( 'NONE', *, *, #369, .T. ) ;
#1084 = ORIENTED_EDGE ( 'NONE', *, *, #563, .F. ) ;
#1085 = DIRECTION ( 'NONE',  ( -1.000000000000000000, 0.000000000000000000, 0.000000000000000000 ) ) ;
#1086 = DIRECTION ( 'NONE',  ( 1.000000000000000000, 0.000000000000000000, 0.000000000000000000 ) ) ;
#1087 = VECTOR ( 'NONE', #254, 1000.000000000000000 ) ;
#1088 = CARTESIAN_POINT ( 'NONE',  ( 38.00000000000000000, -26.00000000000000000, 82.00000000000000000 ) ) ;
#1089 = ORIENTED_EDGE ( 'NONE', *, *, #615, .F. ) ;
#1090 = ORIENTED_EDGE ( 'NONE', *, *, #616, .T. ) ;
#1091 = LINE ( 'NONE', #757, #524 ) ;
#1092 = LINE ( 'NONE', #419, #969 ) ;
#1094 = EDGE_CURVE ( 'NONE', #444, #726, #618, .T. ) ;
#1093 = ADVANCED_FACE ( 'NONE', ( #361 ), #15, .F. ) ;
#1095 = DIRECTION ( 'NONE',  ( -1.000000000000000000, 0.000000000000000000, 0.000000000000000000 ) ) ;
ENDSEC;
END-ISO-10303-21;
