ISO-10303-21;
HEADER;
/* Generated by software containing ST-Developer
 * from STEP Tools, Inc. (www.steptools.com) 
 */

FILE_DESCRIPTION(
/* description */ (''),
/* implementation_level */ '2;1');

FILE_NAME(
/* name */ '',
/* time_stamp */ '2026-09-18T01:48:49+08:00',
/* author */ (''),
/* organization */ (''),
/* preprocessor_version */ 'ST-DEVELOPER v20.2',
/* originating_system */ 'Autodesk Translation Framework v15.15.0.0',
/* authorisation */ '');

FILE_SCHEMA (('AUTOMOTIVE_DESIGN { 1 0 10303 214 3 1 1 }'));
ENDSEC;

DATA;
#10=MECHANICAL_DESIGN_GEOMETRIC_PRESENTATION_REPRESENTATION('',(#13),#1635);
#11=SHAPE_REPRESENTATION_RELATIONSHIP('SRR','None',#1642,#12);
#12=ADVANCED_BREP_SHAPE_REPRESENTATION('',(#14),#1634);
#13=STYLED_ITEM('',(#1651),#14);
#14=MANIFOLD_SOLID_BREP('\X2\9F7F6761\X0\-\X2\4E0B\X0\@14',#1031);
#15=FACE_OUTER_BOUND('',#65,.T.);
#16=FACE_OUTER_BOUND('',#66,.T.);
#17=FACE_OUTER_BOUND('',#67,.T.);
#18=FACE_OUTER_BOUND('',#68,.T.);
#19=FACE_OUTER_BOUND('',#69,.T.);
#20=FACE_OUTER_BOUND('',#70,.T.);
#21=FACE_OUTER_BOUND('',#71,.T.);
#22=FACE_OUTER_BOUND('',#72,.T.);
#23=FACE_OUTER_BOUND('',#73,.T.);
#24=FACE_OUTER_BOUND('',#74,.T.);
#25=FACE_OUTER_BOUND('',#75,.T.);
#26=FACE_OUTER_BOUND('',#76,.T.);
#27=FACE_OUTER_BOUND('',#77,.T.);
#28=FACE_OUTER_BOUND('',#78,.T.);
#29=FACE_OUTER_BOUND('',#79,.T.);
#30=FACE_OUTER_BOUND('',#80,.T.);
#31=FACE_OUTER_BOUND('',#81,.T.);
#32=FACE_OUTER_BOUND('',#82,.T.);
#33=FACE_OUTER_BOUND('',#83,.T.);
#34=FACE_OUTER_BOUND('',#84,.T.);
#35=FACE_OUTER_BOUND('',#85,.T.);
#36=FACE_OUTER_BOUND('',#86,.T.);
#37=FACE_OUTER_BOUND('',#87,.T.);
#38=FACE_OUTER_BOUND('',#88,.T.);
#39=FACE_OUTER_BOUND('',#89,.T.);
#40=FACE_OUTER_BOUND('',#90,.T.);
#41=FACE_OUTER_BOUND('',#91,.T.);
#42=FACE_OUTER_BOUND('',#92,.T.);
#43=FACE_OUTER_BOUND('',#93,.T.);
#44=FACE_OUTER_BOUND('',#94,.T.);
#45=FACE_OUTER_BOUND('',#95,.T.);
#46=FACE_OUTER_BOUND('',#96,.T.);
#47=FACE_OUTER_BOUND('',#97,.T.);
#48=FACE_OUTER_BOUND('',#98,.T.);
#49=FACE_OUTER_BOUND('',#99,.T.);
#50=FACE_OUTER_BOUND('',#100,.T.);
#51=FACE_OUTER_BOUND('',#101,.T.);
#52=FACE_OUTER_BOUND('',#102,.T.);
#53=FACE_OUTER_BOUND('',#103,.T.);
#54=FACE_OUTER_BOUND('',#104,.T.);
#55=FACE_OUTER_BOUND('',#105,.T.);
#56=FACE_OUTER_BOUND('',#106,.T.);
#57=FACE_OUTER_BOUND('',#107,.T.);
#58=FACE_OUTER_BOUND('',#108,.T.);
#59=FACE_OUTER_BOUND('',#109,.T.);
#60=FACE_OUTER_BOUND('',#110,.T.);
#61=FACE_OUTER_BOUND('',#111,.T.);
#62=FACE_OUTER_BOUND('',#112,.T.);
#63=FACE_OUTER_BOUND('',#113,.T.);
#64=FACE_OUTER_BOUND('',#114,.T.);
#65=EDGE_LOOP('',(#643,#644,#645,#646));
#66=EDGE_LOOP('',(#647,#648,#649,#650));
#67=EDGE_LOOP('',(#651,#652,#653,#654));
#68=EDGE_LOOP('',(#655,#656,#657,#658));
#69=EDGE_LOOP('',(#659,#660,#661,#662));
#70=EDGE_LOOP('',(#663,#664,#665,#666));
#71=EDGE_LOOP('',(#667,#668,#669,#670));
#72=EDGE_LOOP('',(#671,#672,#673,#674));
#73=EDGE_LOOP('',(#675,#676,#677,#678));
#74=EDGE_LOOP('',(#679,#680,#681,#682));
#75=EDGE_LOOP('',(#683,#684,#685,#686));
#76=EDGE_LOOP('',(#687,#688,#689,#690));
#77=EDGE_LOOP('',(#691,#692,#693,#694));
#78=EDGE_LOOP('',(#695,#696,#697,#698));
#79=EDGE_LOOP('',(#699,#700,#701,#702));
#80=EDGE_LOOP('',(#703,#704,#705,#706,#707,#708,#709,#710,#711,#712,#713,
#714,#715,#716,#717,#718,#719,#720,#721,#722,#723,#724,#725,#726,#727,#728,
#729,#730,#731,#732,#733,#734,#735,#736,#737,#738,#739,#740,#741,#742,#743,
#744,#745,#746,#747,#748,#749,#750));
#81=EDGE_LOOP('',(#751,#752,#753,#754));
#82=EDGE_LOOP('',(#755,#756,#757,#758));
#83=EDGE_LOOP('',(#759,#760,#761,#762));
#84=EDGE_LOOP('',(#763,#764,#765,#766));
#85=EDGE_LOOP('',(#767,#768,#769,#770));
#86=EDGE_LOOP('',(#771,#772,#773,#774));
#87=EDGE_LOOP('',(#775,#776,#777,#778));
#88=EDGE_LOOP('',(#779,#780,#781,#782));
#89=EDGE_LOOP('',(#783,#784,#785,#786));
#90=EDGE_LOOP('',(#787,#788,#789,#790));
#91=EDGE_LOOP('',(#791,#792,#793,#794));
#92=EDGE_LOOP('',(#795,#796,#797,#798));
#93=EDGE_LOOP('',(#799,#800,#801,#802));
#94=EDGE_LOOP('',(#803,#804,#805,#806));
#95=EDGE_LOOP('',(#807,#808,#809,#810));
#96=EDGE_LOOP('',(#811,#812,#813,#814));
#97=EDGE_LOOP('',(#815,#816,#817,#818));
#98=EDGE_LOOP('',(#819,#820,#821,#822));
#99=EDGE_LOOP('',(#823,#824,#825,#826));
#100=EDGE_LOOP('',(#827,#828,#829,#830));
#101=EDGE_LOOP('',(#831,#832,#833,#834));
#102=EDGE_LOOP('',(#835,#836,#837,#838));
#103=EDGE_LOOP('',(#839,#840,#841,#842));
#104=EDGE_LOOP('',(#843,#844,#845,#846));
#105=EDGE_LOOP('',(#847,#848,#849,#850));
#106=EDGE_LOOP('',(#851,#852,#853,#854));
#107=EDGE_LOOP('',(#855,#856,#857,#858));
#108=EDGE_LOOP('',(#859,#860,#861,#862));
#109=EDGE_LOOP('',(#863,#864,#865,#866));
#110=EDGE_LOOP('',(#867,#868,#869,#870));
#111=EDGE_LOOP('',(#871,#872,#873,#874));
#112=EDGE_LOOP('',(#875,#876,#877,#878));
#113=EDGE_LOOP('',(#879,#880,#881,#882));
#114=EDGE_LOOP('',(#883,#884,#885,#886,#887,#888,#889,#890,#891,#892,#893,
#894,#895,#896,#897,#898,#899,#900,#901,#902,#903,#904,#905,#906,#907,#908,
#909,#910,#911,#912,#913,#914,#915,#916,#917,#918,#919,#920,#921,#922,#923,
#924,#925,#926,#927,#928,#929,#930));
#115=LINE('',#1345,#259);
#116=LINE('',#1347,#260);
#117=LINE('',#1349,#261);
#118=LINE('',#1350,#262);
#119=LINE('',#1353,#263);
#120=LINE('',#1355,#264);
#121=LINE('',#1356,#265);
#122=LINE('',#1360,#266);
#123=LINE('',#1362,#267);
#124=LINE('',#1364,#268);
#125=LINE('',#1365,#269);
#126=LINE('',#1368,#270);
#127=LINE('',#1370,#271);
#128=LINE('',#1371,#272);
#129=LINE('',#1374,#273);
#130=LINE('',#1376,#274);
#131=LINE('',#1377,#275);
#132=LINE('',#1381,#276);
#133=LINE('',#1383,#277);
#134=LINE('',#1385,#278);
#135=LINE('',#1386,#279);
#136=LINE('',#1389,#280);
#137=LINE('',#1391,#281);
#138=LINE('',#1392,#282);
#139=LINE('',#1395,#283);
#140=LINE('',#1397,#284);
#141=LINE('',#1398,#285);
#142=LINE('',#1402,#286);
#143=LINE('',#1404,#287);
#144=LINE('',#1406,#288);
#145=LINE('',#1407,#289);
#146=LINE('',#1410,#290);
#147=LINE('',#1412,#291);
#148=LINE('',#1413,#292);
#149=LINE('',#1416,#293);
#150=LINE('',#1418,#294);
#151=LINE('',#1419,#295);
#152=LINE('',#1423,#296);
#153=LINE('',#1425,#297);
#154=LINE('',#1427,#298);
#155=LINE('',#1428,#299);
#156=LINE('',#1431,#300);
#157=LINE('',#1433,#301);
#158=LINE('',#1434,#302);
#159=LINE('',#1437,#303);
#160=LINE('',#1439,#304);
#161=LINE('',#1440,#305);
#162=LINE('',#1444,#306);
#163=LINE('',#1446,#307);
#164=LINE('',#1448,#308);
#165=LINE('',#1449,#309);
#166=LINE('',#1451,#310);
#167=LINE('',#1452,#311);
#168=LINE('',#1453,#312);
#169=LINE('',#1454,#313);
#170=LINE('',#1456,#314);
#171=LINE('',#1458,#315);
#172=LINE('',#1460,#316);
#173=LINE('',#1462,#317);
#174=LINE('',#1464,#318);
#175=LINE('',#1466,#319);
#176=LINE('',#1468,#320);
#177=LINE('',#1470,#321);
#178=LINE('',#1472,#322);
#179=LINE('',#1474,#323);
#180=LINE('',#1476,#324);
#181=LINE('',#1478,#325);
#182=LINE('',#1480,#326);
#183=LINE('',#1482,#327);
#184=LINE('',#1484,#328);
#185=LINE('',#1486,#329);
#186=LINE('',#1488,#330);
#187=LINE('',#1490,#331);
#188=LINE('',#1492,#332);
#189=LINE('',#1494,#333);
#190=LINE('',#1496,#334);
#191=LINE('',#1497,#335);
#192=LINE('',#1499,#336);
#193=LINE('',#1501,#337);
#194=LINE('',#1503,#338);
#195=LINE('',#1505,#339);
#196=LINE('',#1507,#340);
#197=LINE('',#1509,#341);
#198=LINE('',#1510,#342);
#199=LINE('',#1512,#343);
#200=LINE('',#1515,#344);
#201=LINE('',#1516,#345);
#202=LINE('',#1519,#346);
#203=LINE('',#1521,#347);
#204=LINE('',#1522,#348);
#205=LINE('',#1525,#349);
#206=LINE('',#1527,#350);
#207=LINE('',#1528,#351);
#208=LINE('',#1530,#352);
#209=LINE('',#1532,#353);
#210=LINE('',#1535,#354);
#211=LINE('',#1536,#355);
#212=LINE('',#1538,#356);
#213=LINE('',#1541,#357);
#214=LINE('',#1542,#358);
#215=LINE('',#1545,#359);
#216=LINE('',#1547,#360);
#217=LINE('',#1548,#361);
#218=LINE('',#1550,#362);
#219=LINE('',#1553,#363);
#220=LINE('',#1554,#364);
#221=LINE('',#1556,#365);
#222=LINE('',#1559,#366);
#223=LINE('',#1560,#367);
#224=LINE('',#1563,#368);
#225=LINE('',#1565,#369);
#226=LINE('',#1566,#370);
#227=LINE('',#1568,#371);
#228=LINE('',#1571,#372);
#229=LINE('',#1572,#373);
#230=LINE('',#1574,#374);
#231=LINE('',#1577,#375);
#232=LINE('',#1578,#376);
#233=LINE('',#1581,#377);
#234=LINE('',#1583,#378);
#235=LINE('',#1584,#379);
#236=LINE('',#1586,#380);
#237=LINE('',#1589,#381);
#238=LINE('',#1590,#382);
#239=LINE('',#1593,#383);
#240=LINE('',#1594,#384);
#241=LINE('',#1597,#385);
#242=LINE('',#1598,#386);
#243=LINE('',#1601,#387);
#244=LINE('',#1602,#388);
#245=LINE('',#1605,#389);
#246=LINE('',#1606,#390);
#247=LINE('',#1608,#391);
#248=LINE('',#1611,#392);
#249=LINE('',#1613,#393);
#250=LINE('',#1614,#394);
#251=LINE('',#1616,#395);
#252=LINE('',#1619,#396);
#253=LINE('',#1620,#397);
#254=LINE('',#1623,#398);
#255=LINE('',#1624,#399);
#256=LINE('',#1627,#400);
#257=LINE('',#1628,#401);
#258=LINE('',#1630,#402);
#259=VECTOR('',#1099,1.);
#260=VECTOR('',#1100,1.);
#261=VECTOR('',#1101,1.);
#262=VECTOR('',#1102,1.);
#263=VECTOR('',#1105,1.);
#264=VECTOR('',#1106,1.);
#265=VECTOR('',#1107,1.);
#266=VECTOR('',#1110,1.);
#267=VECTOR('',#1111,1.);
#268=VECTOR('',#1112,1.);
#269=VECTOR('',#1113,1.);
#270=VECTOR('',#1116,1.);
#271=VECTOR('',#1117,1.);
#272=VECTOR('',#1118,1.);
#273=VECTOR('',#1121,1.);
#274=VECTOR('',#1122,1.);
#275=VECTOR('',#1123,1.);
#276=VECTOR('',#1126,1.);
#277=VECTOR('',#1127,1.);
#278=VECTOR('',#1128,1.);
#279=VECTOR('',#1129,1.);
#280=VECTOR('',#1132,1.);
#281=VECTOR('',#1133,1.);
#282=VECTOR('',#1134,1.);
#283=VECTOR('',#1137,1.);
#284=VECTOR('',#1138,1.);
#285=VECTOR('',#1139,1.);
#286=VECTOR('',#1142,1.);
#287=VECTOR('',#1143,1.);
#288=VECTOR('',#1144,1.);
#289=VECTOR('',#1145,1.);
#290=VECTOR('',#1148,1.);
#291=VECTOR('',#1149,1.);
#292=VECTOR('',#1150,1.);
#293=VECTOR('',#1153,1.);
#294=VECTOR('',#1154,1.);
#295=VECTOR('',#1155,1.);
#296=VECTOR('',#1158,1.);
#297=VECTOR('',#1159,1.);
#298=VECTOR('',#1160,1.);
#299=VECTOR('',#1161,1.);
#300=VECTOR('',#1164,1.);
#301=VECTOR('',#1165,1.);
#302=VECTOR('',#1166,1.);
#303=VECTOR('',#1169,1.);
#304=VECTOR('',#1170,1.);
#305=VECTOR('',#1171,1.);
#306=VECTOR('',#1174,1.);
#307=VECTOR('',#1175,1.);
#308=VECTOR('',#1176,1.);
#309=VECTOR('',#1177,1.);
#310=VECTOR('',#1180,1.);
#311=VECTOR('',#1181,1.);
#312=VECTOR('',#1182,1.);
#313=VECTOR('',#1183,1.);
#314=VECTOR('',#1184,1.);
#315=VECTOR('',#1185,1.);
#316=VECTOR('',#1186,1.);
#317=VECTOR('',#1187,1.);
#318=VECTOR('',#1188,1.);
#319=VECTOR('',#1189,1.);
#320=VECTOR('',#1190,1.);
#321=VECTOR('',#1191,1.);
#322=VECTOR('',#1192,1.);
#323=VECTOR('',#1193,1.);
#324=VECTOR('',#1194,1.);
#325=VECTOR('',#1195,1.);
#326=VECTOR('',#1196,1.);
#327=VECTOR('',#1197,1.);
#328=VECTOR('',#1198,1.);
#329=VECTOR('',#1199,1.);
#330=VECTOR('',#1200,1.);
#331=VECTOR('',#1201,1.);
#332=VECTOR('',#1202,1.);
#333=VECTOR('',#1203,1.);
#334=VECTOR('',#1204,1.);
#335=VECTOR('',#1205,1.);
#336=VECTOR('',#1206,1.);
#337=VECTOR('',#1207,1.);
#338=VECTOR('',#1208,1.);
#339=VECTOR('',#1209,1.);
#340=VECTOR('',#1210,1.);
#341=VECTOR('',#1211,1.);
#342=VECTOR('',#1212,1.);
#343=VECTOR('',#1215,1.);
#344=VECTOR('',#1218,1.);
#345=VECTOR('',#1219,1.);
#346=VECTOR('',#1222,1.);
#347=VECTOR('',#1223,1.);
#348=VECTOR('',#1224,1.);
#349=VECTOR('',#1227,1.);
#350=VECTOR('',#1228,1.);
#351=VECTOR('',#1229,1.);
#352=VECTOR('',#1232,1.);
#353=VECTOR('',#1235,1.);
#354=VECTOR('',#1238,1.);
#355=VECTOR('',#1239,1.);
#356=VECTOR('',#1242,1.);
#357=VECTOR('',#1245,1.);
#358=VECTOR('',#1246,1.);
#359=VECTOR('',#1249,1.);
#360=VECTOR('',#1250,1.);
#361=VECTOR('',#1251,1.);
#362=VECTOR('',#1254,1.);
#363=VECTOR('',#1257,1.);
#364=VECTOR('',#1258,1.);
#365=VECTOR('',#1261,1.);
#366=VECTOR('',#1264,1.);
#367=VECTOR('',#1265,1.);
#368=VECTOR('',#1268,1.);
#369=VECTOR('',#1269,1.);
#370=VECTOR('',#1270,1.);
#371=VECTOR('',#1273,1.);
#372=VECTOR('',#1276,1.);
#373=VECTOR('',#1277,1.);
#374=VECTOR('',#1280,1.);
#375=VECTOR('',#1283,1.);
#376=VECTOR('',#1284,1.);
#377=VECTOR('',#1287,1.);
#378=VECTOR('',#1288,1.);
#379=VECTOR('',#1289,1.);
#380=VECTOR('',#1292,1.);
#381=VECTOR('',#1295,1.);
#382=VECTOR('',#1296,1.);
#383=VECTOR('',#1299,1.);
#384=VECTOR('',#1300,1.);
#385=VECTOR('',#1303,1.);
#386=VECTOR('',#1304,1.);
#387=VECTOR('',#1307,1.);
#388=VECTOR('',#1308,1.);
#389=VECTOR('',#1311,1.);
#390=VECTOR('',#1312,1.);
#391=VECTOR('',#1315,1.);
#392=VECTOR('',#1318,1.);
#393=VECTOR('',#1319,1.);
#394=VECTOR('',#1320,1.);
#395=VECTOR('',#1323,1.);
#396=VECTOR('',#1326,1.);
#397=VECTOR('',#1327,1.);
#398=VECTOR('',#1330,1.);
#399=VECTOR('',#1331,1.);
#400=VECTOR('',#1334,1.);
#401=VECTOR('',#1335,1.);
#402=VECTOR('',#1338,1.);
#403=VERTEX_POINT('',#1343);
#404=VERTEX_POINT('',#1344);
#405=VERTEX_POINT('',#1346);
#406=VERTEX_POINT('',#1348);
#407=VERTEX_POINT('',#1352);
#408=VERTEX_POINT('',#1354);
#409=VERTEX_POINT('',#1358);
#410=VERTEX_POINT('',#1359);
#411=VERTEX_POINT('',#1361);
#412=VERTEX_POINT('',#1363);
#413=VERTEX_POINT('',#1367);
#414=VERTEX_POINT('',#1369);
#415=VERTEX_POINT('',#1373);
#416=VERTEX_POINT('',#1375);
#417=VERTEX_POINT('',#1379);
#418=VERTEX_POINT('',#1380);
#419=VERTEX_POINT('',#1382);
#420=VERTEX_POINT('',#1384);
#421=VERTEX_POINT('',#1388);
#422=VERTEX_POINT('',#1390);
#423=VERTEX_POINT('',#1394);
#424=VERTEX_POINT('',#1396);
#425=VERTEX_POINT('',#1400);
#426=VERTEX_POINT('',#1401);
#427=VERTEX_POINT('',#1403);
#428=VERTEX_POINT('',#1405);
#429=VERTEX_POINT('',#1409);
#430=VERTEX_POINT('',#1411);
#431=VERTEX_POINT('',#1415);
#432=VERTEX_POINT('',#1417);
#433=VERTEX_POINT('',#1421);
#434=VERTEX_POINT('',#1422);
#435=VERTEX_POINT('',#1424);
#436=VERTEX_POINT('',#1426);
#437=VERTEX_POINT('',#1430);
#438=VERTEX_POINT('',#1432);
#439=VERTEX_POINT('',#1436);
#440=VERTEX_POINT('',#1438);
#441=VERTEX_POINT('',#1442);
#442=VERTEX_POINT('',#1443);
#443=VERTEX_POINT('',#1445);
#444=VERTEX_POINT('',#1447);
#445=VERTEX_POINT('',#1455);
#446=VERTEX_POINT('',#1457);
#447=VERTEX_POINT('',#1459);
#448=VERTEX_POINT('',#1461);
#449=VERTEX_POINT('',#1463);
#450=VERTEX_POINT('',#1465);
#451=VERTEX_POINT('',#1467);
#452=VERTEX_POINT('',#1469);
#453=VERTEX_POINT('',#1471);
#454=VERTEX_POINT('',#1473);
#455=VERTEX_POINT('',#1475);
#456=VERTEX_POINT('',#1477);
#457=VERTEX_POINT('',#1479);
#458=VERTEX_POINT('',#1481);
#459=VERTEX_POINT('',#1483);
#460=VERTEX_POINT('',#1485);
#461=VERTEX_POINT('',#1487);
#462=VERTEX_POINT('',#1489);
#463=VERTEX_POINT('',#1491);
#464=VERTEX_POINT('',#1493);
#465=VERTEX_POINT('',#1495);
#466=VERTEX_POINT('',#1498);
#467=VERTEX_POINT('',#1500);
#468=VERTEX_POINT('',#1502);
#469=VERTEX_POINT('',#1504);
#470=VERTEX_POINT('',#1506);
#471=VERTEX_POINT('',#1508);
#472=VERTEX_POINT('',#1514);
#473=VERTEX_POINT('',#1518);
#474=VERTEX_POINT('',#1520);
#475=VERTEX_POINT('',#1524);
#476=VERTEX_POINT('',#1526);
#477=VERTEX_POINT('',#1534);
#478=VERTEX_POINT('',#1540);
#479=VERTEX_POINT('',#1544);
#480=VERTEX_POINT('',#1546);
#481=VERTEX_POINT('',#1552);
#482=VERTEX_POINT('',#1558);
#483=VERTEX_POINT('',#1562);
#484=VERTEX_POINT('',#1564);
#485=VERTEX_POINT('',#1570);
#486=VERTEX_POINT('',#1576);
#487=VERTEX_POINT('',#1580);
#488=VERTEX_POINT('',#1582);
#489=VERTEX_POINT('',#1588);
#490=VERTEX_POINT('',#1592);
#491=VERTEX_POINT('',#1596);
#492=VERTEX_POINT('',#1600);
#493=VERTEX_POINT('',#1604);
#494=VERTEX_POINT('',#1610);
#495=VERTEX_POINT('',#1612);
#496=VERTEX_POINT('',#1618);
#497=VERTEX_POINT('',#1622);
#498=VERTEX_POINT('',#1626);
#499=EDGE_CURVE('',#403,#404,#115,.T.);
#500=EDGE_CURVE('',#404,#405,#116,.T.);
#501=EDGE_CURVE('',#406,#405,#117,.T.);
#502=EDGE_CURVE('',#403,#406,#118,.T.);
#503=EDGE_CURVE('',#404,#407,#119,.T.);
#504=EDGE_CURVE('',#408,#407,#120,.T.);
#505=EDGE_CURVE('',#405,#408,#121,.T.);
#506=EDGE_CURVE('',#409,#410,#122,.T.);
#507=EDGE_CURVE('',#410,#411,#123,.T.);
#508=EDGE_CURVE('',#412,#411,#124,.T.);
#509=EDGE_CURVE('',#409,#412,#125,.T.);
#510=EDGE_CURVE('',#410,#413,#126,.T.);
#511=EDGE_CURVE('',#413,#414,#127,.T.);
#512=EDGE_CURVE('',#411,#414,#128,.T.);
#513=EDGE_CURVE('',#413,#415,#129,.T.);
#514=EDGE_CURVE('',#416,#415,#130,.T.);
#515=EDGE_CURVE('',#414,#416,#131,.T.);
#516=EDGE_CURVE('',#417,#418,#132,.T.);
#517=EDGE_CURVE('',#418,#419,#133,.T.);
#518=EDGE_CURVE('',#420,#419,#134,.T.);
#519=EDGE_CURVE('',#417,#420,#135,.T.);
#520=EDGE_CURVE('',#418,#421,#136,.T.);
#521=EDGE_CURVE('',#421,#422,#137,.T.);
#522=EDGE_CURVE('',#419,#422,#138,.T.);
#523=EDGE_CURVE('',#421,#423,#139,.T.);
#524=EDGE_CURVE('',#424,#423,#140,.T.);
#525=EDGE_CURVE('',#422,#424,#141,.T.);
#526=EDGE_CURVE('',#425,#426,#142,.T.);
#527=EDGE_CURVE('',#426,#427,#143,.T.);
#528=EDGE_CURVE('',#428,#427,#144,.T.);
#529=EDGE_CURVE('',#425,#428,#145,.T.);
#530=EDGE_CURVE('',#426,#429,#146,.T.);
#531=EDGE_CURVE('',#429,#430,#147,.T.);
#532=EDGE_CURVE('',#427,#430,#148,.T.);
#533=EDGE_CURVE('',#429,#431,#149,.T.);
#534=EDGE_CURVE('',#432,#431,#150,.T.);
#535=EDGE_CURVE('',#430,#432,#151,.T.);
#536=EDGE_CURVE('',#433,#434,#152,.T.);
#537=EDGE_CURVE('',#434,#435,#153,.T.);
#538=EDGE_CURVE('',#436,#435,#154,.T.);
#539=EDGE_CURVE('',#433,#436,#155,.T.);
#540=EDGE_CURVE('',#434,#437,#156,.T.);
#541=EDGE_CURVE('',#437,#438,#157,.T.);
#542=EDGE_CURVE('',#435,#438,#158,.T.);
#543=EDGE_CURVE('',#437,#439,#159,.T.);
#544=EDGE_CURVE('',#440,#439,#160,.T.);
#545=EDGE_CURVE('',#438,#440,#161,.T.);
#546=EDGE_CURVE('',#441,#442,#162,.T.);
#547=EDGE_CURVE('',#443,#442,#163,.T.);
#548=EDGE_CURVE('',#444,#443,#164,.T.);
#549=EDGE_CURVE('',#441,#444,#165,.T.);
#550=EDGE_CURVE('',#431,#433,#166,.T.);
#551=EDGE_CURVE('',#423,#425,#167,.T.);
#552=EDGE_CURVE('',#415,#417,#168,.T.);
#553=EDGE_CURVE('',#407,#409,#169,.T.);
#554=EDGE_CURVE('',#445,#403,#170,.T.);
#555=EDGE_CURVE('',#446,#445,#171,.T.);
#556=EDGE_CURVE('',#447,#446,#172,.T.);
#557=EDGE_CURVE('',#448,#447,#173,.T.);
#558=EDGE_CURVE('',#449,#448,#174,.T.);
#559=EDGE_CURVE('',#450,#449,#175,.T.);
#560=EDGE_CURVE('',#451,#450,#176,.T.);
#561=EDGE_CURVE('',#452,#451,#177,.T.);
#562=EDGE_CURVE('',#453,#452,#178,.T.);
#563=EDGE_CURVE('',#454,#453,#179,.T.);
#564=EDGE_CURVE('',#455,#454,#180,.T.);
#565=EDGE_CURVE('',#456,#455,#181,.T.);
#566=EDGE_CURVE('',#457,#456,#182,.T.);
#567=EDGE_CURVE('',#458,#457,#183,.T.);
#568=EDGE_CURVE('',#459,#458,#184,.T.);
#569=EDGE_CURVE('',#460,#459,#185,.T.);
#570=EDGE_CURVE('',#461,#460,#186,.T.);
#571=EDGE_CURVE('',#462,#461,#187,.T.);
#572=EDGE_CURVE('',#463,#462,#188,.T.);
#573=EDGE_CURVE('',#464,#463,#189,.T.);
#574=EDGE_CURVE('',#465,#464,#190,.T.);
#575=EDGE_CURVE('',#442,#465,#191,.T.);
#576=EDGE_CURVE('',#466,#441,#192,.T.);
#577=EDGE_CURVE('',#467,#466,#193,.T.);
#578=EDGE_CURVE('',#468,#467,#194,.T.);
#579=EDGE_CURVE('',#469,#468,#195,.T.);
#580=EDGE_CURVE('',#470,#469,#196,.T.);
#581=EDGE_CURVE('',#471,#470,#197,.T.);
#582=EDGE_CURVE('',#439,#471,#198,.T.);
#583=EDGE_CURVE('',#432,#436,#199,.T.);
#584=EDGE_CURVE('',#471,#472,#200,.T.);
#585=EDGE_CURVE('',#440,#472,#201,.T.);
#586=EDGE_CURVE('',#464,#473,#202,.T.);
#587=EDGE_CURVE('',#474,#473,#203,.T.);
#588=EDGE_CURVE('',#465,#474,#204,.T.);
#589=EDGE_CURVE('',#475,#462,#205,.T.);
#590=EDGE_CURVE('',#476,#475,#206,.T.);
#591=EDGE_CURVE('',#463,#476,#207,.T.);
#592=EDGE_CURVE('',#473,#476,#208,.T.);
#593=EDGE_CURVE('',#443,#474,#209,.T.);
#594=EDGE_CURVE('',#461,#477,#210,.T.);
#595=EDGE_CURVE('',#475,#477,#211,.T.);
#596=EDGE_CURVE('',#424,#428,#212,.T.);
#597=EDGE_CURVE('',#460,#478,#213,.T.);
#598=EDGE_CURVE('',#477,#478,#214,.T.);
#599=EDGE_CURVE('',#479,#458,#215,.T.);
#600=EDGE_CURVE('',#480,#479,#216,.T.);
#601=EDGE_CURVE('',#459,#480,#217,.T.);
#602=EDGE_CURVE('',#478,#480,#218,.T.);
#603=EDGE_CURVE('',#457,#481,#219,.T.);
#604=EDGE_CURVE('',#479,#481,#220,.T.);
#605=EDGE_CURVE('',#416,#420,#221,.T.);
#606=EDGE_CURVE('',#456,#482,#222,.T.);
#607=EDGE_CURVE('',#481,#482,#223,.T.);
#608=EDGE_CURVE('',#483,#454,#224,.T.);
#609=EDGE_CURVE('',#484,#483,#225,.T.);
#610=EDGE_CURVE('',#455,#484,#226,.T.);
#611=EDGE_CURVE('',#482,#484,#227,.T.);
#612=EDGE_CURVE('',#453,#485,#228,.T.);
#613=EDGE_CURVE('',#483,#485,#229,.T.);
#614=EDGE_CURVE('',#408,#412,#230,.T.);
#615=EDGE_CURVE('',#452,#486,#231,.T.);
#616=EDGE_CURVE('',#485,#486,#232,.T.);
#617=EDGE_CURVE('',#487,#450,#233,.T.);
#618=EDGE_CURVE('',#488,#487,#234,.T.);
#619=EDGE_CURVE('',#451,#488,#235,.T.);
#620=EDGE_CURVE('',#486,#488,#236,.T.);
#621=EDGE_CURVE('',#449,#489,#237,.T.);
#622=EDGE_CURVE('',#487,#489,#238,.T.);
#623=EDGE_CURVE('',#490,#406,#239,.T.);
#624=EDGE_CURVE('',#445,#490,#240,.T.);
#625=EDGE_CURVE('',#491,#490,#241,.T.);
#626=EDGE_CURVE('',#491,#446,#242,.T.);
#627=EDGE_CURVE('',#448,#492,#243,.T.);
#628=EDGE_CURVE('',#489,#492,#244,.T.);
#629=EDGE_CURVE('',#493,#491,#245,.T.);
#630=EDGE_CURVE('',#447,#493,#246,.T.);
#631=EDGE_CURVE('',#492,#493,#247,.T.);
#632=EDGE_CURVE('',#466,#494,#248,.T.);
#633=EDGE_CURVE('',#495,#494,#249,.T.);
#634=EDGE_CURVE('',#467,#495,#250,.T.);
#635=EDGE_CURVE('',#494,#444,#251,.T.);
#636=EDGE_CURVE('',#496,#495,#252,.T.);
#637=EDGE_CURVE('',#468,#496,#253,.T.);
#638=EDGE_CURVE('',#470,#497,#254,.T.);
#639=EDGE_CURVE('',#472,#497,#255,.T.);
#640=EDGE_CURVE('',#469,#498,#256,.T.);
#641=EDGE_CURVE('',#497,#498,#257,.T.);
#642=EDGE_CURVE('',#498,#496,#258,.T.);
#643=ORIENTED_EDGE('',*,*,#499,.T.);
#644=ORIENTED_EDGE('',*,*,#500,.T.);
#645=ORIENTED_EDGE('',*,*,#501,.F.);
#646=ORIENTED_EDGE('',*,*,#502,.F.);
#647=ORIENTED_EDGE('',*,*,#503,.T.);
#648=ORIENTED_EDGE('',*,*,#504,.F.);
#649=ORIENTED_EDGE('',*,*,#505,.F.);
#650=ORIENTED_EDGE('',*,*,#500,.F.);
#651=ORIENTED_EDGE('',*,*,#506,.T.);
#652=ORIENTED_EDGE('',*,*,#507,.T.);
#653=ORIENTED_EDGE('',*,*,#508,.F.);
#654=ORIENTED_EDGE('',*,*,#509,.F.);
#655=ORIENTED_EDGE('',*,*,#510,.T.);
#656=ORIENTED_EDGE('',*,*,#511,.T.);
#657=ORIENTED_EDGE('',*,*,#512,.F.);
#658=ORIENTED_EDGE('',*,*,#507,.F.);
#659=ORIENTED_EDGE('',*,*,#513,.T.);
#660=ORIENTED_EDGE('',*,*,#514,.F.);
#661=ORIENTED_EDGE('',*,*,#515,.F.);
#662=ORIENTED_EDGE('',*,*,#511,.F.);
#663=ORIENTED_EDGE('',*,*,#516,.T.);
#664=ORIENTED_EDGE('',*,*,#517,.T.);
#665=ORIENTED_EDGE('',*,*,#518,.F.);
#666=ORIENTED_EDGE('',*,*,#519,.F.);
#667=ORIENTED_EDGE('',*,*,#520,.T.);
#668=ORIENTED_EDGE('',*,*,#521,.T.);
#669=ORIENTED_EDGE('',*,*,#522,.F.);
#670=ORIENTED_EDGE('',*,*,#517,.F.);
#671=ORIENTED_EDGE('',*,*,#523,.T.);
#672=ORIENTED_EDGE('',*,*,#524,.F.);
#673=ORIENTED_EDGE('',*,*,#525,.F.);
#674=ORIENTED_EDGE('',*,*,#521,.F.);
#675=ORIENTED_EDGE('',*,*,#526,.T.);
#676=ORIENTED_EDGE('',*,*,#527,.T.);
#677=ORIENTED_EDGE('',*,*,#528,.F.);
#678=ORIENTED_EDGE('',*,*,#529,.F.);
#679=ORIENTED_EDGE('',*,*,#530,.T.);
#680=ORIENTED_EDGE('',*,*,#531,.T.);
#681=ORIENTED_EDGE('',*,*,#532,.F.);
#682=ORIENTED_EDGE('',*,*,#527,.F.);
#683=ORIENTED_EDGE('',*,*,#533,.T.);
#684=ORIENTED_EDGE('',*,*,#534,.F.);
#685=ORIENTED_EDGE('',*,*,#535,.F.);
#686=ORIENTED_EDGE('',*,*,#531,.F.);
#687=ORIENTED_EDGE('',*,*,#536,.T.);
#688=ORIENTED_EDGE('',*,*,#537,.T.);
#689=ORIENTED_EDGE('',*,*,#538,.F.);
#690=ORIENTED_EDGE('',*,*,#539,.F.);
#691=ORIENTED_EDGE('',*,*,#540,.T.);
#692=ORIENTED_EDGE('',*,*,#541,.T.);
#693=ORIENTED_EDGE('',*,*,#542,.F.);
#694=ORIENTED_EDGE('',*,*,#537,.F.);
#695=ORIENTED_EDGE('',*,*,#543,.T.);
#696=ORIENTED_EDGE('',*,*,#544,.F.);
#697=ORIENTED_EDGE('',*,*,#545,.F.);
#698=ORIENTED_EDGE('',*,*,#541,.F.);
#699=ORIENTED_EDGE('',*,*,#546,.T.);
#700=ORIENTED_EDGE('',*,*,#547,.F.);
#701=ORIENTED_EDGE('',*,*,#548,.F.);
#702=ORIENTED_EDGE('',*,*,#549,.F.);
#703=ORIENTED_EDGE('',*,*,#550,.F.);
#704=ORIENTED_EDGE('',*,*,#533,.F.);
#705=ORIENTED_EDGE('',*,*,#530,.F.);
#706=ORIENTED_EDGE('',*,*,#526,.F.);
#707=ORIENTED_EDGE('',*,*,#551,.F.);
#708=ORIENTED_EDGE('',*,*,#523,.F.);
#709=ORIENTED_EDGE('',*,*,#520,.F.);
#710=ORIENTED_EDGE('',*,*,#516,.F.);
#711=ORIENTED_EDGE('',*,*,#552,.F.);
#712=ORIENTED_EDGE('',*,*,#513,.F.);
#713=ORIENTED_EDGE('',*,*,#510,.F.);
#714=ORIENTED_EDGE('',*,*,#506,.F.);
#715=ORIENTED_EDGE('',*,*,#553,.F.);
#716=ORIENTED_EDGE('',*,*,#503,.F.);
#717=ORIENTED_EDGE('',*,*,#499,.F.);
#718=ORIENTED_EDGE('',*,*,#554,.F.);
#719=ORIENTED_EDGE('',*,*,#555,.F.);
#720=ORIENTED_EDGE('',*,*,#556,.F.);
#721=ORIENTED_EDGE('',*,*,#557,.F.);
#722=ORIENTED_EDGE('',*,*,#558,.F.);
#723=ORIENTED_EDGE('',*,*,#559,.F.);
#724=ORIENTED_EDGE('',*,*,#560,.F.);
#725=ORIENTED_EDGE('',*,*,#561,.F.);
#726=ORIENTED_EDGE('',*,*,#562,.F.);
#727=ORIENTED_EDGE('',*,*,#563,.F.);
#728=ORIENTED_EDGE('',*,*,#564,.F.);
#729=ORIENTED_EDGE('',*,*,#565,.F.);
#730=ORIENTED_EDGE('',*,*,#566,.F.);
#731=ORIENTED_EDGE('',*,*,#567,.F.);
#732=ORIENTED_EDGE('',*,*,#568,.F.);
#733=ORIENTED_EDGE('',*,*,#569,.F.);
#734=ORIENTED_EDGE('',*,*,#570,.F.);
#735=ORIENTED_EDGE('',*,*,#571,.F.);
#736=ORIENTED_EDGE('',*,*,#572,.F.);
#737=ORIENTED_EDGE('',*,*,#573,.F.);
#738=ORIENTED_EDGE('',*,*,#574,.F.);
#739=ORIENTED_EDGE('',*,*,#575,.F.);
#740=ORIENTED_EDGE('',*,*,#546,.F.);
#741=ORIENTED_EDGE('',*,*,#576,.F.);
#742=ORIENTED_EDGE('',*,*,#577,.F.);
#743=ORIENTED_EDGE('',*,*,#578,.F.);
#744=ORIENTED_EDGE('',*,*,#579,.F.);
#745=ORIENTED_EDGE('',*,*,#580,.F.);
#746=ORIENTED_EDGE('',*,*,#581,.F.);
#747=ORIENTED_EDGE('',*,*,#582,.F.);
#748=ORIENTED_EDGE('',*,*,#543,.F.);
#749=ORIENTED_EDGE('',*,*,#540,.F.);
#750=ORIENTED_EDGE('',*,*,#536,.F.);
#751=ORIENTED_EDGE('',*,*,#539,.T.);
#752=ORIENTED_EDGE('',*,*,#583,.F.);
#753=ORIENTED_EDGE('',*,*,#534,.T.);
#754=ORIENTED_EDGE('',*,*,#550,.T.);
#755=ORIENTED_EDGE('',*,*,#544,.T.);
#756=ORIENTED_EDGE('',*,*,#582,.T.);
#757=ORIENTED_EDGE('',*,*,#584,.T.);
#758=ORIENTED_EDGE('',*,*,#585,.F.);
#759=ORIENTED_EDGE('',*,*,#574,.T.);
#760=ORIENTED_EDGE('',*,*,#586,.T.);
#761=ORIENTED_EDGE('',*,*,#587,.F.);
#762=ORIENTED_EDGE('',*,*,#588,.F.);
#763=ORIENTED_EDGE('',*,*,#572,.T.);
#764=ORIENTED_EDGE('',*,*,#589,.F.);
#765=ORIENTED_EDGE('',*,*,#590,.F.);
#766=ORIENTED_EDGE('',*,*,#591,.F.);
#767=ORIENTED_EDGE('',*,*,#573,.T.);
#768=ORIENTED_EDGE('',*,*,#591,.T.);
#769=ORIENTED_EDGE('',*,*,#592,.F.);
#770=ORIENTED_EDGE('',*,*,#586,.F.);
#771=ORIENTED_EDGE('',*,*,#588,.T.);
#772=ORIENTED_EDGE('',*,*,#593,.F.);
#773=ORIENTED_EDGE('',*,*,#547,.T.);
#774=ORIENTED_EDGE('',*,*,#575,.T.);
#775=ORIENTED_EDGE('',*,*,#589,.T.);
#776=ORIENTED_EDGE('',*,*,#571,.T.);
#777=ORIENTED_EDGE('',*,*,#594,.T.);
#778=ORIENTED_EDGE('',*,*,#595,.F.);
#779=ORIENTED_EDGE('',*,*,#529,.T.);
#780=ORIENTED_EDGE('',*,*,#596,.F.);
#781=ORIENTED_EDGE('',*,*,#524,.T.);
#782=ORIENTED_EDGE('',*,*,#551,.T.);
#783=ORIENTED_EDGE('',*,*,#570,.T.);
#784=ORIENTED_EDGE('',*,*,#597,.T.);
#785=ORIENTED_EDGE('',*,*,#598,.F.);
#786=ORIENTED_EDGE('',*,*,#594,.F.);
#787=ORIENTED_EDGE('',*,*,#568,.T.);
#788=ORIENTED_EDGE('',*,*,#599,.F.);
#789=ORIENTED_EDGE('',*,*,#600,.F.);
#790=ORIENTED_EDGE('',*,*,#601,.F.);
#791=ORIENTED_EDGE('',*,*,#569,.T.);
#792=ORIENTED_EDGE('',*,*,#601,.T.);
#793=ORIENTED_EDGE('',*,*,#602,.F.);
#794=ORIENTED_EDGE('',*,*,#597,.F.);
#795=ORIENTED_EDGE('',*,*,#599,.T.);
#796=ORIENTED_EDGE('',*,*,#567,.T.);
#797=ORIENTED_EDGE('',*,*,#603,.T.);
#798=ORIENTED_EDGE('',*,*,#604,.F.);
#799=ORIENTED_EDGE('',*,*,#519,.T.);
#800=ORIENTED_EDGE('',*,*,#605,.F.);
#801=ORIENTED_EDGE('',*,*,#514,.T.);
#802=ORIENTED_EDGE('',*,*,#552,.T.);
#803=ORIENTED_EDGE('',*,*,#566,.T.);
#804=ORIENTED_EDGE('',*,*,#606,.T.);
#805=ORIENTED_EDGE('',*,*,#607,.F.);
#806=ORIENTED_EDGE('',*,*,#603,.F.);
#807=ORIENTED_EDGE('',*,*,#564,.T.);
#808=ORIENTED_EDGE('',*,*,#608,.F.);
#809=ORIENTED_EDGE('',*,*,#609,.F.);
#810=ORIENTED_EDGE('',*,*,#610,.F.);
#811=ORIENTED_EDGE('',*,*,#565,.T.);
#812=ORIENTED_EDGE('',*,*,#610,.T.);
#813=ORIENTED_EDGE('',*,*,#611,.F.);
#814=ORIENTED_EDGE('',*,*,#606,.F.);
#815=ORIENTED_EDGE('',*,*,#608,.T.);
#816=ORIENTED_EDGE('',*,*,#563,.T.);
#817=ORIENTED_EDGE('',*,*,#612,.T.);
#818=ORIENTED_EDGE('',*,*,#613,.F.);
#819=ORIENTED_EDGE('',*,*,#509,.T.);
#820=ORIENTED_EDGE('',*,*,#614,.F.);
#821=ORIENTED_EDGE('',*,*,#504,.T.);
#822=ORIENTED_EDGE('',*,*,#553,.T.);
#823=ORIENTED_EDGE('',*,*,#562,.T.);
#824=ORIENTED_EDGE('',*,*,#615,.T.);
#825=ORIENTED_EDGE('',*,*,#616,.F.);
#826=ORIENTED_EDGE('',*,*,#612,.F.);
#827=ORIENTED_EDGE('',*,*,#560,.T.);
#828=ORIENTED_EDGE('',*,*,#617,.F.);
#829=ORIENTED_EDGE('',*,*,#618,.F.);
#830=ORIENTED_EDGE('',*,*,#619,.F.);
#831=ORIENTED_EDGE('',*,*,#561,.T.);
#832=ORIENTED_EDGE('',*,*,#619,.T.);
#833=ORIENTED_EDGE('',*,*,#620,.F.);
#834=ORIENTED_EDGE('',*,*,#615,.F.);
#835=ORIENTED_EDGE('',*,*,#617,.T.);
#836=ORIENTED_EDGE('',*,*,#559,.T.);
#837=ORIENTED_EDGE('',*,*,#621,.T.);
#838=ORIENTED_EDGE('',*,*,#622,.F.);
#839=ORIENTED_EDGE('',*,*,#554,.T.);
#840=ORIENTED_EDGE('',*,*,#502,.T.);
#841=ORIENTED_EDGE('',*,*,#623,.F.);
#842=ORIENTED_EDGE('',*,*,#624,.F.);
#843=ORIENTED_EDGE('',*,*,#624,.T.);
#844=ORIENTED_EDGE('',*,*,#625,.F.);
#845=ORIENTED_EDGE('',*,*,#626,.T.);
#846=ORIENTED_EDGE('',*,*,#555,.T.);
#847=ORIENTED_EDGE('',*,*,#558,.T.);
#848=ORIENTED_EDGE('',*,*,#627,.T.);
#849=ORIENTED_EDGE('',*,*,#628,.F.);
#850=ORIENTED_EDGE('',*,*,#621,.F.);
#851=ORIENTED_EDGE('',*,*,#556,.T.);
#852=ORIENTED_EDGE('',*,*,#626,.F.);
#853=ORIENTED_EDGE('',*,*,#629,.F.);
#854=ORIENTED_EDGE('',*,*,#630,.F.);
#855=ORIENTED_EDGE('',*,*,#557,.T.);
#856=ORIENTED_EDGE('',*,*,#630,.T.);
#857=ORIENTED_EDGE('',*,*,#631,.F.);
#858=ORIENTED_EDGE('',*,*,#627,.F.);
#859=ORIENTED_EDGE('',*,*,#577,.T.);
#860=ORIENTED_EDGE('',*,*,#632,.T.);
#861=ORIENTED_EDGE('',*,*,#633,.F.);
#862=ORIENTED_EDGE('',*,*,#634,.F.);
#863=ORIENTED_EDGE('',*,*,#576,.T.);
#864=ORIENTED_EDGE('',*,*,#549,.T.);
#865=ORIENTED_EDGE('',*,*,#635,.F.);
#866=ORIENTED_EDGE('',*,*,#632,.F.);
#867=ORIENTED_EDGE('',*,*,#634,.T.);
#868=ORIENTED_EDGE('',*,*,#636,.F.);
#869=ORIENTED_EDGE('',*,*,#637,.F.);
#870=ORIENTED_EDGE('',*,*,#578,.T.);
#871=ORIENTED_EDGE('',*,*,#581,.T.);
#872=ORIENTED_EDGE('',*,*,#638,.T.);
#873=ORIENTED_EDGE('',*,*,#639,.F.);
#874=ORIENTED_EDGE('',*,*,#584,.F.);
#875=ORIENTED_EDGE('',*,*,#580,.T.);
#876=ORIENTED_EDGE('',*,*,#640,.T.);
#877=ORIENTED_EDGE('',*,*,#641,.F.);
#878=ORIENTED_EDGE('',*,*,#638,.F.);
#879=ORIENTED_EDGE('',*,*,#579,.T.);
#880=ORIENTED_EDGE('',*,*,#637,.T.);
#881=ORIENTED_EDGE('',*,*,#642,.F.);
#882=ORIENTED_EDGE('',*,*,#640,.F.);
#883=ORIENTED_EDGE('',*,*,#585,.T.);
#884=ORIENTED_EDGE('',*,*,#639,.T.);
#885=ORIENTED_EDGE('',*,*,#641,.T.);
#886=ORIENTED_EDGE('',*,*,#642,.T.);
#887=ORIENTED_EDGE('',*,*,#636,.T.);
#888=ORIENTED_EDGE('',*,*,#633,.T.);
#889=ORIENTED_EDGE('',*,*,#635,.T.);
#890=ORIENTED_EDGE('',*,*,#548,.T.);
#891=ORIENTED_EDGE('',*,*,#593,.T.);
#892=ORIENTED_EDGE('',*,*,#587,.T.);
#893=ORIENTED_EDGE('',*,*,#592,.T.);
#894=ORIENTED_EDGE('',*,*,#590,.T.);
#895=ORIENTED_EDGE('',*,*,#595,.T.);
#896=ORIENTED_EDGE('',*,*,#598,.T.);
#897=ORIENTED_EDGE('',*,*,#602,.T.);
#898=ORIENTED_EDGE('',*,*,#600,.T.);
#899=ORIENTED_EDGE('',*,*,#604,.T.);
#900=ORIENTED_EDGE('',*,*,#607,.T.);
#901=ORIENTED_EDGE('',*,*,#611,.T.);
#902=ORIENTED_EDGE('',*,*,#609,.T.);
#903=ORIENTED_EDGE('',*,*,#613,.T.);
#904=ORIENTED_EDGE('',*,*,#616,.T.);
#905=ORIENTED_EDGE('',*,*,#620,.T.);
#906=ORIENTED_EDGE('',*,*,#618,.T.);
#907=ORIENTED_EDGE('',*,*,#622,.T.);
#908=ORIENTED_EDGE('',*,*,#628,.T.);
#909=ORIENTED_EDGE('',*,*,#631,.T.);
#910=ORIENTED_EDGE('',*,*,#629,.T.);
#911=ORIENTED_EDGE('',*,*,#625,.T.);
#912=ORIENTED_EDGE('',*,*,#623,.T.);
#913=ORIENTED_EDGE('',*,*,#501,.T.);
#914=ORIENTED_EDGE('',*,*,#505,.T.);
#915=ORIENTED_EDGE('',*,*,#614,.T.);
#916=ORIENTED_EDGE('',*,*,#508,.T.);
#917=ORIENTED_EDGE('',*,*,#512,.T.);
#918=ORIENTED_EDGE('',*,*,#515,.T.);
#919=ORIENTED_EDGE('',*,*,#605,.T.);
#920=ORIENTED_EDGE('',*,*,#518,.T.);
#921=ORIENTED_EDGE('',*,*,#522,.T.);
#922=ORIENTED_EDGE('',*,*,#525,.T.);
#923=ORIENTED_EDGE('',*,*,#596,.T.);
#924=ORIENTED_EDGE('',*,*,#528,.T.);
#925=ORIENTED_EDGE('',*,*,#532,.T.);
#926=ORIENTED_EDGE('',*,*,#535,.T.);
#927=ORIENTED_EDGE('',*,*,#583,.T.);
#928=ORIENTED_EDGE('',*,*,#538,.T.);
#929=ORIENTED_EDGE('',*,*,#542,.T.);
#930=ORIENTED_EDGE('',*,*,#545,.T.);
#931=PLANE('',#1045);
#932=PLANE('',#1046);
#933=PLANE('',#1047);
#934=PLANE('',#1048);
#935=PLANE('',#1049);
#936=PLANE('',#1050);
#937=PLANE('',#1051);
#938=PLANE('',#1052);
#939=PLANE('',#1053);
#940=PLANE('',#1054);
#941=PLANE('',#1055);
#942=PLANE('',#1056);
#943=PLANE('',#1057);
#944=PLANE('',#1058);
#945=PLANE('',#1059);
#946=PLANE('',#1060);
#947=PLANE('',#1061);
#948=PLANE('',#1062);
#949=PLANE('',#1063);
#950=PLANE('',#1064);
#951=PLANE('',#1065);
#952=PLANE('',#1066);
#953=PLANE('',#1067);
#954=PLANE('',#1068);
#955=PLANE('',#1069);
#956=PLANE('',#1070);
#957=PLANE('',#1071);
#958=PLANE('',#1072);
#959=PLANE('',#1073);
#960=PLANE('',#1074);
#961=PLANE('',#1075);
#962=PLANE('',#1076);
#963=PLANE('',#1077);
#964=PLANE('',#1078);
#965=PLANE('',#1079);
#966=PLANE('',#1080);
#967=PLANE('',#1081);
#968=PLANE('',#1082);
#969=PLANE('',#1083);
#970=PLANE('',#1084);
#971=PLANE('',#1085);
#972=PLANE('',#1086);
#973=PLANE('',#1087);
#974=PLANE('',#1088);
#975=PLANE('',#1089);
#976=PLANE('',#1090);
#977=PLANE('',#1091);
#978=PLANE('',#1092);
#979=PLANE('',#1093);
#980=PLANE('',#1094);
#981=ADVANCED_FACE('',(#15),#931,.T.);
#982=ADVANCED_FACE('',(#16),#932,.T.);
#983=ADVANCED_FACE('',(#17),#933,.T.);
#984=ADVANCED_FACE('',(#18),#934,.T.);
#985=ADVANCED_FACE('',(#19),#935,.T.);
#986=ADVANCED_FACE('',(#20),#936,.T.);
#987=ADVANCED_FACE('',(#21),#937,.T.);
#988=ADVANCED_FACE('',(#22),#938,.T.);
#989=ADVANCED_FACE('',(#23),#939,.T.);
#990=ADVANCED_FACE('',(#24),#940,.T.);
#991=ADVANCED_FACE('',(#25),#941,.T.);
#992=ADVANCED_FACE('',(#26),#942,.T.);
#993=ADVANCED_FACE('',(#27),#943,.T.);
#994=ADVANCED_FACE('',(#28),#944,.T.);
#995=ADVANCED_FACE('',(#29),#945,.T.);
#996=ADVANCED_FACE('',(#30),#946,.F.);
#997=ADVANCED_FACE('',(#31),#947,.T.);
#998=ADVANCED_FACE('',(#32),#948,.T.);
#999=ADVANCED_FACE('',(#33),#949,.T.);
#1000=ADVANCED_FACE('',(#34),#950,.T.);
#1001=ADVANCED_FACE('',(#35),#951,.T.);
#1002=ADVANCED_FACE('',(#36),#952,.T.);
#1003=ADVANCED_FACE('',(#37),#953,.T.);
#1004=ADVANCED_FACE('',(#38),#954,.T.);
#1005=ADVANCED_FACE('',(#39),#955,.T.);
#1006=ADVANCED_FACE('',(#40),#956,.T.);
#1007=ADVANCED_FACE('',(#41),#957,.T.);
#1008=ADVANCED_FACE('',(#42),#958,.T.);
#1009=ADVANCED_FACE('',(#43),#959,.T.);
#1010=ADVANCED_FACE('',(#44),#960,.T.);
#1011=ADVANCED_FACE('',(#45),#961,.T.);
#1012=ADVANCED_FACE('',(#46),#962,.T.);
#1013=ADVANCED_FACE('',(#47),#963,.T.);
#1014=ADVANCED_FACE('',(#48),#964,.T.);
#1015=ADVANCED_FACE('',(#49),#965,.T.);
#1016=ADVANCED_FACE('',(#50),#966,.T.);
#1017=ADVANCED_FACE('',(#51),#967,.T.);
#1018=ADVANCED_FACE('',(#52),#968,.T.);
#1019=ADVANCED_FACE('',(#53),#969,.T.);
#1020=ADVANCED_FACE('',(#54),#970,.T.);
#1021=ADVANCED_FACE('',(#55),#971,.T.);
#1022=ADVANCED_FACE('',(#56),#972,.T.);
#1023=ADVANCED_FACE('',(#57),#973,.T.);
#1024=ADVANCED_FACE('',(#58),#974,.T.);
#1025=ADVANCED_FACE('',(#59),#975,.T.);
#1026=ADVANCED_FACE('',(#60),#976,.T.);
#1027=ADVANCED_FACE('',(#61),#977,.T.);
#1028=ADVANCED_FACE('',(#62),#978,.T.);
#1029=ADVANCED_FACE('',(#63),#979,.T.);
#1030=ADVANCED_FACE('',(#64),#980,.T.);
#1031=CLOSED_SHELL('',(#981,#982,#983,#984,#985,#986,#987,#988,#989,#990,
#991,#992,#993,#994,#995,#996,#997,#998,#999,#1000,#1001,#1002,#1003,#1004,
#1005,#1006,#1007,#1008,#1009,#1010,#1011,#1012,#1013,#1014,#1015,#1016,
#1017,#1018,#1019,#1020,#1021,#1022,#1023,#1024,#1025,#1026,#1027,#1028,
#1029,#1030));
#1032=DERIVED_UNIT_ELEMENT(#1034,1.);
#1033=DERIVED_UNIT_ELEMENT(#1637,-3.);
#1034=(
MASS_UNIT()
NAMED_UNIT(*)
SI_UNIT(.KILO.,.GRAM.)
);
#1035=DERIVED_UNIT((#1032,#1033));
#1036=MEASURE_REPRESENTATION_ITEM('density measure',
POSITIVE_RATIO_MEASURE(7850.),#1035);
#1037=PROPERTY_DEFINITION_REPRESENTATION(#1042,#1039);
#1038=PROPERTY_DEFINITION_REPRESENTATION(#1043,#1040);
#1039=REPRESENTATION('material name',(#1041),#1634);
#1040=REPRESENTATION('density',(#1036),#1634);
#1041=DESCRIPTIVE_REPRESENTATION_ITEM('\X2\94A2\X0\','\X2\94A2\X0\');
#1042=PROPERTY_DEFINITION('material property','material name',#1644);
#1043=PROPERTY_DEFINITION('material property','density of part',#1644);
#1044=AXIS2_PLACEMENT_3D('',#1341,#1095,#1096);
#1045=AXIS2_PLACEMENT_3D('',#1342,#1097,#1098);
#1046=AXIS2_PLACEMENT_3D('',#1351,#1103,#1104);
#1047=AXIS2_PLACEMENT_3D('',#1357,#1108,#1109);
#1048=AXIS2_PLACEMENT_3D('',#1366,#1114,#1115);
#1049=AXIS2_PLACEMENT_3D('',#1372,#1119,#1120);
#1050=AXIS2_PLACEMENT_3D('',#1378,#1124,#1125);
#1051=AXIS2_PLACEMENT_3D('',#1387,#1130,#1131);
#1052=AXIS2_PLACEMENT_3D('',#1393,#1135,#1136);
#1053=AXIS2_PLACEMENT_3D('',#1399,#1140,#1141);
#1054=AXIS2_PLACEMENT_3D('',#1408,#1146,#1147);
#1055=AXIS2_PLACEMENT_3D('',#1414,#1151,#1152);
#1056=AXIS2_PLACEMENT_3D('',#1420,#1156,#1157);
#1057=AXIS2_PLACEMENT_3D('',#1429,#1162,#1163);
#1058=AXIS2_PLACEMENT_3D('',#1435,#1167,#1168);
#1059=AXIS2_PLACEMENT_3D('',#1441,#1172,#1173);
#1060=AXIS2_PLACEMENT_3D('',#1450,#1178,#1179);
#1061=AXIS2_PLACEMENT_3D('',#1511,#1213,#1214);
#1062=AXIS2_PLACEMENT_3D('',#1513,#1216,#1217);
#1063=AXIS2_PLACEMENT_3D('',#1517,#1220,#1221);
#1064=AXIS2_PLACEMENT_3D('',#1523,#1225,#1226);
#1065=AXIS2_PLACEMENT_3D('',#1529,#1230,#1231);
#1066=AXIS2_PLACEMENT_3D('',#1531,#1233,#1234);
#1067=AXIS2_PLACEMENT_3D('',#1533,#1236,#1237);
#1068=AXIS2_PLACEMENT_3D('',#1537,#1240,#1241);
#1069=AXIS2_PLACEMENT_3D('',#1539,#1243,#1244);
#1070=AXIS2_PLACEMENT_3D('',#1543,#1247,#1248);
#1071=AXIS2_PLACEMENT_3D('',#1549,#1252,#1253);
#1072=AXIS2_PLACEMENT_3D('',#1551,#1255,#1256);
#1073=AXIS2_PLACEMENT_3D('',#1555,#1259,#1260);
#1074=AXIS2_PLACEMENT_3D('',#1557,#1262,#1263);
#1075=AXIS2_PLACEMENT_3D('',#1561,#1266,#1267);
#1076=AXIS2_PLACEMENT_3D('',#1567,#1271,#1272);
#1077=AXIS2_PLACEMENT_3D('',#1569,#1274,#1275);
#1078=AXIS2_PLACEMENT_3D('',#1573,#1278,#1279);
#1079=AXIS2_PLACEMENT_3D('',#1575,#1281,#1282);
#1080=AXIS2_PLACEMENT_3D('',#1579,#1285,#1286);
#1081=AXIS2_PLACEMENT_3D('',#1585,#1290,#1291);
#1082=AXIS2_PLACEMENT_3D('',#1587,#1293,#1294);
#1083=AXIS2_PLACEMENT_3D('',#1591,#1297,#1298);
#1084=AXIS2_PLACEMENT_3D('',#1595,#1301,#1302);
#1085=AXIS2_PLACEMENT_3D('',#1599,#1305,#1306);
#1086=AXIS2_PLACEMENT_3D('',#1603,#1309,#1310);
#1087=AXIS2_PLACEMENT_3D('',#1607,#1313,#1314);
#1088=AXIS2_PLACEMENT_3D('',#1609,#1316,#1317);
#1089=AXIS2_PLACEMENT_3D('',#1615,#1321,#1322);
#1090=AXIS2_PLACEMENT_3D('',#1617,#1324,#1325);
#1091=AXIS2_PLACEMENT_3D('',#1621,#1328,#1329);
#1092=AXIS2_PLACEMENT_3D('',#1625,#1332,#1333);
#1093=AXIS2_PLACEMENT_3D('',#1629,#1336,#1337);
#1094=AXIS2_PLACEMENT_3D('',#1631,#1339,#1340);
#1095=DIRECTION('axis',(0.,0.,1.));
#1096=DIRECTION('refdir',(1.,0.,0.));
#1097=DIRECTION('center_axis',(0.,0.,1.));
#1098=DIRECTION('ref_axis',(1.,0.,0.));
#1099=DIRECTION('',(1.,0.,0.));
#1100=DIRECTION('',(0.,1.,0.));
#1101=DIRECTION('',(1.,0.,0.));
#1102=DIRECTION('',(0.,1.,0.));
#1103=DIRECTION('center_axis',(0.975690056891626,0.,0.219154997394119));
#1104=DIRECTION('ref_axis',(0.219154997394119,0.,-0.975690056891626));
#1105=DIRECTION('',(0.219154997394119,0.,-0.975690056891626));
#1106=DIRECTION('',(0.,-1.,0.));
#1107=DIRECTION('',(0.219154997394119,0.,-0.975690056891626));
#1108=DIRECTION('center_axis',(-0.975690056891626,0.,0.219154997394119));
#1109=DIRECTION('ref_axis',(0.219154997394119,0.,0.975690056891626));
#1110=DIRECTION('',(0.219154997394119,0.,0.975690056891626));
#1111=DIRECTION('',(0.,1.,0.));
#1112=DIRECTION('',(0.219154997394119,0.,0.975690056891626));
#1113=DIRECTION('',(0.,1.,0.));
#1114=DIRECTION('center_axis',(0.,0.,1.));
#1115=DIRECTION('ref_axis',(1.,0.,0.));
#1116=DIRECTION('',(1.,0.,0.));
#1117=DIRECTION('',(0.,1.,0.));
#1118=DIRECTION('',(1.,0.,0.));
#1119=DIRECTION('center_axis',(0.975690056891626,0.,0.219154997394119));
#1120=DIRECTION('ref_axis',(0.219154997394119,0.,-0.975690056891626));
#1121=DIRECTION('',(0.219154997394119,0.,-0.975690056891626));
#1122=DIRECTION('',(0.,-1.,0.));
#1123=DIRECTION('',(0.219154997394119,0.,-0.975690056891626));
#1124=DIRECTION('center_axis',(-0.975690056891626,0.,0.219154997394119));
#1125=DIRECTION('ref_axis',(0.219154997394119,0.,0.975690056891626));
#1126=DIRECTION('',(0.219154997394119,0.,0.975690056891626));
#1127=DIRECTION('',(0.,1.,0.));
#1128=DIRECTION('',(0.219154997394119,0.,0.975690056891626));
#1129=DIRECTION('',(0.,1.,0.));
#1130=DIRECTION('center_axis',(0.,0.,1.));
#1131=DIRECTION('ref_axis',(1.,0.,0.));
#1132=DIRECTION('',(1.,0.,0.));
#1133=DIRECTION('',(0.,1.,0.));
#1134=DIRECTION('',(1.,0.,0.));
#1135=DIRECTION('center_axis',(0.975690056891625,0.,0.21915499739412));
#1136=DIRECTION('ref_axis',(0.21915499739412,0.,-0.975690056891625));
#1137=DIRECTION('',(0.21915499739412,0.,-0.975690056891625));
#1138=DIRECTION('',(0.,-1.,0.));
#1139=DIRECTION('',(0.21915499739412,0.,-0.975690056891625));
#1140=DIRECTION('center_axis',(-0.975690056891626,0.,0.219154997394119));
#1141=DIRECTION('ref_axis',(0.219154997394119,0.,0.975690056891626));
#1142=DIRECTION('',(0.219154997394119,0.,0.975690056891626));
#1143=DIRECTION('',(0.,1.,0.));
#1144=DIRECTION('',(0.219154997394119,0.,0.975690056891626));
#1145=DIRECTION('',(0.,1.,0.));
#1146=DIRECTION('center_axis',(0.,0.,1.));
#1147=DIRECTION('ref_axis',(1.,0.,0.));
#1148=DIRECTION('',(1.,0.,0.));
#1149=DIRECTION('',(0.,1.,0.));
#1150=DIRECTION('',(1.,0.,0.));
#1151=DIRECTION('center_axis',(0.975690056891626,0.,0.219154997394119));
#1152=DIRECTION('ref_axis',(0.219154997394119,0.,-0.975690056891626));
#1153=DIRECTION('',(0.219154997394119,0.,-0.975690056891626));
#1154=DIRECTION('',(0.,-1.,0.));
#1155=DIRECTION('',(0.219154997394119,0.,-0.975690056891626));
#1156=DIRECTION('center_axis',(-0.975690056891625,0.,0.21915499739412));
#1157=DIRECTION('ref_axis',(0.21915499739412,0.,0.975690056891625));
#1158=DIRECTION('',(0.21915499739412,0.,0.975690056891625));
#1159=DIRECTION('',(0.,1.,0.));
#1160=DIRECTION('',(0.21915499739412,0.,0.975690056891625));
#1161=DIRECTION('',(0.,1.,0.));
#1162=DIRECTION('center_axis',(0.,0.,1.));
#1163=DIRECTION('ref_axis',(1.,0.,0.));
#1164=DIRECTION('',(1.,0.,0.));
#1165=DIRECTION('',(0.,1.,0.));
#1166=DIRECTION('',(1.,0.,0.));
#1167=DIRECTION('center_axis',(0.975690056891625,0.,0.21915499739412));
#1168=DIRECTION('ref_axis',(0.21915499739412,0.,-0.975690056891625));
#1169=DIRECTION('',(0.21915499739412,0.,-0.975690056891625));
#1170=DIRECTION('',(0.,-1.,0.));
#1171=DIRECTION('',(0.21915499739412,0.,-0.975690056891625));
#1172=DIRECTION('center_axis',(0.975690056891625,0.,0.21915499739412));
#1173=DIRECTION('ref_axis',(0.21915499739412,0.,-0.975690056891625));
#1174=DIRECTION('',(0.21915499739412,0.,-0.975690056891625));
#1175=DIRECTION('',(0.,-1.,0.));
#1176=DIRECTION('',(0.21915499739412,0.,-0.975690056891625));
#1177=DIRECTION('',(0.,1.,0.));
#1178=DIRECTION('center_axis',(0.,1.,0.));
#1179=DIRECTION('ref_axis',(0.,0.,1.));
#1180=DIRECTION('',(1.,0.,0.));
#1181=DIRECTION('',(1.,0.,0.));
#1182=DIRECTION('',(1.,0.,0.));
#1183=DIRECTION('',(1.,0.,0.));
#1184=DIRECTION('',(0.219154997394119,0.,0.975690056891626));
#1185=DIRECTION('',(1.,0.,0.));
#1186=DIRECTION('',(0.219154997394119,0.,-0.975690056891626));
#1187=DIRECTION('',(1.,0.,0.));
#1188=DIRECTION('',(0.219154997394119,0.,0.975690056891626));
#1189=DIRECTION('',(1.,0.,0.));
#1190=DIRECTION('',(0.219154997394119,0.,-0.975690056891626));
#1191=DIRECTION('',(1.,0.,0.));
#1192=DIRECTION('',(0.219154997394119,0.,0.975690056891626));
#1193=DIRECTION('',(1.,0.,0.));
#1194=DIRECTION('',(0.219154997394119,0.,-0.975690056891626));
#1195=DIRECTION('',(1.,0.,0.));
#1196=DIRECTION('',(0.219154997394119,0.,0.975690056891626));
#1197=DIRECTION('',(1.,0.,0.));
#1198=DIRECTION('',(0.21915499739412,0.,-0.975690056891625));
#1199=DIRECTION('',(1.,0.,0.));
#1200=DIRECTION('',(0.219154997394119,0.,0.975690056891626));
#1201=DIRECTION('',(1.,0.,0.));
#1202=DIRECTION('',(0.219154997394119,0.,-0.975690056891626));
#1203=DIRECTION('',(1.,0.,0.));
#1204=DIRECTION('',(0.219154997394119,0.,0.975690056891626));
#1205=DIRECTION('',(1.,0.,0.));
#1206=DIRECTION('',(1.,0.,0.));
#1207=DIRECTION('',(0.21915499739412,0.,0.975690056891625));
#1208=DIRECTION('',(1.,0.,0.));
#1209=DIRECTION('',(0.,0.,1.));
#1210=DIRECTION('',(-1.,0.,0.));
#1211=DIRECTION('',(0.,0.,-1.));
#1212=DIRECTION('',(1.,0.,0.));
#1213=DIRECTION('center_axis',(0.,0.,1.));
#1214=DIRECTION('ref_axis',(1.,0.,0.));
#1215=DIRECTION('',(1.,0.,0.));
#1216=DIRECTION('center_axis',(0.,0.,1.));
#1217=DIRECTION('ref_axis',(1.,0.,0.));
#1218=DIRECTION('',(0.,1.,0.));
#1219=DIRECTION('',(1.,0.,0.));
#1220=DIRECTION('center_axis',(-0.975690056891626,0.,0.219154997394119));
#1221=DIRECTION('ref_axis',(0.219154997394119,0.,0.975690056891626));
#1222=DIRECTION('',(0.,1.,0.));
#1223=DIRECTION('',(0.219154997394119,0.,0.975690056891626));
#1224=DIRECTION('',(0.,1.,0.));
#1225=DIRECTION('center_axis',(0.975690056891626,0.,0.219154997394119));
#1226=DIRECTION('ref_axis',(0.219154997394119,0.,-0.975690056891626));
#1227=DIRECTION('',(0.,-1.,0.));
#1228=DIRECTION('',(0.219154997394119,0.,-0.975690056891626));
#1229=DIRECTION('',(0.,1.,0.));
#1230=DIRECTION('center_axis',(0.,0.,1.));
#1231=DIRECTION('ref_axis',(1.,0.,0.));
#1232=DIRECTION('',(1.,0.,0.));
#1233=DIRECTION('center_axis',(0.,0.,1.));
#1234=DIRECTION('ref_axis',(1.,0.,0.));
#1235=DIRECTION('',(1.,0.,0.));
#1236=DIRECTION('center_axis',(0.,0.,1.));
#1237=DIRECTION('ref_axis',(1.,0.,0.));
#1238=DIRECTION('',(0.,1.,0.));
#1239=DIRECTION('',(1.,0.,0.));
#1240=DIRECTION('center_axis',(0.,0.,1.));
#1241=DIRECTION('ref_axis',(1.,0.,0.));
#1242=DIRECTION('',(1.,0.,0.));
#1243=DIRECTION('center_axis',(-0.975690056891626,0.,0.219154997394119));
#1244=DIRECTION('ref_axis',(0.219154997394119,0.,0.975690056891626));
#1245=DIRECTION('',(0.,1.,0.));
#1246=DIRECTION('',(0.219154997394119,0.,0.975690056891626));
#1247=DIRECTION('center_axis',(0.975690056891625,0.,0.21915499739412));
#1248=DIRECTION('ref_axis',(0.21915499739412,0.,-0.975690056891625));
#1249=DIRECTION('',(0.,-1.,0.));
#1250=DIRECTION('',(0.21915499739412,0.,-0.975690056891625));
#1251=DIRECTION('',(0.,1.,0.));
#1252=DIRECTION('center_axis',(0.,0.,1.));
#1253=DIRECTION('ref_axis',(1.,0.,0.));
#1254=DIRECTION('',(1.,0.,0.));
#1255=DIRECTION('center_axis',(0.,0.,1.));
#1256=DIRECTION('ref_axis',(1.,0.,0.));
#1257=DIRECTION('',(0.,1.,0.));
#1258=DIRECTION('',(1.,0.,0.));
#1259=DIRECTION('center_axis',(0.,0.,1.));
#1260=DIRECTION('ref_axis',(1.,0.,0.));
#1261=DIRECTION('',(1.,0.,0.));
#1262=DIRECTION('center_axis',(-0.975690056891626,0.,0.219154997394119));
#1263=DIRECTION('ref_axis',(0.219154997394119,0.,0.975690056891626));
#1264=DIRECTION('',(0.,1.,0.));
#1265=DIRECTION('',(0.219154997394119,0.,0.975690056891626));
#1266=DIRECTION('center_axis',(0.975690056891626,0.,0.219154997394119));
#1267=DIRECTION('ref_axis',(0.219154997394119,0.,-0.975690056891626));
#1268=DIRECTION('',(0.,-1.,0.));
#1269=DIRECTION('',(0.219154997394119,0.,-0.975690056891626));
#1270=DIRECTION('',(0.,1.,0.));
#1271=DIRECTION('center_axis',(0.,0.,1.));
#1272=DIRECTION('ref_axis',(1.,0.,0.));
#1273=DIRECTION('',(1.,0.,0.));
#1274=DIRECTION('center_axis',(0.,0.,1.));
#1275=DIRECTION('ref_axis',(1.,0.,0.));
#1276=DIRECTION('',(0.,1.,0.));
#1277=DIRECTION('',(1.,0.,0.));
#1278=DIRECTION('center_axis',(0.,0.,1.));
#1279=DIRECTION('ref_axis',(1.,0.,0.));
#1280=DIRECTION('',(1.,0.,0.));
#1281=DIRECTION('center_axis',(-0.975690056891626,0.,0.219154997394119));
#1282=DIRECTION('ref_axis',(0.219154997394119,0.,0.975690056891626));
#1283=DIRECTION('',(0.,1.,0.));
#1284=DIRECTION('',(0.219154997394119,0.,0.975690056891626));
#1285=DIRECTION('center_axis',(0.975690056891626,0.,0.219154997394119));
#1286=DIRECTION('ref_axis',(0.219154997394119,0.,-0.975690056891626));
#1287=DIRECTION('',(0.,-1.,0.));
#1288=DIRECTION('',(0.219154997394119,0.,-0.975690056891626));
#1289=DIRECTION('',(0.,1.,0.));
#1290=DIRECTION('center_axis',(0.,0.,1.));
#1291=DIRECTION('ref_axis',(1.,0.,0.));
#1292=DIRECTION('',(1.,0.,0.));
#1293=DIRECTION('center_axis',(0.,0.,1.));
#1294=DIRECTION('ref_axis',(1.,0.,0.));
#1295=DIRECTION('',(0.,1.,0.));
#1296=DIRECTION('',(1.,0.,0.));
#1297=DIRECTION('center_axis',(-0.975690056891626,0.,0.219154997394119));
#1298=DIRECTION('ref_axis',(0.219154997394119,0.,0.975690056891626));
#1299=DIRECTION('',(0.219154997394119,0.,0.975690056891626));
#1300=DIRECTION('',(0.,1.,0.));
#1301=DIRECTION('center_axis',(0.,0.,1.));
#1302=DIRECTION('ref_axis',(1.,0.,0.));
#1303=DIRECTION('',(1.,0.,0.));
#1304=DIRECTION('',(0.,-1.,0.));
#1305=DIRECTION('center_axis',(-0.975690056891626,0.,0.219154997394119));
#1306=DIRECTION('ref_axis',(0.219154997394119,0.,0.975690056891626));
#1307=DIRECTION('',(0.,1.,0.));
#1308=DIRECTION('',(0.219154997394119,0.,0.975690056891626));
#1309=DIRECTION('center_axis',(0.975690056891626,0.,0.219154997394119));
#1310=DIRECTION('ref_axis',(0.219154997394119,0.,-0.975690056891626));
#1311=DIRECTION('',(0.219154997394119,0.,-0.975690056891626));
#1312=DIRECTION('',(0.,1.,0.));
#1313=DIRECTION('center_axis',(0.,0.,1.));
#1314=DIRECTION('ref_axis',(1.,0.,0.));
#1315=DIRECTION('',(1.,0.,0.));
#1316=DIRECTION('center_axis',(-0.975690056891625,0.,0.21915499739412));
#1317=DIRECTION('ref_axis',(0.21915499739412,0.,0.975690056891625));
#1318=DIRECTION('',(0.,1.,0.));
#1319=DIRECTION('',(0.21915499739412,0.,0.975690056891625));
#1320=DIRECTION('',(0.,1.,0.));
#1321=DIRECTION('center_axis',(0.,0.,1.));
#1322=DIRECTION('ref_axis',(1.,0.,0.));
#1323=DIRECTION('',(1.,0.,0.));
#1324=DIRECTION('center_axis',(0.,0.,1.));
#1325=DIRECTION('ref_axis',(1.,0.,0.));
#1326=DIRECTION('',(1.,0.,0.));
#1327=DIRECTION('',(0.,1.,0.));
#1328=DIRECTION('center_axis',(1.,0.,0.));
#1329=DIRECTION('ref_axis',(0.,0.,-1.));
#1330=DIRECTION('',(0.,1.,0.));
#1331=DIRECTION('',(0.,0.,-1.));
#1332=DIRECTION('center_axis',(0.,0.,-1.));
#1333=DIRECTION('ref_axis',(-1.,0.,0.));
#1334=DIRECTION('',(0.,1.,0.));
#1335=DIRECTION('',(-1.,0.,0.));
#1336=DIRECTION('center_axis',(-1.,0.,0.));
#1337=DIRECTION('ref_axis',(0.,0.,1.));
#1338=DIRECTION('',(0.,0.,1.));
#1339=DIRECTION('center_axis',(0.,1.,0.));
#1340=DIRECTION('ref_axis',(0.,0.,1.));
#1341=CARTESIAN_POINT('',(0.,0.,0.));
#1342=CARTESIAN_POINT('Origin',(0.433738898038469,0.,5.75));
#1343=CARTESIAN_POINT('',(0.433738898038469,0.25,5.75));
#1344=CARTESIAN_POINT('',(0.508738898038469,0.25,5.75));
#1345=CARTESIAN_POINT('',(0.216869449019235,0.25,5.75));
#1346=CARTESIAN_POINT('',(0.508738898038469,0.65,5.75));
#1347=CARTESIAN_POINT('',(0.508738898038469,0.,5.75));
#1348=CARTESIAN_POINT('',(0.433738898038469,0.65,5.75));
#1349=CARTESIAN_POINT('',(0.433738898038469,0.65,5.75));
#1350=CARTESIAN_POINT('',(0.433738898038469,0.,5.75));
#1351=CARTESIAN_POINT('Origin',(0.508738898038469,0.,5.75));
#1352=CARTESIAN_POINT('',(0.584546590346162,0.25,5.4125));
#1353=CARTESIAN_POINT('',(0.525388502434674,0.25,5.67587504892101));
#1354=CARTESIAN_POINT('',(0.584546590346162,0.65,5.4125));
#1355=CARTESIAN_POINT('',(0.584546590346162,0.,5.4125));
#1356=CARTESIAN_POINT('',(0.508738898038469,0.65,5.75));
#1357=CARTESIAN_POINT('Origin',(0.824677796076938,0.,5.3925));
#1358=CARTESIAN_POINT('',(0.829170103769245,0.25,5.4125));
#1359=CARTESIAN_POINT('',(0.904977796076938,0.25,5.75));
#1360=CARTESIAN_POINT('',(0.814228553709408,0.25,5.34597940041853));
#1361=CARTESIAN_POINT('',(0.904977796076938,0.65,5.75));
#1362=CARTESIAN_POINT('',(0.904977796076938,0.,5.75));
#1363=CARTESIAN_POINT('',(0.829170103769246,0.65,5.4125));
#1364=CARTESIAN_POINT('',(0.824677796076938,0.65,5.3925));
#1365=CARTESIAN_POINT('',(0.829170103769246,0.,5.4125));
#1366=CARTESIAN_POINT('Origin',(0.904977796076938,0.,5.75));
#1367=CARTESIAN_POINT('',(0.979977796076938,0.25,5.75));
#1368=CARTESIAN_POINT('',(0.452488898038469,0.25,5.75));
#1369=CARTESIAN_POINT('',(0.979977796076938,0.65,5.75));
#1370=CARTESIAN_POINT('',(0.979977796076938,0.,5.75));
#1371=CARTESIAN_POINT('',(0.904977796076938,0.65,5.75));
#1372=CARTESIAN_POINT('Origin',(0.979977796076938,0.,5.75));
#1373=CARTESIAN_POINT('',(1.05578548838463,0.25,5.4125));
#1374=CARTESIAN_POINT('',(0.985310854482701,0.25,5.72625693175517));
#1375=CARTESIAN_POINT('',(1.05578548838463,0.65,5.4125));
#1376=CARTESIAN_POINT('',(1.05578548838463,0.,5.4125));
#1377=CARTESIAN_POINT('',(0.979977796076938,0.65,5.75));
#1378=CARTESIAN_POINT('Origin',(1.29591669411541,0.,5.3925));
#1379=CARTESIAN_POINT('',(1.30040900180771,0.25,5.4125));
#1380=CARTESIAN_POINT('',(1.37621669411541,0.25,5.75));
#1381=CARTESIAN_POINT('',(1.27415090575743,0.25,5.29559751758437));
#1382=CARTESIAN_POINT('',(1.37621669411541,0.65,5.75));
#1383=CARTESIAN_POINT('',(1.37621669411541,0.,5.75));
#1384=CARTESIAN_POINT('',(1.30040900180771,0.65,5.4125));
#1385=CARTESIAN_POINT('',(1.29591669411541,0.65,5.3925));
#1386=CARTESIAN_POINT('',(1.30040900180771,0.,5.4125));
#1387=CARTESIAN_POINT('Origin',(1.37621669411541,0.,5.75));
#1388=CARTESIAN_POINT('',(1.45121669411541,0.25,5.75));
#1389=CARTESIAN_POINT('',(0.688108347057704,0.25,5.75));
#1390=CARTESIAN_POINT('',(1.45121669411541,0.65,5.75));
#1391=CARTESIAN_POINT('',(1.45121669411541,0.,5.75));
#1392=CARTESIAN_POINT('',(1.37621669411541,0.65,5.75));
#1393=CARTESIAN_POINT('Origin',(1.45121669411541,0.,5.75));
#1394=CARTESIAN_POINT('',(1.5270243864231,0.25,5.4125));
#1395=CARTESIAN_POINT('',(1.44523320653073,0.25,5.77663881458933));
#1396=CARTESIAN_POINT('',(1.5270243864231,0.65,5.4125));
#1397=CARTESIAN_POINT('',(1.5270243864231,0.,5.4125));
#1398=CARTESIAN_POINT('',(1.45121669411541,0.65,5.75));
#1399=CARTESIAN_POINT('Origin',(1.76715559215388,0.,5.3925));
#1400=CARTESIAN_POINT('',(1.77164789984618,0.25,5.4125));
#1401=CARTESIAN_POINT('',(1.84745559215388,0.25,5.75));
#1402=CARTESIAN_POINT('',(1.73407325780546,0.25,5.24521563475021));
#1403=CARTESIAN_POINT('',(1.84745559215388,0.65,5.75));
#1404=CARTESIAN_POINT('',(1.84745559215388,0.,5.75));
#1405=CARTESIAN_POINT('',(1.77164789984618,0.65,5.4125));
#1406=CARTESIAN_POINT('',(1.76715559215388,0.65,5.3925));
#1407=CARTESIAN_POINT('',(1.77164789984618,0.,5.4125));
#1408=CARTESIAN_POINT('Origin',(1.84745559215388,0.,5.75));
#1409=CARTESIAN_POINT('',(1.92245559215388,0.25,5.75));
#1410=CARTESIAN_POINT('',(0.923727796076938,0.25,5.75));
#1411=CARTESIAN_POINT('',(1.92245559215388,0.65,5.75));
#1412=CARTESIAN_POINT('',(1.92245559215388,0.,5.75));
#1413=CARTESIAN_POINT('',(1.84745559215388,0.65,5.75));
#1414=CARTESIAN_POINT('Origin',(1.92245559215388,0.,5.75));
#1415=CARTESIAN_POINT('',(1.99826328446157,0.25,5.4125));
#1416=CARTESIAN_POINT('',(1.90515555857875,0.25,5.82702069742348));
#1417=CARTESIAN_POINT('',(1.99826328446157,0.65,5.4125));
#1418=CARTESIAN_POINT('',(1.99826328446157,0.,5.4125));
#1419=CARTESIAN_POINT('',(1.92245559215388,0.65,5.75));
#1420=CARTESIAN_POINT('Origin',(2.23839449019234,0.,5.3925));
#1421=CARTESIAN_POINT('',(2.24288679788465,0.25,5.4125));
#1422=CARTESIAN_POINT('',(2.31869449019234,0.25,5.75));
#1423=CARTESIAN_POINT('',(2.19399560985349,0.25,5.19483375191605));
#1424=CARTESIAN_POINT('',(2.31869449019234,0.65,5.75));
#1425=CARTESIAN_POINT('',(2.31869449019234,0.,5.75));
#1426=CARTESIAN_POINT('',(2.24288679788465,0.65,5.4125));
#1427=CARTESIAN_POINT('',(2.23839449019234,0.65,5.3925));
#1428=CARTESIAN_POINT('',(2.24288679788465,0.,5.4125));
#1429=CARTESIAN_POINT('Origin',(2.31869449019234,0.,5.75));
#1430=CARTESIAN_POINT('',(2.39369449019234,0.25,5.75));
#1431=CARTESIAN_POINT('',(1.15934724509617,0.25,5.75));
#1432=CARTESIAN_POINT('',(2.39369449019234,0.65,5.75));
#1433=CARTESIAN_POINT('',(2.39369449019234,0.,5.75));
#1434=CARTESIAN_POINT('',(2.31869449019234,0.65,5.75));
#1435=CARTESIAN_POINT('Origin',(2.39369449019234,0.,5.75));
#1436=CARTESIAN_POINT('',(2.46950218250004,0.25,5.4125));
#1437=CARTESIAN_POINT('',(2.36507791062678,0.25,5.87740258025765));
#1438=CARTESIAN_POINT('',(2.46950218250004,0.65,5.4125));
#1439=CARTESIAN_POINT('',(2.46950218250004,0.,5.4125));
#1440=CARTESIAN_POINT('',(2.39369449019234,0.65,5.75));
#1441=CARTESIAN_POINT('Origin',(-2.31869449019234,0.,5.75));
#1442=CARTESIAN_POINT('',(-2.31869449019234,0.25,5.75));
#1443=CARTESIAN_POINT('',(-2.24288679788465,0.25,5.4125));
#1444=CARTESIAN_POINT('',(-2.23414560985349,0.25,5.37358375191605));
#1445=CARTESIAN_POINT('',(-2.24288679788465,0.65,5.4125));
#1446=CARTESIAN_POINT('',(-2.24288679788465,0.,5.4125));
#1447=CARTESIAN_POINT('',(-2.31869449019234,0.65,5.75));
#1448=CARTESIAN_POINT('',(-2.31869449019234,0.65,5.75));
#1449=CARTESIAN_POINT('',(-2.31869449019234,0.,5.75));
#1450=CARTESIAN_POINT('Origin',(0.,0.25,5.31125));
#1451=CARTESIAN_POINT('',(-1.3,0.25,5.4125));
#1452=CARTESIAN_POINT('',(-1.3,0.25,5.4125));
#1453=CARTESIAN_POINT('',(-1.3,0.25,5.4125));
#1454=CARTESIAN_POINT('',(-1.3,0.25,5.4125));
#1455=CARTESIAN_POINT('',(0.357931205730777,0.25,5.4125));
#1456=CARTESIAN_POINT('',(0.35430620166138,0.25,5.39636128325269));
#1457=CARTESIAN_POINT('',(0.113307692307693,0.25,5.4125));
#1458=CARTESIAN_POINT('',(-1.3,0.25,5.4125));
#1459=CARTESIAN_POINT('',(0.0375,0.25,5.75));
#1460=CARTESIAN_POINT('',(0.0654661503866467,0.25,5.62549316608685));
#1461=CARTESIAN_POINT('',(-0.0375,0.25,5.75));
#1462=CARTESIAN_POINT('',(-0.01875,0.25,5.75));
#1463=CARTESIAN_POINT('',(-0.113307692307692,0.25,5.4125));
#1464=CARTESIAN_POINT('',(-0.105616150386647,0.25,5.44674316608685));
#1465=CARTESIAN_POINT('',(-0.357931205730776,0.25,5.4125));
#1466=CARTESIAN_POINT('',(-1.3,0.25,5.4125));
#1467=CARTESIAN_POINT('',(-0.433738898038469,0.25,5.75));
#1468=CARTESIAN_POINT('',(-0.39445620166138,0.25,5.57511128325269));
#1469=CARTESIAN_POINT('',(-0.508738898038469,0.25,5.75));
#1470=CARTESIAN_POINT('',(-0.254369449019234,0.25,5.75));
#1471=CARTESIAN_POINT('',(-0.584546590346161,0.25,5.4125));
#1472=CARTESIAN_POINT('',(-0.565538502434674,0.25,5.49712504892101));
#1473=CARTESIAN_POINT('',(-0.829170103769245,0.25,5.4125));
#1474=CARTESIAN_POINT('',(-1.3,0.25,5.4125));
#1475=CARTESIAN_POINT('',(-0.904977796076938,0.25,5.75));
#1476=CARTESIAN_POINT('',(-0.854378553709407,0.25,5.52472940041853));
#1477=CARTESIAN_POINT('',(-0.979977796076938,0.25,5.75));
#1478=CARTESIAN_POINT('',(-0.489988898038469,0.25,5.75));
#1479=CARTESIAN_POINT('',(-1.05578548838463,0.25,5.4125));
#1480=CARTESIAN_POINT('',(-1.0254608544827,0.25,5.54750693175517));
#1481=CARTESIAN_POINT('',(-1.30040900180771,0.25,5.4125));
#1482=CARTESIAN_POINT('',(-1.3,0.25,5.4125));
#1483=CARTESIAN_POINT('',(-1.37621669411541,0.25,5.75));
#1484=CARTESIAN_POINT('',(-1.31430090575743,0.25,5.47434751758437));
#1485=CARTESIAN_POINT('',(-1.45121669411541,0.25,5.75));
#1486=CARTESIAN_POINT('',(-0.725608347057703,0.25,5.75));
#1487=CARTESIAN_POINT('',(-1.5270243864231,0.25,5.4125));
#1488=CARTESIAN_POINT('',(-1.48538320653073,0.25,5.59788881458933));
#1489=CARTESIAN_POINT('',(-1.77164789984618,0.25,5.4125));
#1490=CARTESIAN_POINT('',(-1.3,0.25,5.4125));
#1491=CARTESIAN_POINT('',(-1.84745559215388,0.25,5.75));
#1492=CARTESIAN_POINT('',(-1.77422325780546,0.25,5.42396563475021));
#1493=CARTESIAN_POINT('',(-1.92245559215388,0.25,5.75));
#1494=CARTESIAN_POINT('',(-0.961227796076938,0.25,5.75));
#1495=CARTESIAN_POINT('',(-1.99826328446157,0.25,5.4125));
#1496=CARTESIAN_POINT('',(-1.94530555857875,0.25,5.64827069742348));
#1497=CARTESIAN_POINT('',(-1.3,0.25,5.4125));
#1498=CARTESIAN_POINT('',(-2.39369449019234,0.25,5.75));
#1499=CARTESIAN_POINT('',(-1.19684724509617,0.25,5.75));
#1500=CARTESIAN_POINT('',(-2.46950218250004,0.25,5.4125));
#1501=CARTESIAN_POINT('',(-2.40522791062678,0.25,5.69865258025765));
#1502=CARTESIAN_POINT('',(-2.6,0.25,5.4125));
#1503=CARTESIAN_POINT('',(-1.3,0.25,5.4125));
#1504=CARTESIAN_POINT('',(-2.6,0.25,5.21));
#1505=CARTESIAN_POINT('',(-2.6,0.25,5.260625));
#1506=CARTESIAN_POINT('',(2.6,0.25,5.21));
#1507=CARTESIAN_POINT('',(1.3,0.25,5.21));
#1508=CARTESIAN_POINT('',(2.6,0.25,5.4125));
#1509=CARTESIAN_POINT('',(2.6,0.25,5.361875));
#1510=CARTESIAN_POINT('',(-1.3,0.25,5.4125));
#1511=CARTESIAN_POINT('Origin',(-2.6,0.,5.4125));
#1512=CARTESIAN_POINT('',(2.6,0.65,5.4125));
#1513=CARTESIAN_POINT('Origin',(-2.6,0.,5.4125));
#1514=CARTESIAN_POINT('',(2.6,0.65,5.4125));
#1515=CARTESIAN_POINT('',(2.6,0.,5.4125));
#1516=CARTESIAN_POINT('',(2.6,0.65,5.4125));
#1517=CARTESIAN_POINT('Origin',(-2.00275559215388,0.,5.3925));
#1518=CARTESIAN_POINT('',(-1.92245559215388,0.65,5.75));
#1519=CARTESIAN_POINT('',(-1.92245559215388,0.,5.75));
#1520=CARTESIAN_POINT('',(-1.99826328446157,0.65,5.4125));
#1521=CARTESIAN_POINT('',(-2.00275559215388,0.65,5.3925));
#1522=CARTESIAN_POINT('',(-1.99826328446157,0.,5.4125));
#1523=CARTESIAN_POINT('Origin',(-1.84745559215388,0.,5.75));
#1524=CARTESIAN_POINT('',(-1.77164789984618,0.65,5.4125));
#1525=CARTESIAN_POINT('',(-1.77164789984618,0.,5.4125));
#1526=CARTESIAN_POINT('',(-1.84745559215388,0.65,5.75));
#1527=CARTESIAN_POINT('',(-1.84745559215388,0.65,5.75));
#1528=CARTESIAN_POINT('',(-1.84745559215388,0.,5.75));
#1529=CARTESIAN_POINT('Origin',(-1.92245559215388,0.,5.75));
#1530=CARTESIAN_POINT('',(-1.92245559215388,0.65,5.75));
#1531=CARTESIAN_POINT('Origin',(-2.6,0.,5.4125));
#1532=CARTESIAN_POINT('',(2.6,0.65,5.4125));
#1533=CARTESIAN_POINT('Origin',(-2.6,0.,5.4125));
#1534=CARTESIAN_POINT('',(-1.5270243864231,0.65,5.4125));
#1535=CARTESIAN_POINT('',(-1.5270243864231,0.,5.4125));
#1536=CARTESIAN_POINT('',(2.6,0.65,5.4125));
#1537=CARTESIAN_POINT('Origin',(-2.6,0.,5.4125));
#1538=CARTESIAN_POINT('',(2.6,0.65,5.4125));
#1539=CARTESIAN_POINT('Origin',(-1.53151669411541,0.,5.3925));
#1540=CARTESIAN_POINT('',(-1.45121669411541,0.65,5.75));
#1541=CARTESIAN_POINT('',(-1.45121669411541,0.,5.75));
#1542=CARTESIAN_POINT('',(-1.53151669411541,0.65,5.3925));
#1543=CARTESIAN_POINT('Origin',(-1.37621669411541,0.,5.75));
#1544=CARTESIAN_POINT('',(-1.30040900180771,0.65,5.4125));
#1545=CARTESIAN_POINT('',(-1.30040900180771,0.,5.4125));
#1546=CARTESIAN_POINT('',(-1.37621669411541,0.65,5.75));
#1547=CARTESIAN_POINT('',(-1.37621669411541,0.65,5.75));
#1548=CARTESIAN_POINT('',(-1.37621669411541,0.,5.75));
#1549=CARTESIAN_POINT('Origin',(-1.45121669411541,0.,5.75));
#1550=CARTESIAN_POINT('',(-1.45121669411541,0.65,5.75));
#1551=CARTESIAN_POINT('Origin',(-2.6,0.,5.4125));
#1552=CARTESIAN_POINT('',(-1.05578548838463,0.65,5.4125));
#1553=CARTESIAN_POINT('',(-1.05578548838463,0.,5.4125));
#1554=CARTESIAN_POINT('',(2.6,0.65,5.4125));
#1555=CARTESIAN_POINT('Origin',(-2.6,0.,5.4125));
#1556=CARTESIAN_POINT('',(2.6,0.65,5.4125));
#1557=CARTESIAN_POINT('Origin',(-1.06027779607694,0.,5.3925));
#1558=CARTESIAN_POINT('',(-0.979977796076938,0.65,5.75));
#1559=CARTESIAN_POINT('',(-0.979977796076938,0.,5.75));
#1560=CARTESIAN_POINT('',(-1.06027779607694,0.65,5.3925));
#1561=CARTESIAN_POINT('Origin',(-0.904977796076938,0.,5.75));
#1562=CARTESIAN_POINT('',(-0.829170103769245,0.65,5.4125));
#1563=CARTESIAN_POINT('',(-0.829170103769245,0.,5.4125));
#1564=CARTESIAN_POINT('',(-0.904977796076938,0.65,5.75));
#1565=CARTESIAN_POINT('',(-0.904977796076938,0.65,5.75));
#1566=CARTESIAN_POINT('',(-0.904977796076938,0.,5.75));
#1567=CARTESIAN_POINT('Origin',(-0.979977796076938,0.,5.75));
#1568=CARTESIAN_POINT('',(-0.979977796076938,0.65,5.75));
#1569=CARTESIAN_POINT('Origin',(-2.6,0.,5.4125));
#1570=CARTESIAN_POINT('',(-0.584546590346161,0.65,5.4125));
#1571=CARTESIAN_POINT('',(-0.584546590346161,0.,5.4125));
#1572=CARTESIAN_POINT('',(2.6,0.65,5.4125));
#1573=CARTESIAN_POINT('Origin',(-2.6,0.,5.4125));
#1574=CARTESIAN_POINT('',(2.6,0.65,5.4125));
#1575=CARTESIAN_POINT('Origin',(-0.589038898038469,0.,5.3925));
#1576=CARTESIAN_POINT('',(-0.508738898038469,0.65,5.75));
#1577=CARTESIAN_POINT('',(-0.508738898038469,0.,5.75));
#1578=CARTESIAN_POINT('',(-0.589038898038469,0.65,5.3925));
#1579=CARTESIAN_POINT('Origin',(-0.433738898038469,0.,5.75));
#1580=CARTESIAN_POINT('',(-0.357931205730776,0.65,5.4125));
#1581=CARTESIAN_POINT('',(-0.357931205730776,0.,5.4125));
#1582=CARTESIAN_POINT('',(-0.433738898038469,0.65,5.75));
#1583=CARTESIAN_POINT('',(-0.433738898038469,0.65,5.75));
#1584=CARTESIAN_POINT('',(-0.433738898038469,0.,5.75));
#1585=CARTESIAN_POINT('Origin',(-0.508738898038469,0.,5.75));
#1586=CARTESIAN_POINT('',(-0.508738898038469,0.65,5.75));
#1587=CARTESIAN_POINT('Origin',(-2.6,0.,5.4125));
#1588=CARTESIAN_POINT('',(-0.113307692307692,0.65,5.4125));
#1589=CARTESIAN_POINT('',(-0.113307692307692,0.,5.4125));
#1590=CARTESIAN_POINT('',(2.6,0.65,5.4125));
#1591=CARTESIAN_POINT('Origin',(0.353438898038469,0.,5.3925));
#1592=CARTESIAN_POINT('',(0.357931205730777,0.65,5.4125));
#1593=CARTESIAN_POINT('',(0.353438898038469,0.65,5.3925));
#1594=CARTESIAN_POINT('',(0.357931205730777,0.,5.4125));
#1595=CARTESIAN_POINT('Origin',(-2.6,0.,5.4125));
#1596=CARTESIAN_POINT('',(0.113307692307692,0.65,5.4125));
#1597=CARTESIAN_POINT('',(2.6,0.65,5.4125));
#1598=CARTESIAN_POINT('',(0.113307692307693,0.,5.4125));
#1599=CARTESIAN_POINT('Origin',(-0.1178,0.,5.3925));
#1600=CARTESIAN_POINT('',(-0.0375,0.65,5.75));
#1601=CARTESIAN_POINT('',(-0.0375,0.,5.75));
#1602=CARTESIAN_POINT('',(-0.1178,0.65,5.3925));
#1603=CARTESIAN_POINT('Origin',(0.0375,0.,5.75));
#1604=CARTESIAN_POINT('',(0.0375,0.65,5.75));
#1605=CARTESIAN_POINT('',(0.0375,0.65,5.75));
#1606=CARTESIAN_POINT('',(0.0375,0.,5.75));
#1607=CARTESIAN_POINT('Origin',(-0.0375,0.,5.75));
#1608=CARTESIAN_POINT('',(-0.0375,0.65,5.75));
#1609=CARTESIAN_POINT('Origin',(-2.47399449019234,0.,5.3925));
#1610=CARTESIAN_POINT('',(-2.39369449019234,0.65,5.75));
#1611=CARTESIAN_POINT('',(-2.39369449019234,0.,5.75));
#1612=CARTESIAN_POINT('',(-2.46950218250004,0.65,5.4125));
#1613=CARTESIAN_POINT('',(-2.47399449019234,0.65,5.3925));
#1614=CARTESIAN_POINT('',(-2.46950218250004,0.,5.4125));
#1615=CARTESIAN_POINT('Origin',(-2.39369449019234,0.,5.75));
#1616=CARTESIAN_POINT('',(-2.39369449019234,0.65,5.75));
#1617=CARTESIAN_POINT('Origin',(-2.6,0.,5.4125));
#1618=CARTESIAN_POINT('',(-2.6,0.65,5.4125));
#1619=CARTESIAN_POINT('',(2.6,0.65,5.4125));
#1620=CARTESIAN_POINT('',(-2.6,0.,5.4125));
#1621=CARTESIAN_POINT('Origin',(2.6,0.,5.4125));
#1622=CARTESIAN_POINT('',(2.6,0.65,5.21));
#1623=CARTESIAN_POINT('',(2.6,0.,5.21));
#1624=CARTESIAN_POINT('',(2.6,0.65,5.21));
#1625=CARTESIAN_POINT('Origin',(2.6,0.,5.21));
#1626=CARTESIAN_POINT('',(-2.6,0.65,5.21));
#1627=CARTESIAN_POINT('',(-2.6,0.,5.21));
#1628=CARTESIAN_POINT('',(-2.6,0.65,5.21));
#1629=CARTESIAN_POINT('Origin',(-2.6,0.,5.21));
#1630=CARTESIAN_POINT('',(-2.6,0.65,5.4125));
#1631=CARTESIAN_POINT('Origin',(0.,0.65,5.31125));
#1632=UNCERTAINTY_MEASURE_WITH_UNIT(LENGTH_MEASURE(0.001),#1636,
'DISTANCE_ACCURACY_VALUE',
'Maximum model space distance between geometric entities at asserted c
onnectivities');
#1633=UNCERTAINTY_MEASURE_WITH_UNIT(LENGTH_MEASURE(0.001),#1636,
'DISTANCE_ACCURACY_VALUE',
'Maximum model space distance between geometric entities at asserted c
onnectivities');
#1634=(
GEOMETRIC_REPRESENTATION_CONTEXT(3)
GLOBAL_UNCERTAINTY_ASSIGNED_CONTEXT((#1632))
GLOBAL_UNIT_ASSIGNED_CONTEXT((#1636,#1638,#1639))
REPRESENTATION_CONTEXT('','3D')
);
#1635=(
GEOMETRIC_REPRESENTATION_CONTEXT(3)
GLOBAL_UNCERTAINTY_ASSIGNED_CONTEXT((#1633))
GLOBAL_UNIT_ASSIGNED_CONTEXT((#1636,#1638,#1639))
REPRESENTATION_CONTEXT('','3D')
);
#1636=(
LENGTH_UNIT()
NAMED_UNIT(*)
SI_UNIT(.CENTI.,.METRE.)
);
#1637=(
LENGTH_UNIT()
NAMED_UNIT(*)
SI_UNIT($,.METRE.)
);
#1638=(
NAMED_UNIT(*)
PLANE_ANGLE_UNIT()
SI_UNIT($,.RADIAN.)
);
#1639=(
NAMED_UNIT(*)
SI_UNIT($,.STERADIAN.)
SOLID_ANGLE_UNIT()
);
#1640=SHAPE_DEFINITION_REPRESENTATION(#1641,#1642);
#1641=PRODUCT_DEFINITION_SHAPE('',$,#1644);
#1642=SHAPE_REPRESENTATION('',(#1044),#1634);
#1643=PRODUCT_DEFINITION_CONTEXT('part definition',#1648,'design');
#1644=PRODUCT_DEFINITION('2026-09-18-01-48-48-093','(\X2\672A4FDD5B58\X0\)',
#1645,#1643);
#1645=PRODUCT_DEFINITION_FORMATION('',$,#1650);
#1646=PRODUCT_RELATED_PRODUCT_CATEGORY('(\X2\672A4FDD5B58\X0\)',
'(\X2\672A4FDD5B58\X0\)',(#1650));
#1647=APPLICATION_PROTOCOL_DEFINITION('international standard',
'automotive_design',2009,#1648);
#1648=APPLICATION_CONTEXT(
'Core Data for Automotive Mechanical Design Process');
#1649=PRODUCT_CONTEXT('part definition',#1648,'mechanical');
#1650=PRODUCT('2026-09-18-01-48-48-093','(\X2\672A4FDD5B58\X0\)',$,(#1649));
#1651=PRESENTATION_STYLE_ASSIGNMENT((#1652));
#1652=SURFACE_STYLE_USAGE(.BOTH.,#1653);
#1653=SURFACE_SIDE_STYLE('',(#1654));
#1654=SURFACE_STYLE_FILL_AREA(#1655);
#1655=FILL_AREA_STYLE('\X2\94A2\X0\ - \X2\7F0E5149\X0\',(#1656));
#1656=FILL_AREA_STYLE_COLOUR('\X2\94A2\X0\ - \X2\7F0E5149\X0\',#1657);
#1657=COLOUR_RGB('\X2\94A2\X0\ - \X2\7F0E5149\X0\',0.627450980392157,0.627450980392157,
0.627450980392157);
ENDSEC;
END-ISO-10303-21;
